<?xml version="1.0" encoding="UTF-8" standalone="no"?>
<!-- Created with Inkscape (http://www.inkscape.org/) -->

<svg
   width="210mm"
   height="297mm"
   viewBox="0 0 210 297"
   version="1.1"
   id="svg1"
   sodipodi:docname="ЛР2.svg"
   inkscape:version="1.3.2 (091e20e, 2023-11-25, custom)"
   xmlns:inkscape="http://www.inkscape.org/namespaces/inkscape"
   xmlns:sodipodi="http://sodipodi.sourceforge.net/DTD/sodipodi-0.dtd"
   xmlns="http://www.w3.org/2000/svg"
   xmlns:svg="http://www.w3.org/2000/svg">
  <sodipodi:namedview
     id="namedview1"
     pagecolor="#ffffff"
     bordercolor="#000000"
     borderopacity="0.25"
     inkscape:showpageshadow="2"
     inkscape:pageopacity="0.0"
     inkscape:pagecheckerboard="0"
     inkscape:deskcolor="#d1d1d1"
     inkscape:document-units="mm"
     inkscape:zoom="0.64"
     inkscape:cx="657.8125"
     inkscape:cy="750.78125"
     inkscape:window-width="1920"
     inkscape:window-height="986"
     inkscape:window-x="-11"
     inkscape:window-y="-11"
     inkscape:window-maximized="1"
     inkscape:current-layer="layer1" />
  <defs
     id="defs1" />
  <g
     inkscape:label="Слой 1"
     inkscape:groupmode="layer"
     id="layer1">
    <g
       id="g1"
       transform="matrix(0.75997672,0,0,0.6549907,44.707095,4.8472314)">
      <path
         d="M 46.883038,71.109089 C 48.25558,121.93058 60.839634,97.906644 117.54201,263.61348 L 106.131,265.36363 52.069766,72.859233 Z"
         style="fill:#008000;stroke:#000000;stroke-width:0.325833"
         id="path39-7"
         sodipodi:nodetypes="ccccc" />
      <path
         d="m 101.7431,102.46632 c 5.11638,39.1711 -7.40618,22.25127 -30.601928,156.27357 l 8.925186,-0.0338 17.928684,-154.2707 z"
         style="fill:#008000;stroke:#000000;stroke-width:0.252529"
         id="path39-2"
         sodipodi:nodetypes="ccccc" />
      <path
         d="m 72.352265,102.06417 c -5.474328,39.12269 7.202414,22.31806 29.171805,156.54683 L 92.599564,258.4957 76.082142,104.06748 Z"
         style="fill:#008000;stroke:#000000;stroke-width:0.252529"
         id="path39-2-6"
         sodipodi:nodetypes="ccccc" />
      <path
         d="m 125.15061,69.390076 c -1.34859,49.850074 -13.713,26.285344 -69.425701,188.824834 l 11.211851,1.7167 53.11765,-188.824842 z"
         style="fill:#008000;stroke:#000000;stroke-width:0.319876"
         id="path39"
         sodipodi:nodetypes="ccccc" />
      <g
         id="g28"
         transform="translate(74.226985,-96.367376)">
        <path
           id="path3-3"
           style="fill:#ff6600;fill-opacity:1;stroke:#000000;stroke-width:0.28902;stroke-dasharray:none;stroke-opacity:1"
           inkscape:transform-center-x="10.252385"
           inkscape:transform-center-y="-13.745322"
           d="m 125.82431,52.642643 a 17.247957,7.5778451 0 0 0 -0.58781,1.961091 17.247957,7.5778451 0 0 0 7.4677,6.223638 7.9321375,16.47757 64.084638 0 1 9.18449,-6.604817 7.9321375,16.47757 64.084638 0 1 17.81179,-0.05269 17.247957,7.5778451 0 0 0 -17.21598,-7.143586 17.247957,7.5778451 0 0 0 -16.66019,5.616366 z m 33.87617,1.52722 a 17.247957,7.5778451 0 0 1 0.0316,0.434186 17.247957,7.5778451 0 0 1 -17.24753,7.577759 17.247957,7.5778451 0 0 1 -9.78039,-1.354436 7.9321375,16.47757 64.084638 0 0 -2.63926,7.727851 7.9321375,16.47757 64.084638 0 0 17.98691,0.304534 7.9321375,16.47757 64.084638 0 0 11.82375,-14.332668 7.9321375,16.47757 64.084638 0 0 -0.17512,-0.357226 z"
           transform="matrix(0.5789774,0.81534359,-0.88128489,0.47258538,0,0)" />
        <path
           id="ellipse3-6"
           style="fill:#ff6600;fill-opacity:1;stroke:#000000;stroke-width:0.28902;stroke-dasharray:none;stroke-opacity:1"
           inkscape:transform-center-x="0.68515848"
           inkscape:transform-center-y="-17.134055"
           d="m 116.8091,-41.965597 a 17.247957,7.5778451 0 0 0 17.24804,7.577771 17.247957,7.5778451 0 0 0 17.2476,-7.577904 17.247957,7.5778451 0 0 0 -0.0316,-0.434065 18.274132,7.152315 29.347036 0 1 -0.19583,0.429233 18.274132,7.152315 29.347036 0 1 -19.82824,-3.214717 18.274132,7.152315 29.347036 0 1 -5.14012,-3.489579 17.247957,7.5778451 0 0 0 -9.29987,6.709261 z m 9.29987,-6.709261 a 17.247957,7.5778451 0 0 1 7.94773,-0.868642 17.247957,7.5778451 0 0 1 17.21646,7.143705 18.274132,7.152315 29.347036 0 0 -11.98013,-14.664616 18.274132,7.152315 29.347036 0 0 -19.82875,-3.214726 18.274132,7.152315 29.347036 0 0 6.64469,11.604279 z"
           transform="matrix(0.01657966,0.99986255,-0.99410107,-0.10845762,0,0)" />
        <path
           id="ellipse4-0"
           style="fill:#ff6600;fill-opacity:1;stroke:#000000;stroke-width:0.28902;stroke-dasharray:none;stroke-opacity:1"
           inkscape:transform-center-x="-14.772764"
           inkscape:transform-center-y="-8.7069472"
           d="m -13.688288,-153.95034 a 17.247957,7.5778451 0 0 0 13.68361001,2.96453 17.247957,7.5778451 0 0 0 17.13621199,-6.82857 18.23552,7.1674595 27.813851 0 1 -19.4219909,-3.08221 18.23552,7.1674595 27.813851 0 1 -6.3649033,-4.22251 17.247957,7.5778451 0 0 0 -8.5970888,6.55556 17.247957,7.5778451 0 0 0 3.564161,4.6132 z m 5.0329278,-11.16876 a 17.247957,7.5778451 0 0 1 8.65106034,-1.02231 17.247957,7.5778451 0 0 1 17.24777086,7.57773 17.247957,7.5778451 0 0 1 -0.111937,0.7493 18.23552,7.1674595 27.813851 0 0 0.42014,-0.47579 18.23552,7.1674595 27.813851 0 0 -12.204603,-14.77785 18.23552,7.1674595 27.813851 0 0 -19.841648,-2.60616 18.23552,7.1674595 27.813851 0 0 5.8392168,10.55508 z"
           transform="matrix(-0.87313685,0.48747517,-0.37458015,-0.92719454,0,0)" />
        <path
           id="ellipse6-9"
           style="fill:#ff6600;fill-opacity:1;stroke:#000000;stroke-width:0.28902;stroke-dasharray:none;stroke-opacity:1"
           inkscape:transform-center-x="-14.926814"
           inkscape:transform-center-y="8.4401114"
           d="m -135.48532,-106.71629 a 17.247957,7.5778451 0 0 0 3.56424,-4.61307 17.247957,7.5778451 0 0 0 -0.0569,-0.38072 18.23552,7.1674595 27.813851 0 1 -0.15772,0.37931 18.23552,7.1674595 27.813851 0 1 -19.84205,-2.60661 18.23552,7.1674595 27.813851 0 1 -5.98602,-3.90482 17.247957,7.5778451 0 0 0 -8.45334,6.51293 17.247957,7.5778451 0 0 0 17.24814,7.57762 17.247957,7.5778451 0 0 0 13.68367,-2.96464 z m -22.47847,-11.12591 a 17.247957,7.5778451 0 0 1 8.79498,-1.06505 17.247957,7.5778451 0 0 1 17.19081,7.19717 18.23552,7.1674595 27.813851 0 0 -12.36179,-14.39812 18.23552,7.1674595 27.813851 0 0 -19.84205,-2.60661 18.23552,7.1674595 27.813851 0 0 6.21805,10.87261 z"
           transform="matrix(-0.85873431,-0.5124211,0.61568395,-0.7879932,0,0)" />
        <path
           id="ellipse8-3"
           style="fill:#ff6600;fill-opacity:1;stroke:#000000;stroke-width:0.28902;stroke-dasharray:none;stroke-opacity:1"
           inkscape:transform-center-x="-0.15405631"
           inkscape:transform-center-y="17.147057"
           d="m -148.78158,45.765612 a 18.235519,7.1674595 27.813851 0 0 -12.64628,-12.90603 18.235519,7.1674595 27.813851 0 0 -19.84175,-2.606615 18.235519,7.1674595 27.813851 0 0 6.22278,10.871892 17.247957,7.5778451 0 0 1 8.78965,-1.064549 17.247957,7.5778451 0 0 1 17.19136,7.197737 18.235519,7.1674595 27.813851 0 0 0.28424,-1.492435 z m -0.28424,1.492435 a 18.235519,7.1674595 27.813851 0 1 -0.15809,0.379072 18.235519,7.1674595 27.813851 0 1 -19.84175,-2.606615 18.235519,7.1674595 27.813851 0 1 -5.98117,-3.905645 17.247957,7.5778451 0 0 0 -8.45795,6.513527 17.247957,7.5778451 0 0 0 17.24789,7.577862 17.247957,7.5778451 0 0 0 17.24761,-7.578076 17.247957,7.5778451 0 0 0 -0.0565,-0.380125 z"
           transform="matrix(0.01440254,-0.99989628,0.9902641,0.13920134,0,0)" />
        <path
           id="ellipse10-4"
           style="fill:#ff6600;fill-opacity:1;stroke:#000000;stroke-width:0.28902;stroke-dasharray:none;stroke-opacity:1"
           inkscape:transform-center-x="14.772764"
           inkscape:transform-center-y="8.7069298"
           d="m -29.351594,144.59287 a 18.23552,7.1674595 27.813851 0 0 -19.841648,-2.60617 18.23552,7.1674595 27.813851 0 0 6.222551,10.87144 17.247957,7.5778451 -180 0 1 8.79025,-1.06395 17.247957,7.5778451 -180 0 1 17.19123,7.19633 18.23552,7.1674595 27.813851 0 0 -12.362383,-14.39765 z m 12.362383,14.39765 a 18.23552,7.1674595 27.813851 0 1 -0.158263,0.37994 18.23552,7.1674595 27.813851 0 1 -19.841648,-2.60617 18.23552,7.1674595 27.813851 0 1 -5.981569,-3.90615 17.247957,7.5778451 -180 0 0 -8.457899,6.51392 17.247957,7.5778451 -180 0 0 17.247771,7.57773 17.247957,7.5778451 -180 0 0 17.248149,-7.57787 17.247957,7.5778451 -180 0 0 -0.05654,-0.3814 z"
           transform="matrix(0.87313685,-0.48747518,0.37458015,0.92719454,0,0)" />
      </g>
      <g
         id="g30"
         transform="translate(43.651883,-175.88301)">
        <path
           id="path3-2"
           style="fill:#800080;fill-opacity:1;stroke:#000000;stroke-width:0.28902;stroke-dasharray:none;stroke-opacity:1"
           inkscape:transform-center-x="10.252385"
           inkscape:transform-center-y="-13.745322"
           d="m 216.56348,113.21835 a 17.247957,7.5778451 0 0 0 9.78038,1.35443 17.247957,7.5778451 0 0 0 17.24754,-7.57775 17.247957,7.5778451 0 0 0 -0.0316,-0.43419 7.9321375,16.47757 64.084638 0 0 -17.81178,0.0527 7.9321375,16.47757 64.084638 0 0 -9.18449,6.60482 z"
           transform="matrix(0.5789774,0.81534359,-0.88128489,0.47258538,0,0)" />
        <path
           id="ellipse3-0"
           style="fill:#800080;fill-opacity:1;stroke:#000000;stroke-width:0.28902;stroke-dasharray:none;stroke-opacity:1"
           inkscape:transform-center-x="0.68515848"
           inkscape:transform-center-y="-17.134055"
           d="m 219.16362,-49.518269 a 18.274132,7.152315 29.347036 0 0 5.14012,3.489579 18.274132,7.152315 29.347036 0 0 19.82824,3.214717 18.274132,7.152315 29.347036 0 0 0.19583,-0.429233 17.247957,7.5778451 0 0 0 -17.21646,-7.143705 17.247957,7.5778451 0 0 0 -7.94773,0.868642 z"
           transform="matrix(0.01657966,0.99986255,-0.99410107,-0.10845762,0,0)" />
        <path
           id="ellipse4-3"
           style="fill:#800080;fill-opacity:1;stroke:#000000;stroke-width:0.28902;stroke-dasharray:none;stroke-opacity:1"
           inkscape:transform-center-x="-14.772764"
           inkscape:transform-center-y="-8.7069472"
           d="m 30.123048,-244.30147 a 18.23552,7.1674595 27.813851 0 0 19.841648,2.60616 18.23552,7.1674595 27.813851 0 0 0.158068,-0.37949 17.247957,7.5778451 0 0 0 -17.191035,-7.19678 17.247957,7.5778451 0 0 0 -8.794884,1.06096 18.23552,7.1674595 27.813851 0 0 5.986203,3.90915 z"
           transform="matrix(-0.87313685,0.48747517,-0.37458015,-0.92719454,0,0)" />
        <path
           id="ellipse6-95"
           style="fill:#800080;fill-opacity:1;stroke:#000000;stroke-width:0.28902;stroke-dasharray:none;stroke-opacity:1"
           inkscape:transform-center-x="-14.926814"
           inkscape:transform-center-y="8.4401114"
           d="m -192.45585,-189.98904 a 18.23552,7.1674595 27.813851 0 0 0.63547,-0.72015 18.23552,7.1674595 27.813851 0 0 0.15771,-0.37931 17.247957,7.5778451 0 0 0 -17.1908,-7.19717 17.247957,7.5778451 0 0 0 -8.79498,1.06505 18.23552,7.1674595 27.813851 0 0 5.98602,3.90482 18.23552,7.1674595 27.813851 0 0 19.20658,3.32676 z"
           transform="matrix(-0.85873431,-0.5124211,0.61568395,-0.7879932,0,0)" />
        <path
           id="ellipse8-7"
           style="fill:#800080;fill-opacity:1;stroke:#000000;stroke-width:0.28902;stroke-dasharray:none;stroke-opacity:1"
           inkscape:transform-center-x="-0.15405631"
           inkscape:transform-center-y="17.147057"
           d="m -241.68651,51.009797 a 17.247957,7.5778451 0 0 0 -17.19136,-7.197737 17.247957,7.5778451 0 0 0 -8.78965,1.064549 18.235519,7.1674595 27.813851 0 0 5.98117,3.905645 18.235519,7.1674595 27.813851 0 0 19.84175,2.606615 18.235519,7.1674595 27.813851 0 0 0.15809,-0.379072 z"
           transform="matrix(0.01440254,-0.99989628,0.9902641,0.13920134,0,0)" />
        <path
           id="ellipse10-1"
           style="fill:#800080;fill-opacity:1;stroke:#000000;stroke-width:0.28902;stroke-dasharray:none;stroke-opacity:1"
           inkscape:transform-center-x="14.772764"
           inkscape:transform-center-y="8.7069298"
           d="m -53.43286,237.88889 a 17.247957,7.5778451 -180 0 0 -13.68361,-2.96453 17.247957,7.5778451 -180 0 0 -8.79025,1.06394 18.23552,7.1674595 27.813851 0 0 5.981569,3.90616 18.23552,7.1674595 27.813851 0 0 19.841648,2.60617 18.23552,7.1674595 27.813851 0 0 0.158263,-0.37995 17.247957,7.5778451 -180 0 0 -3.50762,-4.23179 z"
           transform="matrix(0.87313685,-0.48747518,0.37458015,0.92719454,0,0)" />
      </g>
      <g
         id="g29"
         transform="translate(-38.356323,-51.989758)">
        <path
           id="ellipse5-3"
           style="fill:#ffcc00;stroke:#000000;stroke-width:0.28902"
           inkscape:transform-center-x="-17.147059"
           inkscape:transform-center-y="-0.15405516"
           transform="matrix(-0.99989628,-0.01440254,0.13920134,-0.9902641,0,0)"
           d="m -169.79658,-150.90567 a 17.247957,7.5778451 0 0 1 -17.24796,7.57784 17.247957,7.5778451 0 0 1 -17.24796,-7.57784 17.247957,7.5778451 0 0 1 17.24796,-7.57785 17.247957,7.5778451 0 0 1 17.24796,7.57785 z m 0.17307,-0.107 a 7.9876603,16.363033 56.751542 0 1 -10.03247,15.73175 7.9876603,16.363033 56.751542 0 1 -17.67016,1.65239 7.9876603,16.363033 56.751542 0 1 10.03248,-15.73174 7.9876603,16.363033 56.751542 0 1 17.67015,-1.6524 z" />
        <path
           id="ellipse7-2"
           style="fill:#ffcc00;stroke:#000000;stroke-width:0.28902"
           inkscape:transform-center-x="-8.7069449"
           inkscape:transform-center-y="14.772758"
           transform="matrix(-0.48747518,-0.87313685,0.92719454,-0.37458015,0,0)"
           d="m -198.36146,56.594936 a 17.247957,7.5778451 0 0 1 -17.24796,7.577845 17.247957,7.5778451 0 0 1 -17.24796,-7.577845 17.247957,7.5778451 0 0 1 17.24796,-7.577845 17.247957,7.5778451 0 0 1 17.24796,7.577845 z m 0.17308,-0.107018 a 7.9876604,16.363032 56.751542 0 1 -10.03248,15.731745 7.9876604,16.363032 56.751542 0 1 -17.67016,1.652398 7.9876604,16.363032 56.751542 0 1 10.03248,-15.731744 7.9876604,16.363032 56.751542 0 1 17.67016,-1.652399 z" />
        <path
           id="ellipse9-0"
           style="fill:#ffcc00;stroke:#000000;stroke-width:0.28902"
           inkscape:transform-center-x="8.4401168"
           inkscape:transform-center-y="14.926811"
           transform="matrix(0.5124211,-0.85873431,0.7879932,0.61568395,0,0)"
           d="m -28.409494,207.90475 a 17.247957,7.5778451 0 0 1 -17.247958,7.57785 17.247957,7.5778451 0 0 1 -17.247957,-7.57785 17.247957,7.5778451 0 0 1 17.247957,-7.57784 17.247957,7.5778451 0 0 1 17.247958,7.57784 z m 0.173073,-0.10699 a 7.9876603,16.363033 56.751543 0 1 -10.03247,15.73174 7.9876603,16.363033 56.751543 0 1 -17.670159,1.6524 7.9876603,16.363033 56.751543 0 1 10.032483,-15.73174 7.9876603,16.363033 56.751543 0 1 17.670146,-1.6524 z" />
        <path
           id="ellipse11-7"
           style="fill:#ffcc00;stroke:#000000;stroke-width:0.28902"
           inkscape:transform-center-x="17.147057"
           inkscape:transform-center-y="0.15404176"
           transform="matrix(0.99989628,0.01440254,-0.13920134,0.9902641,0,0)"
           d="m 170.10736,151.71399 a 17.247957,7.5778451 0 0 1 -17.24795,7.57784 17.247957,7.5778451 0 0 1 -17.24796,-7.57784 17.247957,7.5778451 0 0 1 17.24796,-7.57785 17.247957,7.5778451 0 0 1 17.24795,7.57785 z m 0.17307,-0.10702 a 7.9876603,16.363033 56.751542 0 1 -10.03248,15.73174 7.9876603,16.363033 56.751542 0 1 -17.67015,1.6524 7.9876603,16.363033 56.751542 0 1 10.03248,-15.73175 7.9876603,16.363033 56.751542 0 1 17.67015,-1.65239 z" />
        <path
           id="ellipse12-4"
           style="fill:#ffcc00;stroke:#000000;stroke-width:0.28902"
           inkscape:transform-center-x="14.92681"
           inkscape:transform-center-y="-8.4401265"
           transform="matrix(0.85873431,0.5124211,-0.61568395,0.7879932,0,0)"
           d="m 212.89096,55.321171 a 17.247957,7.5778451 0 0 1 -17.24795,7.577845 17.247957,7.5778451 0 0 1 -17.24796,-7.577845 17.247957,7.5778451 0 0 1 17.24796,-7.577845 17.247957,7.5778451 0 0 1 17.24795,7.577845 z m -0.16967,0.0083 a 18.077367,7.230165 22.383699 0 1 -19.73957,-0.465554 18.077367,7.230165 22.383699 0 1 -13.57623,-13.562864 18.077367,7.230165 22.383699 0 1 19.73958,0.465558 18.077367,7.230165 22.383699 0 1 13.57622,13.56286 z" />
        <path
           id="ellipse15-3"
           style="fill:#ffcc00;stroke:#000000;stroke-width:0.28902"
           inkscape:transform-center-x="-8.4401223"
           inkscape:transform-center-y="-14.926814"
           transform="matrix(-0.5124211,0.85873431,-0.7879932,-0.61568395,0,0)"
           d="m 28.720266,-207.09644 a 17.247957,7.5778451 0 0 1 -17.247957,7.57785 17.247957,7.5778451 0 0 1 -17.2479571,-7.57785 17.247957,7.5778451 0 0 1 17.2479571,-7.57784 17.247957,7.5778451 0 0 1 17.247957,7.57784 z m 0.180919,-0.11626 a 7.999024,16.339787 54.623504 0 1 -9.497341,16.0988 7.999024,16.339787 54.623504 0 1 -17.5411495,2.20977 7.999024,16.339787 54.623504 0 1 9.4973285,-16.0988 7.999024,16.339787 54.623504 0 1 17.541162,-2.20977 z" />
      </g>
      <g
         id="g27"
         transform="translate(-47.235509,-3.9856227)">
        <path
           id="path3"
           style="fill:#aa0000;fill-opacity:1;stroke:#000000;stroke-width:0.304814;stroke-dasharray:none;stroke-opacity:1"
           inkscape:transform-center-x="0.12052474"
           inkscape:transform-center-y="1.5111247"
           d="m 96.305418,29.039569 a 18.262228,7.9605435 84.067008 0 0 -6.745073,12.917023 18.290532,7.9482253 49.514247 0 0 -13.263119,-4.82376 18.290532,7.9482253 49.514247 0 0 -0.683998,9.597265 18.317539,7.9365066 25.750528 0 0 -8.740489,2.084885 18.317539,7.9365066 25.750528 0 0 5.642503,11.169606 7.9309733,18.330318 85.89749 0 0 -9.533929,7.241216 7.9309733,18.330318 85.89749 0 0 10.49234,6.862993 7.9402266,18.308956 56.021968 0 0 -4.622319,11.019657 7.9402266,18.308956 56.021968 0 0 12.531465,0.716326 7.9551069,18.274708 25.999758 0 0 1.527477,11.846084 7.9551069,18.274708 25.999758 0 0 11.211922,-5.621204 18.261854,7.9607068 85.851948 0 0 7.268642,9.49795 18.261854,7.9607068 85.851948 0 0 6.89245,-10.449658 18.283322,7.9513594 55.727198 0 0 11.05795,4.601783 18.283322,7.9513594 55.727198 0 0 0.72404,-12.482814 18.317539,7.9365066 25.750528 0 0 11.88596,-1.523066 18.317539,7.9365066 25.750528 0 0 -5.63362,-11.16792 7.9309733,18.330318 85.89749 0 0 9.52505,-7.242903 7.9309733,18.330318 85.89749 0 0 -10.48737,-6.862183 7.9402267,18.308956 56.021969 0 0 4.61733,-11.020471 7.9402267,18.308956 56.021969 0 0 -12.52607,-0.71826 7.9551069,18.274708 25.999758 0 0 -1.53287,-11.844146 7.9551069,18.274708 25.999758 0 0 -11.77525,6.369266 18.262228,7.9605435 84.067008 0 0 -7.833022,-10.167669 z" />
        <path
           id="path3-7"
           style="fill:#d40000;fill-opacity:1;stroke:#000000;stroke-width:0.287886;stroke-dasharray:none;stroke-opacity:1"
           inkscape:transform-center-x="1.6766961"
           inkscape:transform-center-y="0.89400122"
           d="m 103.12173,30.530262 a 7.5045521,17.279973 6.2635562 0 0 -8.791152,10.608551 17.279973,7.5045522 61.834894 0 0 -11.260388,-7.096497 17.279973,7.5045522 61.834894 0 0 -2.543865,8.741676 17.279973,7.5045522 38.038777 0 0 -8.470193,0.192391 17.279973,7.5045522 38.038777 0 0 2.972606,11.452749 17.279973,7.5045522 8.0387762 0 0 -10.229451,4.804432 17.279973,7.5045522 8.0387762 0 0 8.300473,8.432434 7.5045521,17.279973 68.038777 0 0 -6.456689,9.27512 7.5045521,17.279973 68.038777 0 0 11.405123,3.151759 7.5045522,17.279973 38.038777 0 0 -0.954322,11.261122 7.5045522,17.279973 38.038777 0 0 11.452736,-2.972607 7.5045522,17.279973 8.0387762 0 0 4.80443,10.22944 7.5045522,17.279973 8.0387762 0 0 8.435012,-8.296925 17.279973,7.5045521 68.038777 0 0 9.27256,6.453145 17.279973,7.5045521 68.038777 0 0 3.15609,-11.402873 17.279973,7.5045522 38.038777 0 0 11.25677,0.952086 17.279973,7.5045522 38.038777 0 0 -2.96476,-11.449425 17.279973,7.5045522 8.0387762 0 0 10.22161,-4.807757 17.279973,7.5045522 8.0387762 0 0 -8.29606,-8.430695 7.5045522,17.279973 68.038778 0 0 6.45226,-9.276865 7.5045522,17.279973 68.038778 0 0 -11.39977,-3.152479 7.5045522,17.279973 38.038777 0 0 0.94898,-11.260395 7.5045522,17.279973 38.038777 0 0 -12.12101,3.552673 7.5045521,17.279973 6.2635562 0 0 -5.19099,-10.96106 z" />
        <path
           id="path3-7-9"
           style="fill:#ff0000;fill-opacity:1;stroke:#000000;stroke-width:0.197445;stroke-dasharray:none;stroke-opacity:1"
           inkscape:transform-center-x="0.38496018"
           inkscape:transform-center-y="1.986969"
           d="m 105.26629,41.675541 a 5.2354891,11.65092 17.528438 0 0 -7.380462,5.856049 11.740689,5.1954588 71.519806 0 0 -6.809366,-6.186521 11.740689,5.1954588 71.519806 0 0 -2.860693,5.447735 11.906319,5.123184 47.561366 0 0 -5.82903,-0.993986 11.906319,5.123184 47.561366 0 0 0.573062,7.971967 12.052667,5.0609766 18.580568 0 0 -7.624165,1.824976 12.052667,5.0609766 18.580568 0 0 4.610215,6.67869 5.0814304,12.004152 79.962737 0 0 -5.610259,5.282738 5.0814304,12.004152 79.962737 0 0 7.412796,3.59539 5.166453,11.806604 50.410412 0 0 -2.093471,7.325316 5.166453,11.806604 50.410412 0 0 8.228296,-0.45089 5.2340149,11.654201 19.395064 0 0 1.984748,7.404987 5.2340149,11.654201 19.395064 0 0 6.840922,-4.373558 11.705549,5.2110552 77.924444 0 0 5.529387,5.497654 11.705549,5.2110552 77.924444 0 0 3.62042,-7.12764 11.906319,5.123184 47.561366 0 0 7.59231,2.120194 11.906319,5.123184 47.561366 0 0 -0.56811,-7.96873 12.052667,5.0609766 18.580568 0 0 7.61922,-1.828212 12.052667,5.0609766 18.580568 0 0 -4.60742,-6.676958 5.0814305,12.004152 79.962738 0 0 5.60745,-5.284479 5.0814305,12.004152 79.962738 0 0 -7.40903,-3.595157 5.166453,11.806604 50.410412 0 0 2.08971,-7.325543 5.166453,11.806604 50.410412 0 0 -8.7604,0.746262 5.2354891,11.65092 17.528438 0 0 -2.15613,-7.940284 z" />
        <path
           id="path3-7-9-0"
           style="fill:#ff2a2a;fill-opacity:1;stroke:#000000;stroke-width:0.115815;stroke-dasharray:none;stroke-opacity:1"
           inkscape:transform-center-x="0.48139861"
           inkscape:transform-center-y="0.89025834"
           d="m 106.17948,52.354627 a 3.0808614,6.8120984 33.034044 0 0 -5.10606,2.189633 6.8339967,3.0709894 86.332014 0 0 -2.949837,-4.498644 6.8339967,3.0709894 86.332014 0 0 -2.462035,2.636226 6.9533794,3.0182634 61.922949 0 0 -3.17886,-1.431256 6.9533794,3.0182634 61.922949 0 0 -0.884043,4.569829 7.0916776,2.9594029 32.897302 0 0 -4.632715,-0.114235 7.0916776,2.9594029 32.897302 0 0 1.618754,4.446435 7.0952155,2.9579272 4.7529241 0 0 -4.007688,2.132019 7.0952155,2.9579272 4.7529241 0 0 3.688301,3.131467 3.0150808,6.9607191 65.797211 0 0 -2.309066,3.807126 3.0150808,6.9607191 65.797211 0 0 4.769028,0.977525 3.0785539,6.8172039 34.917021 0 0 0.0086,4.462135 3.0785539,6.8172039 34.917021 0 0 4.572558,-1.436487 3.0802809,6.8133819 2.8868414 0 0 2.323319,3.919656 3.0802809,6.8133819 2.8868414 0 0 3.151314,-3.467469 6.9533794,3.0182634 61.922949 0 0 4.01502,2.328555 6.9533794,3.0182634 61.922949 0 0 0.88638,-4.567268 7.0916776,2.9594029 32.897302 0 0 4.63038,0.111675 7.0916776,2.9594029 32.897302 0 0 -1.61743,-4.445043 7.0952155,2.9579272 4.7529251 0 0 4.00636,-2.133419 7.0952155,2.9579272 4.7529251 0 0 -3.68619,-3.130773 3.0150808,6.9607191 65.797211 0 0 2.30696,-3.807815 3.0150808,6.9607191 65.797211 0 0 -5.1179,-0.891 3.0808614,6.8120984 33.034044 0 0 -0.0251,-4.788872 z" />
      </g>
      <g
         id="g31"
         transform="translate(-91.350177,-140.22692)">
        <path
           id="path3-0"
           style="fill:#00ffff;fill-opacity:1;stroke:#000000;stroke-width:0.28902;stroke-dasharray:none;stroke-opacity:1"
           inkscape:transform-center-x="10.252385"
           inkscape:transform-center-y="-13.745322"
           d="m 269.75021,-11.620601 a 18.324298,7.1327345 58.450717 0 0 3.46199,16.9836691 18.324298,7.1327345 58.450717 0 0 4.6139,6.6825549 17.247957,7.5778451 0 0 1 6.26937,1.637243 17.412645,7.5061745 85.685319 0 1 -2.94675,-13.84639823 17.412645,7.5061745 85.685319 0 1 0.50037,-6.64562637 18.324298,7.1327345 58.450717 0 0 -10.39516,-5.9186604 18.324298,7.1327345 58.450717 0 0 -1.50372,1.107218 z m 11.89888,4.8114424 a 18.324298,7.1327345 58.450717 0 1 5.53988,7.80338548 18.324298,7.1327345 58.450717 0 1 4.04426,10.40122812 7.9321375,16.477569 64.084638 0 1 4.9797,-4.4569259 17.412645,7.5061745 85.685319 0 0 0.1216,-3.566786 17.412645,7.5061745 85.685319 0 0 -7.88803,-19.0499881 17.412645,7.5061745 85.685319 0 0 -6.79741,8.8690864 z m 14.56384,13.7476877 a 17.412645,7.5061745 85.685319 0 1 -1.36263,6.8232639 17.482883,7.476018 6.1307093 0 1 12.68334,-0.901682 17.482883,7.476018 6.1307093 0 1 6.72993,1.327056 7.9321375,16.477569 64.084638 0 0 4.6877,-9.717984 7.9321375,16.477569 64.084638 0 0 -17.98716,-0.3041098 7.9321375,16.477569 64.084638 0 0 -4.75118,2.7734559 z m 18.05064,7.2486379 a 7.9321375,16.477569 64.084638 0 1 -7.1363,4.615109 7.9321375,16.477569 64.084638 0 1 -9.96687,2.766065 18.324298,7.1327345 58.450717 0 1 5.15906,5.590012 17.482883,7.476018 6.1307093 0 0 3.56305,0.562339 17.482883,7.476018 6.1307093 0 0 18.20721,-5.551708 17.482883,7.476018 6.1307093 0 0 -9.82615,-7.981817 z m -11.94411,12.971186 a 17.482883,7.476018 6.1307093 0 1 -7.1129,-2.293442 17.412645,7.5061744 85.685318 0 1 2.52276,12.94863 17.412645,7.5061744 85.685318 0 1 -0.4931,6.612293 18.324298,7.1327345 58.450717 0 0 10.38742,5.951692 18.324298,7.1327345 58.450717 0 0 -1.95781,-18.090586 18.324298,7.1327345 58.450717 0 0 -3.34637,-5.128587 z m -5.08324,17.267481 a 18.324298,7.1327345 58.450717 0 1 -5.54715,-7.770052 18.324298,7.1327345 58.450717 0 1 -4.04427,-10.401229 7.9321375,16.477569 64.084638 0 1 -4.97969,4.456927 17.412645,7.5061744 85.685318 0 0 -0.1216,3.566786 17.412645,7.5061744 85.685318 0 0 7.88803,19.049988 17.412645,7.5061744 85.685318 0 0 6.80468,-8.90242 z M 282.66511,30.71148 a 17.412645,7.5061744 85.685318 0 1 1.03161,-5.792918 17.247957,7.5778451 0 0 1 -11.35006,1.888424 17.247957,7.5778451 0 0 1 -9.76345,-1.349759 7.9321375,16.477569 64.084638 0 0 -2.6562,7.723174 7.9321375,16.477569 64.084638 0 0 17.98692,0.304534 7.9321375,16.477569 64.084638 0 0 4.75118,-2.773455 z m -20.0819,-5.254253 a 7.9321375,16.477569 64.084638 0 1 9.16755,-6.609494 7.9321375,16.477569 64.084638 0 1 9.96407,-2.774356 18.324298,7.1327345 58.450717 0 1 -3.88873,-4.027754 17.247957,7.5778451 0 0 0 -5.47953,-0.394168 17.247957,7.5778451 0 0 0 -17.248,7.577458 17.247957,7.5778451 0 0 0 7.48464,6.228314 z m 19.13162,-9.38385 a 18.324298,7.1327345 58.450717 0 0 5.73882,3.057784 17.412645,7.5061744 85.685318 0 1 1.19508,-0.405215 17.412645,7.5061745 85.685319 0 1 -2.95635,-2.384358 7.9321375,16.477569 64.084638 0 0 -3.97755,-0.268211 z m 3.97755,0.268211 a 7.9321375,16.477569 64.084638 0 1 3.32229,1.690674 7.9321375,16.477569 64.084638 0 1 -0.0923,-0.89155 17.247957,7.5778451 0 0 0 -4.82687,-3.457846 17.412645,7.5061745 85.685319 0 0 1.59691,2.658722 z m 3.22996,0.799124 a 17.247957,7.5778451 0 0 1 0.48245,0.979554 17.482883,7.476018 6.1307093 0 1 2.05022,-2.747727 18.324298,7.1327345 58.450717 0 0 -0.22178,-3.977084 7.9321375,16.477569 64.084638 0 0 -2.31089,5.745257 z m 2.53267,-1.768173 a 18.324298,7.1327345 58.450717 0 1 -1.27979,3.092628 18.324298,7.1327345 58.450717 0 1 1.28412,0.03384 17.412645,7.5061745 85.685319 0 0 3.39096,-4.737212 17.482883,7.476018 6.1307093 0 0 -3.39529,1.610746 z m 0.004,3.126466 a 17.412645,7.5061745 85.685319 0 1 -1.22386,0.381613 17.412645,7.5061744 85.685318 0 1 2.96669,2.414613 7.9321375,16.477569 64.084638 0 0 3.95823,0.27311 18.324298,7.1327345 58.450717 0 0 -5.70106,-3.069336 z m 1.74283,2.796226 a 7.9321375,16.477569 64.084638 0 1 -3.35144,-1.725661 7.9321375,16.477569 64.084638 0 1 0.14687,1.293873 17.482883,7.476018 6.1307093 0 0 5.20896,4.001468 17.412645,7.5061744 85.685318 0 0 -2.00439,-3.56968 z m -3.20457,-0.431788 a 17.482883,7.476018 6.1307093 0 1 -0.49018,-1.051487 17.247957,7.5778451 0 0 1 -2.11108,3.105311 18.324298,7.1327345 58.450717 0 0 0.24846,3.337286 7.9321375,16.477569 64.084638 0 0 2.3528,-5.39111 z m -2.60126,2.053824 a 18.324298,7.1327345 58.450717 0 1 1.34337,-3.770929 18.324298,7.1327345 58.450717 0 1 -1.28606,-0.01518 17.412645,7.5061744 85.685318 0 0 -3.75693,5.787401 17.247957,7.5778451 0 0 0 3.69962,-2.001295 z m 1.34337,-3.770929 a 18.324298,7.1327345 58.450717 0 0 0.40707,-0.06153 18.324298,7.1327345 58.450717 0 0 0.20339,-0.102687 17.482883,7.476018 6.1307093 0 1 -0.003,-0.06977 17.412645,7.5061745 85.685319 0 1 -0.21838,-0.01798 18.324298,7.1327345 58.450717 0 0 -0.38942,0.251964 z m 0.38942,-0.251964 a 18.324298,7.1327345 58.450717 0 1 0.1778,-0.115395 7.9321375,16.477569 64.084638 0 1 -0.0375,-0.06331 17.412645,7.5061744 85.685318 0 0 -0.62074,0.01028 17.412645,7.5061745 85.685319 0 0 0.38802,0.16051 17.412645,7.5061745 85.685319 0 0 0.0924,0.0079 z m 0.14034,-0.178706 a 17.412645,7.5061744 85.685318 0 1 0.0702,0.0057 17.482883,7.476018 6.1307093 0 1 -0.0128,-0.300444 7.9321375,16.477569 64.084638 0 0 -0.3122,-0.388641 7.9321375,16.477569 64.084638 0 0 0.12569,0.465479 7.9321375,16.477569 64.084638 0 0 0.12911,0.217927 z m 0.0574,-0.294765 a 7.9321375,16.477569 64.084638 0 1 0.16992,0.262331 18.324298,7.1327345 58.450717 0 1 0.0456,-0.02284 17.247957,7.5778451 0 0 0 -0.13756,-0.540127 17.482883,7.476018 6.1307093 0 0 -0.0784,0.291553 17.482883,7.476018 6.1307093 0 0 4.4e-4,0.0091 z m 0.21548,0.23949 a 17.247957,7.5778451 0 0 1 0.0125,0.07913 17.412645,7.5061744 85.685318 0 1 0.19224,0.01606 18.324298,7.1327345 58.450717 0 0 0.42818,-0.290412 18.324298,7.1327345 58.450717 0 0 -0.44396,0.100029 18.324298,7.1327345 58.450717 0 0 -0.18891,0.0952 z m 0.20469,0.09519 a 18.324298,7.1327345 58.450717 0 1 -0.14958,0.101689 7.9321375,16.477569 64.084638 0 1 0.0377,0.0793 17.412645,7.5061745 85.685319 0 0 0.60032,-0.05595 17.412645,7.5061744 85.685318 0 0 -0.39419,-0.117065 17.412645,7.5061744 85.685318 0 0 -0.0942,-0.008 z m -0.11188,0.180988 a 17.412645,7.5061745 85.685319 0 1 -0.0555,-0.0048 17.247957,7.5778451 0 0 1 0.0133,0.277851 7.9321375,16.477569 64.084638 0 0 0.25784,0.359963 7.9321375,16.477569 64.084638 0 0 -0.11306,-0.417303 7.9321375,16.477569 64.084638 0 0 -0.10251,-0.2157 z m -0.0423,0.27304 a 7.9321375,16.477569 64.084638 0 1 -0.18363,-0.257265 18.324298,7.1327345 58.450717 0 1 -0.0591,0.02978 17.482883,7.476018 6.1307093 0 0 0.15725,0.829831 17.247957,7.5778451 0 0 0 0.0868,-0.582729 17.247957,7.5778451 0 0 0 -10e-4,-0.01962 z m -0.18363,-0.257265 a 18.324298,7.1327345 58.450717 0 0 0.0591,-0.02978 17.412645,7.5061745 85.685319 0 1 -0.0809,-0.0069 7.9321375,16.477569 64.084638 0 0 0.0219,0.03664 z m -0.0219,-0.03664 a 7.9321375,16.477569 64.084638 0 1 -0.0428,-0.07268 17.482883,7.476018 6.1307093 0 0 0.003,0.06934 17.412645,7.5061745 85.685319 0 0 0.0399,0.0033 z m -0.0428,-0.07268 a 17.482883,7.476018 6.1307093 0 1 -0.003,-0.08146 18.324298,7.1327345 58.450717 0 0 -0.0342,0.01742 7.9321375,16.477569 64.084638 0 0 0.0377,0.06404 z m -0.003,-0.08146 a 18.324298,7.1327345 58.450717 0 1 0.0681,-0.03441 17.412645,7.5061744 85.685318 0 0 -0.0695,-0.0058 17.482883,7.476018 6.1307093 0 0 10e-4,0.04021 z m 0.0681,-0.03441 a 17.412645,7.5061744 85.685318 0 1 0.12039,0.0099 7.9321375,16.477569 64.084638 0 0 -0.0328,-0.05381 18.324298,7.1327345 58.450717 0 0 -0.0876,0.04392 z m 0.12039,0.0099 a 7.9321375,16.477569 64.084638 0 1 0.0332,0.05757 17.247957,7.5778451 0 0 0 -0.008,-0.0551 17.412645,7.5061744 85.685318 0 0 -0.0252,-0.0025 z m 0.0332,0.05757 a 17.247957,7.5778451 0 0 1 0.0107,0.07447 18.324298,7.1327345 58.450717 0 0 0.024,-0.01182 7.9321375,16.477569 64.084638 0 0 -0.0347,-0.06265 z m 0.0107,0.07447 a 18.324298,7.1327345 58.450717 0 1 -0.10515,0.05347 17.412645,7.5061745 85.685319 0 0 0.11129,0.0092 17.247957,7.5778451 0 0 0 -0.006,-0.06267 z"
           transform="matrix(0.5789774,0.81534359,-0.88128489,0.47258538,0,0)" />
        <path
           id="ellipse11-16"
           style="fill:#00ffff;stroke:#000000;stroke-width:0.28902"
           inkscape:transform-center-x="17.147057"
           inkscape:transform-center-y="0.15404176"
           transform="matrix(0.99989628,0.01440254,-0.13920134,0.9902641,0,0)"
           d="m 185.21237,245.00891 a 17.247957,7.5778451 0 0 1 -17.24795,7.57785 17.247957,7.5778451 0 0 1 -17.24796,-7.57785 17.247957,7.5778451 0 0 1 17.24796,-7.57784 17.247957,7.5778451 0 0 1 17.24795,7.57784 z m 0.2324,-0.50988 a 17.643436,7.407987 79.716159 0 1 9.80939,18.33827 17.643436,7.407987 79.716159 0 1 -5.46598,16.43 17.643436,7.407987 79.716159 0 1 -9.80937,-18.33826 17.643436,7.407987 79.716159 0 1 5.46596,-16.43001 z m -0.54318,-0.29844 a 17.247957,7.5778451 0 0 1 17.24796,-7.57784 17.247957,7.5778451 0 0 1 17.24796,7.57784 17.247957,7.5778451 0 0 1 -17.24796,7.57785 17.247957,7.5778451 0 0 1 -17.24796,-7.57785 z m -0.22738,0.52238 a 17.707252,7.381289 78.047388 0 1 -10.339,-18.09473 17.707252,7.381289 78.047388 0 1 4.92904,-16.65687 17.707252,7.381289 78.047388 0 1 10.33899,18.09472 17.707252,7.381289 78.047388 0 1 -4.92903,16.65688 z" />
      </g>
      <path
         id="path31-9"
         style="fill:#008000;fill-opacity:1;stroke:#000000;stroke-width:0.121487;stroke-dasharray:none;stroke-opacity:1"
         d="m 65.833577,170.51835 a 17.793055,8.7284845 31.522617 0 0 2.467319,1.32782 1.7434823,5.0627607 86.389006 0 1 3.604475,-0.63152 1.7434823,5.0627607 86.389006 0 1 4.773531,1.57297 1.7434823,5.0627607 86.389006 0 1 -1.899397,1.37302 17.793055,8.7284845 31.522617 0 0 9.688028,-1.41634 17.793055,8.7284845 31.522617 0 0 0.710121,-5.79304 4.4022645,2.0050666 84.764169 0 1 -1.159124,1.42734 4.4022645,2.0050666 84.764169 0 1 -2.506931,-3.86149 4.4022645,2.0050666 84.764169 0 1 0.169718,-3.15544 17.793055,8.7284845 31.522617 0 0 -1.907385,-1.97071 1.9716291,4.4769243 1.5130443 0 1 -1.889437,3.90546 1.9716291,4.4769243 1.5130443 0 1 -2.025051,-4.13121 1.9716291,4.4769243 1.5130443 0 1 0.337544,-2.65368 17.793055,8.7284845 31.522617 0 0 -0.335399,-0.24516 17.793055,8.7284845 31.522617 0 0 -1.979109,-1.2464 4.4067785,2.0030128 85.225222 0 1 -1.50424,4.20315 4.4067785,2.0030128 85.225222 0 1 -2.47558,-3.88054 4.4067785,2.0030128 85.225222 0 1 0.01911,-2.32983 17.793055,8.7284845 31.522617 0 0 -4.627735,-1.57581 4.3080876,2.0488983 71.016291 0 1 -0.496079,4.63686 4.3080876,2.0488983 71.016291 0 1 -3.354534,-3.25068 4.3080876,2.0488983 71.016291 0 1 -0.46187,-1.95633 17.793055,8.7284845 31.522617 0 0 -5.80051,1.89479 17.793055,8.7284845 31.522617 0 0 -1.11387,3.86956 4.7761167,1.8481193 12.035622 0 1 2.69611,0.36141 4.7761167,1.8481193 12.035622 0 1 3.77111,2.86935 4.7761167,1.8481193 12.035622 0 1 -5.17273,0.59673 17.793055,8.7284845 31.522617 0 0 1.26408,2.01722 4.9720403,1.7752942 1.4590331 0 1 2.5362,-0.0962 4.9720403,1.7752942 1.4590331 0 1 4.477305,2.03557 4.9720403,1.7752942 1.4590331 0 1 -3.984325,1.48269 17.793055,8.7284845 31.522617 0 0 1.71399,1.51318 1.7621945,5.0090008 89.430235 0 1 2.861394,-0.24873 1.7621945,5.0090008 89.430235 0 1 4.600182,1.85515 1.7621945,5.0090008 89.430235 0 1 -2.996899,1.50078 z" />
      <path
         id="path31-0"
         style="fill:#008000;fill-opacity:1;stroke:#000000;stroke-width:0.120099;stroke-dasharray:none;stroke-opacity:1"
         d="m 91.790896,156.27734 a 8.3110294,18.261973 32.147224 0 0 -1.288705,2.53693 4.743005,1.8187145 85.061553 0 1 0.768724,3.29775 4.743005,1.8187145 85.061553 0 1 -1.46629,4.75001 4.743005,1.8187145 85.061553 0 1 -1.477723,-1.57253 8.3110294,18.261973 32.147224 0 0 1.776358,8.90824 8.3110294,18.261973 32.147224 0 0 5.996585,-0.25071 1.8598696,4.638052 75.50247 0 1 -1.509579,-0.86603 1.8598696,4.638052 75.50247 0 1 3.899985,-2.97673 1.8598696,4.638052 75.50247 0 1 3.259219,-0.34121 8.3110294,18.261973 32.147224 0 0 1.96989,-2.11117 1.8495101,4.6640306 81.274929 0 1 -4.088679,-1.16089 1.8495101,4.6640306 81.274929 0 1 4.193809,-2.56529 1.8495101,4.6640306 81.274929 0 1 2.74731,-0.10328 8.3110294,18.261973 32.147224 0 0 0.24185,-0.35514 8.3110294,18.261973 32.147224 0 0 1.22068,-2.06375 1.8592099,4.6396976 75.889832 0 1 -4.38308,-0.75047 1.8592099,4.6396976 75.889832 0 1 3.92065,-2.9502 1.8592099,4.6396976 75.889832 0 1 2.40299,-0.35206 8.3110294,18.261973 32.147224 0 0 1.47397,-4.61302 1.8760751,4.5979887 64.296057 0 1 -4.79742,0.26887 1.8760751,4.5979887 64.296057 0 1 3.24252,-3.67877 1.8760751,4.5979887 64.296057 0 1 2.00219,-0.74614 8.3110294,18.261973 32.147224 0 0 -2.14293,-5.16736 8.3110294,18.261973 32.147224 0 0 -4.02637,-0.43545 1.8531713,4.6548162 12.479223 0 1 -0.28474,2.59913 1.8531713,4.6548162 12.479223 0 1 -2.83574,4.01092 1.8531713,4.6548162 12.479223 0 1 -0.78399,-4.78172 8.3110294,18.261973 32.147224 0 0 -2.038802,1.51211 1.8305095,4.7124432 0.88076805 0 1 0.181854,2.37569 1.8305095,4.7124432 0.88076805 0 1 -1.952952,4.54421 1.8305095,4.7124432 0.88076805 0 1 -1.658804,-3.52061 8.3110294,18.261973 32.147224 0 0 -1.504413,1.85617 4.7245616,1.8258143 88.570194 0 1 0.349774,2.65803 4.7245616,1.8258143 88.570194 0 1 -1.762897,4.63142 4.7245616,1.8258143 88.570194 0 1 -1.645238,-2.58689 z" />
      <g
         id="g38"
         transform="matrix(1.2714874,0,0,0.77969803,-23.890157,18.452585)">
        <path
           style="fill:#ff2a2a;fill-opacity:1;stroke:#000000;stroke-width:0.394999;stroke-dasharray:none;stroke-opacity:1"
           d="m 83.892429,202.74004 c -0.372856,0.0932 -0.745713,0.18642 -1.118566,0.27964 -0.09322,0.0932 -0.161735,0.22068 -0.279641,0.27964 -0.189857,0.0949 -4.002487,0.064 -4.194622,0 -1.814761,-0.60492 -3.504173,-1.63413 -5.313188,-2.23713 -0.933272,-0.3111 -2.177923,-0.30005 -3.076056,-0.83893 -0.226076,-0.13564 -0.323469,-0.44137 -0.559282,-0.55928 -0.166745,-0.0834 -0.392538,0.0834 -0.559284,0 -3.846219,-1.92311 -0.196829,-0.62489 -2.516772,-1.39821 -2.702833,-0.90094 -5.033716,-3.07618 -7.270676,-4.7539 -1.044964,-0.78373 -1.775926,-1.98003 -2.796415,-2.79642 -0.36394,-0.29115 -0.789006,-0.50936 -1.118566,-0.83892 -0.147384,-0.14739 -0.164023,-0.38586 -0.279641,-0.55928 -0.331078,-0.49662 -0.932138,-0.74572 -1.398206,-1.11857 -1.070732,-0.85658 0.797099,0.51746 -0.559285,-0.83892 -0.237648,-0.23765 -0.570055,-0.35763 -0.838925,-0.55929 -0.914254,-0.68569 -1.547921,-1.7527 -2.516772,-2.23713 -0.150484,-0.0752 -1.199327,-1.43859 -1.677847,-1.67785 -0.423386,-0.21169 -0.687239,-0.55137 -1.118566,-0.83892 -0.451323,-0.30088 -1.809998,-0.97619 -2.237131,-1.11857 -0.176861,-0.059 -0.392539,0.0834 -0.559284,0 -0.417172,-0.20858 -0.683909,-0.69404 -1.118566,-0.83892 -0.644665,-0.21489 -2.725984,-0.15743 -3.355697,0 -0.506135,-0.16855 -0.520084,0.453 -0.838925,0.55928 -0.176861,0.059 -0.382421,-0.059 -0.559282,0 -0.375179,0.12506 -0.485203,0.66207 -0.838925,0.83893 -0.166745,0.0834 -0.410141,-0.11186 -0.559281,0 -0.521309,0.39098 -0.679164,1.23844 -1.118566,1.67784 -0.348427,0.34843 -0.935884,0.57052 -1.118566,1.11857 -0.05895,0.17686 0.05895,0.38242 0,0.55928 -0.04169,0.12506 -0.237955,0.15458 -0.279643,0.27964 -0.16574,0.49723 -0.175789,0.87896 -0.279641,1.39821 0.587232,0.78665 -0.477528,0.7098 -0.559281,1.11857 -0.09141,0.45702 0.173093,0.96547 0,1.3982 -0.154821,0.38705 -0.427461,0.7231 -0.559284,1.11857 -0.144394,0.43319 -0.155094,2.45332 -0.279641,3.07606 -0.02585,0.12926 -0.247669,0.15175 -0.279641,0.27964 -0.184319,0.73727 0.09289,1.77365 0,2.51677 -0.04767,0.38136 -0.237199,0.73659 -0.279643,1.11857 -0.12241,1.10169 0.137533,2.25543 0,3.35569 -0.75515,6.0412 0.159189,-2.51252 -0.559282,2.51678 -0.14338,1.00365 0.166598,2.07646 0,3.07605 -0.171167,1.02701 -0.314492,2.09689 -0.559284,3.07606 -0.287004,1.14802 0,2.73176 0,3.91498 0,3.44891 0,6.89782 0,10.34673 0,1.32467 0.09086,2.61822 -0.279641,3.91498 -0.03621,0.12675 -0.257969,0.14961 -0.279641,0.27964 -0.352017,2.11211 0,5.81678 0,8.1096 0,2.73685 0.08994,5.20851 0.838925,7.82996 0.05122,0.17926 -0.103412,0.40417 0,0.55929 0.146246,0.21937 0.441376,0.32346 0.559282,0.55928 0.08337,0.16674 -0.05896,0.38242 0,0.55928 0.229259,0.68778 2.187681,3.89026 2.796415,4.19462 0.166746,0.0834 0.382421,-0.0589 0.559282,0 0.170656,0.0569 0.668269,0.5024 0.838925,0.55929 0.558953,0.18631 1.643996,0 2.237131,0 0.616771,0 1.688582,0.27427 2.237132,0 2.306426,-1.15322 4.782243,-3.11385 6.431753,-5.31319 0.359257,-0.47901 0.516414,-1.24784 0.838923,-1.67785 0.441023,-0.58803 1.263999,-1.05707 1.677849,-1.67785 0.611609,-0.91741 1.525559,-1.84765 2.237132,-2.79641 0.66752,-0.89003 1.149892,-1.98882 1.957491,-2.79642 0.237648,-0.23765 0.62897,-0.29684 0.838922,-0.55928 0.184142,-0.23018 0.116133,-0.59366 0.279643,-0.83892 0.908079,-1.36212 2.568194,-2.73749 3.914979,-3.63534 0.420129,-0.28009 0.670713,-0.89464 1.118566,-1.11857 0.818176,-0.40909 4.158411,-1.7387 5.033547,-1.95749 0.621424,-0.15536 0.699103,0.23304 1.398206,0 0.08843,-0.0295 -0.08337,-0.23795 0,-0.27964 0.510683,-0.25534 3.817443,0 4.474263,0 2.863466,0 6.177616,-0.41309 8.948526,0.27964 0.444815,0.11121 2.115698,0.20054 2.516772,0 0.407834,-0.20392 0.44735,-0.44735 0.559284,-0.55928 0.139819,-0.13982 0.699103,0.13982 0.838922,0 0.260451,-0.26045 -0.02193,-0.27964 0.559285,-0.27964"
           id="path37" />
        <path
           style="fill:#ff0000;fill-opacity:1;stroke:#000000;stroke-width:0.394999;stroke-dasharray:none;stroke-opacity:1"
           d="m 82.182672,202.98547 c 0.37286,0.0932 0.74571,0.18642 1.11857,0.27964 0.0932,0.0932 0.16173,0.22068 0.27964,0.27964 0.18986,0.0949 4.00249,0.064 4.19462,0 1.81476,-0.60492 3.50417,-1.63413 5.31319,-2.23713 0.93327,-0.3111 2.17792,-0.30005 3.07605,-0.83893 0.22608,-0.13564 0.32347,-0.44137 0.55929,-0.55928 0.16674,-0.0834 0.39253,0.0834 0.55928,0 3.846218,-1.92311 0.19683,-0.62489 2.516774,-1.39821 2.702834,-0.90094 5.033714,-3.07618 7.270674,-4.7539 1.04496,-0.78373 1.77592,-1.98003 2.79641,-2.79642 0.36394,-0.29115 0.78901,-0.50936 1.11857,-0.83892 0.14738,-0.14739 0.16402,-0.38586 0.27964,-0.55928 0.33108,-0.49662 0.93214,-0.74572 1.39821,-1.11857 1.07073,-0.85658 -0.7971,0.51746 0.55928,-0.83892 0.23765,-0.23765 0.57006,-0.35763 0.83893,-0.55929 0.91425,-0.68569 1.54792,-1.7527 2.51677,-2.23713 0.15048,-0.0752 1.19933,-1.43859 1.67785,-1.67785 0.42338,-0.21169 0.68723,-0.55137 1.11856,-0.83892 0.45132,-0.30088 1.81,-0.97619 2.23713,-1.11857 0.17686,-0.059 0.39254,0.0834 0.55929,0 0.41717,-0.20858 0.68391,-0.69404 1.11856,-0.83892 0.64467,-0.21489 2.72599,-0.15743 3.3557,0 0.50613,-0.16855 0.52008,0.453 0.83892,0.55928 0.17686,0.059 0.38243,-0.059 0.55929,0 0.37518,0.12506 0.4852,0.66207 0.83892,0.83893 0.16675,0.0834 0.41014,-0.11186 0.55928,0 0.52131,0.39098 0.67917,1.23844 1.11857,1.67784 0.34843,0.34843 0.93588,0.57052 1.11856,1.11857 0.059,0.17686 -0.0589,0.38242 0,0.55928 0.0417,0.12506 0.23796,0.15458 0.27965,0.27964 0.16574,0.49723 0.17579,0.87896 0.27964,1.39821 -0.58723,0.78665 0.47753,0.7098 0.55928,1.11857 0.0914,0.45702 -0.17309,0.96547 0,1.3982 0.15482,0.38705 0.42746,0.7231 0.55928,1.11857 0.1444,0.43319 0.1551,2.45332 0.27964,3.07606 0.0258,0.12926 0.24767,0.15175 0.27965,0.27964 0.18431,0.73727 -0.0929,1.77365 0,2.51677 0.0477,0.38136 0.23719,0.73659 0.27964,1.11857 0.12241,1.10169 -0.13753,2.25543 0,3.35569 0.75515,6.0412 -0.15919,-2.51252 0.55928,2.51678 0.14338,1.00365 -0.1666,2.07646 0,3.07605 0.17117,1.02701 0.31449,2.09689 0.55928,3.07606 0.28701,1.14802 0,2.73176 0,3.91498 0,3.44891 0,6.89782 0,10.34673 0,1.32467 -0.0909,2.61822 0.27965,3.91498 0.0362,0.12675 0.25796,0.14961 0.27964,0.27964 0.35201,2.11211 0,5.81678 0,8.1096 0,2.73685 -0.0899,5.20851 -0.83893,7.82996 -0.0512,0.17926 0.10341,0.40417 0,0.55929 -0.14624,0.21937 -0.44137,0.32346 -0.55928,0.55928 -0.0834,0.16674 0.059,0.38242 0,0.55928 -0.22926,0.68778 -2.18768,3.89026 -2.79642,4.19462 -0.16674,0.0834 -0.38242,-0.0589 -0.55928,0 -0.17065,0.0569 -0.66827,0.5024 -0.83892,0.55929 -0.55896,0.18631 -1.644,0 -2.23713,0 -0.61677,0 -1.68859,0.27427 -2.23714,0 -2.30642,-1.15322 -4.78224,-3.11385 -6.43175,-5.31319 -0.35926,-0.47901 -0.51641,-1.24784 -0.83892,-1.67785 -0.44102,-0.58803 -1.264,-1.05707 -1.67785,-1.67785 -0.61161,-0.91741 -1.52556,-1.84765 -2.23713,-2.79641 -0.66752,-0.89003 -1.14989,-1.98882 -1.95749,-2.79642 -0.23765,-0.23765 -0.62897,-0.29684 -0.83893,-0.55928 -0.18414,-0.23018 -0.11613,-0.59366 -0.27964,-0.83892 -0.90808,-1.36212 -2.56819,-2.73749 -3.91498,-3.63534 -0.42013,-0.28009 -0.67071,-0.89464 -1.11856,-1.11857 -0.81818,-0.40909 -4.15841,-1.7387 -5.03355,-1.95749 -0.62143,-0.15536 -0.6991,0.23304 -1.3982,0 -0.0884,-0.0295 0.0834,-0.23795 0,-0.27964 -0.510684,-0.25534 -3.817448,0 -4.474268,0 -2.86347,0 -6.17762,-0.41309 -8.94853,0.27964 -0.44481,0.11121 -2.11569,0.20054 -2.51677,0 -0.40783,-0.20392 -0.44735,-0.44735 -0.55928,-0.55928 -0.13982,-0.13982 -0.6991,0.13982 -0.83892,0 -0.26046,-0.26045 0.0219,-0.27964 -0.55929,-0.27964"
           id="path37-9" />
        <path
           style="fill:#d40000;fill-opacity:1;stroke:#000000;stroke-width:0.218563;stroke-dasharray:none;stroke-opacity:1"
           d="m 81.384462,207.53751 c 0.247939,0.0481 0.495878,0.096 0.743817,0.14412 0.06069,0.0439 0.103934,0.10313 0.181721,0.13178 0.125345,0.0462 2.680464,0.088 2.810488,0.0616 1.228138,-0.24947 2.380841,-0.69447 3.605094,-0.94312 0.631587,-0.1283 1.465314,-0.10495 2.077944,-0.33774 0.154214,-0.0586 0.225649,-0.19673 0.386031,-0.24709 0.113292,-0.0356 0.261324,0.0439 0.374729,0.008 2.615862,-0.82133 0.144558,-0.28236 1.7145,-0.60127 1.82914,-0.37153 3.434787,-1.33026 4.967438,-2.06325 0.715968,-0.34241 1.229882,-0.87779 1.930096,-1.23545 0.24973,-0.12756 0.53894,-0.22093 0.76639,-0.36653 0.10181,-0.0651 0.11769,-0.17373 0.19865,-0.2512 0.23186,-0.22184 0.63961,-0.32671 0.95941,-0.49007 0.73469,-0.37529 -0.54451,0.2245 0.39166,-0.37475 0.16403,-0.10499 0.38917,-0.15487 0.57339,-0.24299 0.62641,-0.29957 1.07252,-0.77734 1.73143,-0.98424 0.10223,-0.0322 0.8326,-0.63909 1.15806,-0.74128 0.28794,-0.0904 0.47159,-0.2416 0.76639,-0.36651 0.30847,-0.13072 1.23243,-0.41902 1.52149,-0.47773 0.11968,-0.0244 0.26133,0.0439 0.37475,0.008 0.28371,-0.089 0.47224,-0.30678 0.76637,-0.36652 0.43628,-0.0886 1.82967,-0.0318 2.24839,0.0494 0.34252,-0.0694 0.33934,0.21444 0.55081,0.26765 0.11727,0.0296 0.25743,-0.0213 0.37475,0.008 0.24886,0.0627 0.31173,0.30938 0.54516,0.39532 0.11003,0.0405 0.27706,-0.045 0.37472,0.008 0.34141,0.18615 0.43007,0.57534 0.71562,0.7824 0.22642,0.16418 0.61554,0.27421 0.72688,0.52709 0.036,0.0815 -0.0471,0.17371 -0.0114,0.25531 0.0254,0.0578 0.15632,0.0741 0.18174,0.13177 0.1011,0.22944 0.1,0.40384 0.15913,0.64241 -0.40932,0.35047 0.30564,0.33105 0.35216,0.51887 0.052,0.20997 -0.13541,0.43819 -0.0282,0.63828 0.096,0.17897 0.27182,0.33639 0.35217,0.51887 0.0881,0.19988 0.0543,1.12224 0.12535,1.40836 0.0147,0.0593 0.16289,0.0729 0.18173,0.13177 0.10862,0.33928 -0.098,0.80832 -0.0508,1.14892 0.0242,0.1748 0.14406,0.33975 0.16481,0.51475 0.0598,0.50473 -0.13768,1.0276 -0.0678,1.53191 0.38405,2.76896 -0.056,-1.14934 0.32393,1.15714 0.0759,0.46029 -0.15359,0.94548 -0.0621,1.40425 0.0939,0.47136 0.16839,0.96188 0.31265,1.41248 0.16915,0.5283 -0.0551,1.24707 -0.079,1.78722 -0.0696,1.57446 -0.13925,3.14892 -0.20881,4.72337 -0.0268,0.60472 -0.11372,1.1939 0.10833,1.79133 0.0217,0.0584 0.16983,0.0721 0.18174,0.13176 0.19322,0.96939 -0.11741,2.65542 -0.16366,3.70212 -0.0552,1.24939 -0.16534,2.3764 -0.72012,3.56209 -0.0379,0.081 0.0611,0.18604 -0.0113,0.25532 -0.10237,0.098 -0.30226,0.14117 -0.38601,0.24709 -0.0593,0.0748 0.0318,0.17545 -0.0113,0.25533 -0.1675,0.31059 -1.5443,1.74374 -1.95831,1.87373 -0.11329,0.0356 -0.25503,-0.0325 -0.37473,-0.008 -0.11556,0.0235 -0.45789,0.21952 -0.57338,0.24299 -0.37828,0.0768 -1.1015,-0.0242 -1.49891,-0.0329 -0.41325,-0.009 -1.13693,0.10036 -1.49894,-0.0329 -1.52208,-0.56038 -3.14136,-1.49184 -4.20219,-2.52013 -0.23105,-0.22395 -0.32082,-0.57723 -0.52823,-0.77827 -0.28363,-0.27495 -0.82558,-0.50117 -1.09033,-0.79064 -0.39128,-0.4278 -0.98488,-0.86591 -1.4425,-1.30949 -0.42929,-0.41612 -0.73032,-0.92483 -1.25512,-1.30538 -0.15443,-0.11198 -0.41544,-0.14477 -0.55082,-0.26766 -0.11883,-0.10779 -0.0658,-0.27272 -0.17044,-0.38709 -0.580937,-0.63518 -1.665496,-1.28745 -2.549758,-1.71714 -0.275843,-0.13405 -0.431333,-0.41827 -0.726872,-0.5271 -0.539946,-0.19878 -2.751133,-0.85489 -3.333093,-0.96765 -0.41324,-0.08 -0.473119,0.0961 -0.936823,-0.0206 -0.0587,-0.0148 0.06069,-0.1074 0.0057,-0.12766 -0.337027,-0.12407 -2.55777,-0.0562 -2.997853,-0.0659 -1.918597,-0.0421 -4.130804,-0.27945 -6.001348,-0.004 -0.300274,0.0442 -1.4216,0.0605 -1.686284,-0.037 -0.269151,-0.0991 -0.290718,-0.21079 -0.363457,-0.26354 -0.09089,-0.0658 -0.471234,0.0536 -0.562081,-0.0123 -0.169258,-0.12273 0.02042,-0.12734 -0.3691,-0.13589"
           id="path37-9-1" />
        <path
           style="fill:#d40000;fill-opacity:1;stroke:#000000;stroke-width:0.214292;stroke-dasharray:none;stroke-opacity:1"
           d="m 81.029523,207.8329 c -0.238321,0.0481 -0.476643,0.096 -0.714964,0.14413 -0.05833,0.0439 -0.0999,0.10314 -0.174673,0.13179 -0.120483,0.0462 -2.576491,0.088 -2.701472,0.0617 -1.180499,-0.24949 -2.288491,-0.69453 -3.465256,-0.94321 -0.607089,-0.12831 -1.408477,-0.10496 -1.997343,-0.33778 -0.148232,-0.0586 -0.216897,-0.19674 -0.371057,-0.24711 -0.108898,-0.0356 -0.251188,0.0439 -0.360195,0.008 -2.514396,-0.82141 -0.13895,-0.2824 -1.647997,-0.60134 -1.75819,-0.37156 -3.301555,-1.33039 -4.774757,-2.06344 -0.688197,-0.34244 -1.182176,-0.87787 -1.855231,-1.23558 -0.240038,-0.12757 -0.518035,-0.22094 -0.736662,-0.36655 -0.09786,-0.0652 -0.113123,-0.17375 -0.190946,-0.25123 -0.222866,-0.22187 -0.614803,-0.32674 -0.922198,-0.49012 -0.706187,-0.37532 0.523392,0.22452 -0.376467,-0.37478 -0.157664,-0.10501 -0.37407,-0.15489 -0.551141,-0.24301 -0.602114,-0.29961 -1.030918,-0.77743 -1.664271,-0.98434 -0.09827,-0.0322 -0.800311,-0.63915 -1.113143,-0.74135 -0.27677,-0.0904 -0.453296,-0.24162 -0.736663,-0.36655 -0.296505,-0.13073 -1.184629,-0.41906 -1.462475,-0.47778 -0.115031,-0.0244 -0.251188,0.0439 -0.360208,0.008 -0.272708,-0.089 -0.453923,-0.30681 -0.736649,-0.36656 -0.419359,-0.0886 -1.758694,-0.0318 -2.16118,0.0494 -0.329229,-0.0695 -0.326176,0.21446 -0.529443,0.26767 -0.112714,0.0296 -0.24744,-0.0213 -0.360208,0.008 -0.239208,0.0626 -0.29964,0.3094 -0.524019,0.39535 -0.105763,0.0405 -0.266316,-0.045 -0.36018,0.008 -0.328166,0.18617 -0.41339,0.5754 -0.68787,0.78248 -0.217632,0.16419 -0.59166,0.27424 -0.698677,0.52713 -0.03462,0.0816 0.04525,0.17373 0.0109,0.25535 -0.0244,0.0578 -0.150249,0.0741 -0.174686,0.13177 -0.09718,0.22947 -0.09609,0.40389 -0.152962,0.64247 0.39345,0.35051 -0.293779,0.33109 -0.338496,0.51892 -0.05002,0.21 0.130159,0.43824 0.02712,0.63835 -0.09227,0.17899 -0.261273,0.33642 -0.33851,0.51891 -0.08464,0.1999 -0.0522,1.12236 -0.120483,1.4085 -0.01417,0.0594 -0.156573,0.0729 -0.174686,0.13179 -0.104401,0.3393 0.09418,0.80839 0.04879,1.14902 -0.02331,0.17482 -0.138473,0.33979 -0.158413,0.51481 -0.05752,0.50478 0.132341,1.0277 0.06515,1.53205 -0.369149,2.76922 0.05384,-1.14945 -0.311361,1.15726 -0.07292,0.46033 0.147633,0.94556 0.0597,1.40438 -0.09023,0.4714 -0.161862,0.96197 -0.300526,1.41261 -0.162583,0.52836 0.05302,1.2472 0.07592,1.7874 0.06692,1.57461 0.13384,3.14922 0.200705,4.72382 0.02576,0.60478 0.109307,1.19402 -0.104128,1.7915 -0.02085,0.0584 -0.163238,0.0722 -0.174686,0.13178 -0.185726,0.96948 0.11285,2.65568 0.157309,3.70247 0.05302,1.24951 0.158931,2.37663 0.69219,3.56244 0.03639,0.081 -0.05874,0.18605 0.0109,0.25534 0.0984,0.098 0.290536,0.14119 0.371044,0.24711 0.05697,0.0748 -0.03053,0.17547 0.0109,0.25536 0.161003,0.31062 1.484405,1.74391 1.882353,1.87391 0.108898,0.0356 0.245136,-0.0325 0.360194,-0.008 0.111079,0.0235 0.44013,0.21953 0.551141,0.24301 0.363602,0.0768 1.058776,-0.0242 1.440764,-0.0329 0.397225,-0.009 1.092836,0.10037 1.440805,-0.0329 1.463034,-0.56043 3.019511,-1.49198 4.039185,-2.52036 0.222089,-0.22398 0.308376,-0.5773 0.507745,-0.77836 0.272627,-0.27497 0.793551,-0.50121 1.048037,-0.79071 0.3761,-0.42784 0.946676,-0.86599 1.386547,-1.30961 0.41264,-0.41617 0.701989,-0.92493 1.206436,-1.30551 0.148436,-0.11199 0.399324,-0.14478 0.529456,-0.26769 0.114214,-0.10779 0.06324,-0.27274 0.163824,-0.38712 0.558405,-0.63524 1.600895,-1.28758 2.450857,-1.71731 0.265144,-0.13406 0.414603,-0.41831 0.698678,-0.52715 0.519002,-0.1988 2.64442,-0.85497 3.203806,-0.96774 0.397211,-0.08 0.454768,0.0961 0.900486,-0.0206 0.05642,-0.0148 -0.05833,-0.1074 -0.0055,-0.12767 0.323954,-0.12408 2.458558,-0.0562 2.88157,-0.0659 1.844177,-0.0421 3.970575,-0.27948 5.768563,-0.004 0.288627,0.0442 1.366457,0.0605 1.620875,-0.037 0.25871,-0.0991 0.279441,-0.21082 0.349359,-0.26357 0.08736,-0.0659 0.452955,0.0536 0.540278,-0.0123 0.162692,-0.12275 -0.01963,-0.12735 0.354783,-0.13591"
           id="path37-9-1-3" />
        <ellipse
           style="fill:#aa0000;fill-opacity:1;stroke:#000000;stroke-width:0.431281;stroke-dasharray:none;stroke-opacity:1"
           id="path38"
           cx="85.15081"
           cy="215.18408"
           rx="5.7145081"
           ry="13.544468" />
      </g>
      <path
         id="path31"
         style="fill:#008000;fill-opacity:1;stroke:#000000;stroke-width:0.195996;stroke-dasharray:none;stroke-opacity:1"
         d="m 57.243858,207.96308 a 28.750125,14.059987 40.988655 0 0 3.59988,2.7309 8.0501171,2.8538954 4.8536445 0 1 5.809473,-0.17986 8.0501171,2.8538954 4.8536445 0 1 7.177926,3.66852 8.0501171,2.8538954 4.8536445 0 1 -3.284014,1.78155 28.750125,14.059987 40.988655 0 0 15.554412,-0.0277 28.750125,14.059987 40.988655 0 0 2.358011,-9.22717 3.1867793,7.2092198 2.2772964 0 1 -2.130297,2.04299 3.1867793,7.2092198 2.2772964 0 1 -3.119842,-6.84857 3.1867793,7.2092198 2.2772964 0 1 0.942641,-5.07682 28.750125,14.059987 40.988655 0 0 -2.580787,-3.64222 3.1388088,7.3193986 8.7629735 0 1 -3.810463,5.89024 3.1388088,7.3193986 8.7629735 0 1 -2.303535,-7.17306 3.1388088,7.3193986 8.7629735 0 1 1.099446,-4.22391 28.750125,14.059987 40.988655 0 0 -0.47554,-0.47604 28.750125,14.059987 40.988655 0 0 -2.848762,-2.48457 3.1837955,7.215976 2.7189125 0 1 -3.267793,6.46316 3.1837955,7.215976 2.7189125 0 1 -3.066437,-6.87212 3.1837955,7.215976 2.7189125 0 1 0.528797,-3.77334 28.750125,14.059987 40.988655 0 0 -6.947796,-3.63898 7.0610581,3.2536473 79.168581 0 1 -1.77356,7.40253 7.0610581,3.2536473 79.168581 0 1 -4.58495,-6.05663 7.0610581,3.2536473 79.168581 0 1 -0.3083,-3.28037 28.750125,14.059987 40.988655 0 0 -9.53696,1.71396 28.750125,14.059987 40.988655 0 0 -2.58185,6.01365 7.6372975,3.0081573 21.05051 0 1 4.16695,1.21744 7.6372975,3.0081573 21.05051 0 1 5.32237,5.53588 7.6372975,3.0081573 21.05051 0 1 -8.27083,-0.24384 28.750125,14.059987 40.988655 0 0 1.55813,3.56698 7.9170277,2.9018709 10.118488 0 1 4.01317,0.43804 7.9170277,2.9018709 10.118488 0 1 6.61255,4.34925 7.9170277,2.9018709 10.118488 0 1 -6.58963,1.47113 28.750125,14.059987 40.988655 0 0 2.37428,2.85506 7.9709505,2.88224 8.0130459 0 1 4.55775,0.2668 7.9709505,2.88224 8.0130459 0 1 6.84464,4.08548 7.9709505,2.88224 8.0130459 0 1 -5.0391,1.73167 z" />
      <path
         id="path31-5"
         style="fill:#008000;fill-opacity:1;stroke:#000000;stroke-width:0.201282;stroke-dasharray:none;stroke-opacity:1"
         d="m 91.13263,187.62119 a 14.401382,29.602798 43.00158 0 0 -2.649548,3.71321 7.4931374,3.233619 89.070341 0 1 0.889016,5.32701 7.4931374,3.233619 89.070341 0 1 -3.282461,7.1462 7.4931374,3.233619 89.070341 0 1 -2.39404,-2.7676 14.401382,29.602798 43.00158 0 0 1.869217,14.32848 14.401382,29.602798 43.00158 0 0 10.668157,0.83428 2.9612476,8.1823456 84.379381 0 1 -2.552063,-1.66659 2.9612476,8.1823456 84.379381 0 1 7.342632,-3.86821 2.9612476,8.1823456 84.379381 0 1 5.82775,0.13214 14.401382,29.602798 43.00158 0 0 3.79608,-2.90638 2.9265855,8.279256 89.34642 0 1 -7.08251,-2.65668 2.9265855,8.279256 89.34642 0 1 7.80446,-3.16312 2.9265855,8.279256 89.34642 0 1 4.88592,0.40037 14.401382,29.602798 43.00158 0 0 0.47982,-0.50724 14.401382,29.602798 43.00158 0 0 2.4609,-2.9854 2.9587893,8.1891441 84.714874 0 1 -7.66347,-2.07353 2.9587893,8.1891441 84.714874 0 1 7.37546,-3.82241 2.9587893,8.1891441 84.714874 0 1 4.31117,-0.0601 14.401382,29.602798 43.00158 0 0 3.2764,-6.92986 3.0387041,7.9737775 74.482582 0 1 -8.54461,-0.56043 3.0387041,7.9737775 74.482582 0 1 6.27779,-5.10334 3.0387041,7.9737775 74.482582 0 1 3.65719,-0.75993 14.401382,29.602798 43.00158 0 0 -3.05682,-8.53914 14.401382,29.602798 43.00158 0 0 -7.0763,-1.50669 3.302765,7.3362623 19.864261 0 1 -0.87842,4.01621 3.302765,7.3362623 19.864261 0 1 -5.60429,5.7073 3.302765,7.3362623 19.864261 0 1 -0.70281,-7.65646 14.401382,29.602798 43.00158 0 0 -3.83219,1.95314 3.2672761,7.4159484 5.9662046 0 1 -0.0189,3.76144 3.2672761,7.4159484 5.9662046 0 1 -4.11574,6.72399 3.2672761,7.4159484 5.9662046 0 1 -2.43513,-5.85856 14.401382,29.602798 43.00158 0 0 -2.934151,2.60192 3.2550295,7.4438502 3.2156878 0 1 0.23814,4.23841 3.2550295,7.4438502 3.2156878 0 1 -3.79132,6.89957 3.2550295,7.4438502 3.2156878 0 1 -2.545259,-4.39203 z" />
    </g>
    <g
       id="g10"
       transform="translate(6.3272976,144.39812)">
      <g
         id="g9">
        <path
           id="path1-0"
           style="fill:#ff6600;stroke:#000000;stroke-width:0.408363"
           d="m 74.20483,83.581001 c 2.3e-5,8.85691 5.849185,17.041039 15.344218,21.469589 9.495346,4.42866 19.747232,4.32531 29.242582,-0.10335 9.49503,-4.42855 13.48384,-12.405977 13.48386,-21.262886 L 104.8938,83.581001 h -4.918035 c -1.027743,1.177101 -2.734325,1.883044 -4.560805,1.886617 -1.826476,-0.0036 -3.533054,-0.709518 -4.560795,-1.886617 z m 32.93541,4.430866 c 1.90639,5e-6 3.45182,1.337208 3.45182,2.986728 0,1.64952 -1.54543,2.986722 -3.45182,2.986727 -1.9064,4e-6 -3.24513,-1.647259 -3.24513,-3.296786 0,-1.649527 1.33873,-2.676673 3.24513,-2.676669 z m -22.421978,0.773325 c 1.247593,5.3e-5 2.05225,0.22754 2.052327,1.273136 -7.7e-5,1.045596 -1.011439,1.8932 -2.259033,1.893253 -1.247589,-5.8e-5 -1.225416,-0.640955 -1.225492,-1.686547 7.6e-5,-1.045593 0.184609,-1.479783 1.432198,-1.479842 z m 43.516488,-0.552087 c 0.72625,-8e-6 1.315,0.54478 1.315,1.216814 0,0.672034 -0.58875,1.216823 -1.315,1.216815 -0.72624,-7e-6 -3.27867,-0.958203 -3.27867,-1.630226 0,-0.672024 2.55243,-0.803396 3.27867,-0.803403 z m -9.0405,4.5802 c 1.21609,9e-5 2.20191,0.797155 2.20204,1.780422 -1.3e-4,0.983268 -0.98595,1.780333 -2.20204,1.780423 -1.2161,-8.6e-5 -3.3388,-1.830681 -3.33893,-2.813952 1.3e-4,-0.98327 2.12283,-0.746807 3.33893,-0.746893 z m -26.573621,1.47124 c 1.954595,-1.06e-4 3.539129,1.227967 3.538948,2.742815 1.78e-4,1.514847 -1.584355,2.742917 -3.538948,2.742811 -1.954593,1.06e-4 -2.195539,-1.124611 -2.195361,-2.639458 -1.81e-4,-1.514849 0.240766,-2.846274 2.195361,-2.846168 z m 16.072441,5.164738 c 1.18015,4e-6 2.4469,1.585877 2.4469,2.777197 0,1.19132 -0.95669,2.15708 -2.13684,2.15708 -1.18015,0 -2.55026,-2.10264 -2.55026,-3.29396 0,-1.191325 1.06005,-1.640318 2.2402,-1.640317 z"
           sodipodi:nodetypes="cccccccccssssscccccsssssccccccccccsssss" />
      </g>
      <path
         id="path1"
         style="fill:#ffff00;stroke:#000000;stroke-width:0.383339"
         d="m 74.408378,83.50343 a 28.944578,23.162628 0 0 0 14.471985,20.05924 28.944578,23.162628 0 0 0 28.945007,0 28.944578,23.162628 0 0 0 14.47198,-20.05924 h -28.94449 -4.638472 a 5.2193198,4.0307617 0 0 1 -4.301546,1.762683 5.2193198,4.0307617 0 0 1 -4.301546,-1.762683 z m 31.063222,4.139799 a 3.2556155,2.7905273 0 0 1 3.25561,2.790528 3.2556155,2.7905273 0 0 1 -3.25561,2.790527 3.2556155,2.7905273 0 0 1 -3.25562,-2.790527 3.2556155,2.7905273 0 0 1 3.25562,-2.790528 z m -21.342368,0.143144 a 2.1307282,1.7689929 0 0 1 2.130619,1.768884 2.1307282,1.7689929 0 0 1 -2.130619,1.768884 2.1307282,1.7689929 0 0 1 -2.13062,-1.768884 2.1307282,1.7689929 0 0 1 2.13062,-1.768884 z m 41.237788,0.06356 a 1.2402344,1.1368815 0 0 1 1.24024,1.136881 1.2402344,1.1368815 0 0 1 -1.24024,1.136882 1.2402344,1.1368815 0 0 1 -1.24023,-1.136882 1.2402344,1.1368815 0 0 1 1.24023,-1.136881 z m -8.52661,4.279325 a 2.0770581,1.6636468 0 0 1 2.07688,1.663465 2.0770581,1.6636468 0 0 1 -2.07688,1.663464 2.0770581,1.6636468 0 0 1 -2.07687,-1.663464 2.0770581,1.6636468 0 0 1 2.07687,-1.663465 z m -25.063066,1.374593 a 3.3375471,2.5624001 0 0 1 3.337781,2.562635 3.3375471,2.5624001 0 0 1 -3.337781,2.562634 3.3375471,2.5624001 0 0 1 -3.337781,-2.562634 3.3375471,2.5624001 0 0 1 3.337781,-2.562635 z m 15.451256,5.404838 a 2.0153809,2.0153809 0 0 1 2.01538,2.015381 2.0153809,2.0153809 0 0 1 -2.01538,2.01538 2.0153809,2.0153809 0 0 1 -2.01538,-2.01538 2.0153809,2.0153809 0 0 1 2.01538,-2.015381 z" />
    </g>
  </g>
</svg>
