<?xml version="1.0" encoding="UTF-8" standalone="no"?>
<!-- Created with Inkscape (http://www.inkscape.org/) -->

<svg
   width="210mm"
   height="297mm"
   viewBox="0 0 210 297"
   version="1.1"
   id="svg1"
   inkscape:version="1.3.2 (091e20e, 2023-11-25, custom)"
   sodipodi:docname="КадарметовДН_ЛР3.svg"
   xmlns:inkscape="http://www.inkscape.org/namespaces/inkscape"
   xmlns:sodipodi="http://sodipodi.sourceforge.net/DTD/sodipodi-0.dtd"
   xmlns="http://www.w3.org/2000/svg"
   xmlns:svg="http://www.w3.org/2000/svg">
  <sodipodi:namedview
     id="namedview1"
     pagecolor="#ffffff"
     bordercolor="#000000"
     borderopacity="0.25"
     inkscape:showpageshadow="2"
     inkscape:pageopacity="0.0"
     inkscape:pagecheckerboard="0"
     inkscape:deskcolor="#d1d1d1"
     inkscape:document-units="mm"
     inkscape:zoom="0.94615212"
     inkscape:cx="351.95186"
     inkscape:cy="625.16374"
     inkscape:window-width="1920"
     inkscape:window-height="986"
     inkscape:window-x="-11"
     inkscape:window-y="-11"
     inkscape:window-maximized="1"
     inkscape:current-layer="layer1" />
  <defs
     id="defs1" />
  <g
     inkscape:label="Слой 1"
     inkscape:groupmode="layer"
     id="layer1">
    <g
       id="g2"
       transform="translate(3.6353386,28.243784)">
      <path
         id="path1"
         style="fill:#ff6600;stroke:#000000;stroke-width:0.355269"
         d="m 56.685946,55.245207 c 0,0 -6.089266,12.975 -8.143689,20.39462 -2.145036,7.746866 -3.988307,20.14998 -5.302002,30.681853 -2.040004,-6.752438 -4.438859,-13.357504 -7.088456,-18.091923 -3.867817,-6.911193 -15.331881,-18.99729 -15.331881,-18.99729 4.750295,10.07789 11.792838,19.008945 14.824935,28.256156 3.135453,9.562407 5.10192,22.265597 5.716963,34.062517 -0.386406,1.92903 -0.651639,3.32487 -0.651639,3.32487 h 0.794266 c 4.37e-4,0.0142 0.0011,0.0287 0.0016,0.0429 h 8.619629 c 0,0 -0.26701,-1.4023 -0.655774,-3.34244 0.610959,-11.81627 2.579041,-24.54975 5.720581,-34.130728 3.032097,-9.247203 10.075146,-18.17827 14.825451,-28.256157 0,0 -11.464062,12.086096 -15.33188,18.99729 -3.262699,5.82994 -6.145417,14.486195 -8.440829,22.772775 0.522725,-9.12219 1.387355,-18.09972 2.568319,-25.379334 1.610523,-9.927479 5.35129,-19.515825 7.874455,-30.335099 z" />
      <path
         style="fill:#008000;stroke:#000000;stroke-width:0.189163"
         d="m 75.676509,79.155545 c -5.09911,8.228523 -10.69848,2.176882 -10.69848,2.176882 0,0 3.03754,-6.268359 10.69848,-2.176882 z"
         id="path2"
         sodipodi:nodetypes="cac" />
      <path
         style="fill:#008000;stroke:#000000;stroke-width:0.189163"
         d="m 41.281366,62.391866 c 9.67983,-0.102055 7.56916,7.867913 7.56916,7.867913 0,0 -6.92028,0.792868 -7.56916,-7.867913 z"
         id="path2-0"
         sodipodi:nodetypes="cac" />
      <path
         style="fill:#008000;stroke:#000000;stroke-width:0.189163"
         d="m 45.441591,53.108725 c 9.4488,2.1047 5.57883,9.384718 5.57883,9.384718 0,0 -6.91903,-0.803691 -5.57883,-9.384718 z"
         id="path2-4"
         sodipodi:nodetypes="cac" />
      <path
         style="fill:#008000;stroke:#000000;stroke-width:0.189163"
         d="m 43.555281,77.533181 c 1.929935,9.486035 -6.295317,8.919939 -6.295317,8.919939 0,0 -2.086676,-6.645657 6.295317,-8.919939 z"
         id="path2-9"
         sodipodi:nodetypes="cac" />
      <path
         style="fill:#008000;stroke:#000000;stroke-width:0.189163"
         d="m 65.695121,54.552968 c -1.169081,9.609513 -8.793124,6.471264 -8.793124,6.471264 0,0 0.122092,-6.964487 8.793124,-6.471264 z"
         id="path2-7"
         sodipodi:nodetypes="cac" />
      <path
         style="fill:#008000;stroke:#000000;stroke-width:0.189163"
         d="m 58.361749,44.558252 c 6.01813,7.582326 -1.57105,10.804073 -1.57105,10.804073 0,0 -4.87104,-4.979152 1.57105,-10.804073 z"
         id="path2-47"
         sodipodi:nodetypes="cac" />
      <path
         style="fill:#008000;stroke:#000000;stroke-width:0.189163"
         d="m 62.09693,62.311697 c 8.44365,4.734384 2.642662,10.593045 2.642662,10.593045 0,0 -6.395202,-2.760508 -2.642662,-10.593045 z"
         id="path2-1"
         sodipodi:nodetypes="cac" />
      <path
         style="fill:#008000;stroke:#000000;stroke-width:0.189163"
         d="m 76.204651,60.651097 c 1.68402,9.532764 -6.52385,8.754184 -6.52385,8.754184 0,0 -1.91415,-6.697388 6.52385,-8.754184 z"
         id="path2-02"
         sodipodi:nodetypes="cac" />
      <path
         style="fill:#008000;stroke:#000000;stroke-width:0.176596"
         d="m 56.708561,68.878838 c 7.911557,4.030618 2.996136,10.001405 2.996136,10.001405 0,0 -5.94509,-2.261114 -2.996136,-10.001405 z"
         id="path2-5"
         sodipodi:nodetypes="cac" />
      <path
         style="fill:#008000;stroke:#000000;stroke-width:0.189163"
         d="m 79.472325,71.082564 c -4.047606,8.79354 -10.349219,3.477059 -10.349219,3.477059 0,0 2.24296,-6.594547 10.349219,-3.477059 z"
         id="path2-14"
         sodipodi:nodetypes="cac" />
      <path
         style="fill:#008000;stroke:#000000;stroke-width:0.189163"
         d="m 21.376242,89.735501 c 8.312922,-4.960316 10.500627,2.988845 10.500627,2.988845 0,0 -5.580713,4.168298 -10.500627,-2.988845 z"
         id="path2-9-6"
         sodipodi:nodetypes="cac" />
      <path
         style="fill:#008000;stroke:#000000;stroke-width:0.189163"
         d="m 32.447913,64.03168 c 3.7494,8.924773 -4.42756,9.979632 -4.42756,9.979632 0,0 -3.34712,-6.108661 4.42756,-9.979632 z"
         id="path2-9-1"
         sodipodi:nodetypes="cac" />
      <path
         style="fill:#008000;stroke:#000000;stroke-width:0.189163"
         d="m 38.124937,70.623503 c 3.14939,9.15373 -5.07951,9.66409 -5.07951,9.66409 0,0 -2.93473,-6.31714 5.07951,-9.66409 z"
         id="path2-9-7"
         sodipodi:nodetypes="cac" />
      <path
         style="fill:#008000;stroke:#000000;stroke-width:0.189163"
         d="m 17.059232,83.175461 c 7.686535,-5.884455 10.774926,1.759966 10.774926,1.759966 0,0 -5.063683,4.783107 -10.774926,-1.759966 z"
         id="path2-9-3"
         sodipodi:nodetypes="cac" />
      <path
         style="fill:#008000;stroke:#000000;stroke-width:0.189163"
         d="m 12.122969,74.974239 c 7.380641,-6.263828 10.849838,1.215469 10.849838,1.215469 0,0 -4.816542,5.031897 -10.849838,-1.215469 z"
         id="path2-9-6-5"
         sodipodi:nodetypes="cac"
         inkscape:transform-center-x="-2.3895199"
         inkscape:transform-center-y="-1.3976879" />
      <path
         style="fill:#008000;stroke:#000000;stroke-width:0.189163"
         d="m 16.246887,59.22301 c 9.153583,3.149812 4.492549,9.950546 4.492549,9.950546 0,0 -6.785481,-1.573631 -4.492549,-9.950546 z"
         id="path2-9-6-5-8"
         sodipodi:nodetypes="cac"
         inkscape:transform-center-x="-2.5268025"
         inkscape:transform-center-y="1.4906981" />
    </g>
    <g
       id="g5"
       transform="translate(-8.1096015,0.83892429)">
      <g
         id="g4">
        <path
           id="path3"
           style="fill:#443a12;fill-opacity:1;stroke:#000000;stroke-width:0.333262;stroke-opacity:0.0103449"
           d="m 175.29013,34.594044 c -0.36816,-0.186998 -1.6829,2.647831 -2.64789,5.237039 0.0217,-1.869553 -0.11822,-3.239914 -0.49857,-2.910496 -0.70354,0.30457 -1.73515,2.837913 -2.44424,5.742515 -0.27038,-2.26763 -0.66707,-3.933442 -1.08783,-3.443159 -0.83986,0.55257 -1.72775,4.009609 -2.09667,7.724248 -0.74315,-2.899771 -1.60828,-5.169872 -2.09081,-4.4813 -0.72555,0.592406 -1.212,3.137938 -1.33009,6.214002 -0.70836,-1.905213 -1.3822,-3.075182 -1.76195,-2.502039 -0.6866,0.592071 -1.11411,2.774604 -1.2306,5.539213 -0.88725,-2.142951 -1.70364,-3.414943 -2.11364,-2.665174 -1.1397,1.238629 -1.46712,6.619956 -0.91929,12.113474 -4.18946,-5.357141 -9.84503,-10.185424 -11.98779,-10.090339 -0.90525,-0.190192 -0.53811,1.428877 0.45761,3.737918 -2.25937,-1.897616 -4.30285,-3.107837 -5.29812,-2.946955 -0.74324,-0.08853 -0.3459,1.33444 0.60155,3.318337 -2.50495,-2.1213 -4.8781,-3.543903 -5.90377,-3.349851 -0.91325,-0.08379 0.19963,2.298361 1.90063,5.030647 -3.19993,-2.36762 -6.59994,-4.10385 -7.68269,-3.783028 -0.70995,0.0065 0.29107,1.550068 1.86143,3.420296 -2.82722,-1.490686 -5.61251,-2.436566 -6.39531,-2.053414 -0.55246,0.08806 0.41521,1.198174 1.89887,2.530464 -2.96274,-1.112961 -6.45254,-2.087046 -6.14135,-1.405195 0.0787,0.730297 2.22045,2.37327 4.79955,3.799094 -1.56893,-0.0747 -2.62364,0.03547 -2.33423,0.443681 0.29562,0.846812 2.91128,2.222414 5.92483,3.242948 -2.37937,0.172019 -4.13457,0.531022 -3.63564,1.057296 0.55045,1.023012 4.13603,2.29037 8.00744,2.963022 -3.05544,0.68722 -5.45691,1.557988 -4.75274,2.169587 0.59582,0.891241 3.24174,1.627179 6.45382,1.963812 -2.01477,0.710349 -3.25991,1.426702 -2.67304,1.910052 0.59667,0.845317 2.86421,1.488359 5.75045,1.803148 -2.02246,0.807039 -3.31497,1.592061 -3.02707,2.128803 -1.98806,0.743354 -3.42733,1.567407 -3.92063,2.372272 -0.75595,0.750803 0.90481,1.467933 3.58065,2.033021 -3.13663,0.931271 -5.52865,2.108227 -6.03485,3.178683 -0.56136,0.661178 0.94705,1.218841 3.30619,1.615294 -3.49325,1.020997 -6.28698,2.377446 -6.78386,3.499394 -0.66758,0.829179 2.14852,1.328699 5.65508,1.491089 -4.16163,1.530888 -7.89843,3.673708 -8.3211,4.934865 -0.4562,0.69191 1.55109,0.74501 4.21555,0.46284 -3.14888,1.75083 -5.79187,3.822212 -5.96463,4.834142 -0.24585,0.51719 0.94107,0.42986 2.66369,0.0321 -2.59421,2.12002 -4.66483,4.39711 -4.61873,5.23456 -0.22008,0.82944 3.46406,-0.96448 6.53984,-2.80915 -1.39897,1.79575 -2.26764,3.23824 -1.64023,3.22688 0.93612,0.27461 3.84613,-1.3464 6.70312,-3.58899 -1.3969,2.41837 -2.22286,4.3551 -1.43601,4.22052 1.25671,0.14451 4.70248,-2.48871 7.81201,-5.79256 -1.38428,3.41447 -2.18211,6.31723 -1.18672,6.04035 1.17042,0.0133 3.53829,-2.06196 5.92366,-4.94968 -0.68684,2.42172 -0.86717,4.1029 -0.0608,3.8547 1.13074,-0.018 3.17067,-1.78868 5.32505,-4.37563 -0.68096,2.79724 -0.79156,4.69215 0.17554,4.29715 1.74391,-0.23468 5.07835,-3.81411 8.17774,-8.391622 0.18932,2.221922 0.58907,3.901262 1.20603,4.606122 0.50157,0.95939 1.57086,-0.56245 2.75206,-3.160142 0.0776,3.439742 0.56462,6.179272 1.42137,6.962322 0.4676,0.73808 1.35283,-0.66796 2.30088,-2.98341 0.0716,3.82682 0.62451,7.02141 1.5308,7.80767 0.59514,0.88853 1.75099,-1.8689 2.76845,-5.41625 0.37379,4.63693 1.41409,8.99085 2.46648,9.73564 0.52182,0.63809 1.06772,-1.40298 1.46878,-4.19889 0.8264,3.65528 2.07181,6.87295 2.95744,7.30033 0.4136,0.37963 0.62816,-0.85676 0.68991,-2.7177 1.30251,3.17923 2.87814,5.86217 3.6579,6.02246 0.70648,0.43058 -0.0267,-3.78314 -0.95734,-7.38686 1.30101,1.8761 2.40989,3.12205 2.55485,2.47732 0.48381,-0.88972 -0.28333,-4.2687 -1.63321,-7.74712 1.87279,2.02814 3.44546,3.35339 3.51687,2.51502 0.44384,-1.24993 -1.11895,-5.42762 -3.37994,-9.42728 2.7898,2.26195 5.25528,3.79662 5.24779,2.70966 0.30207,-1.19416 -1.01472,-4.13041 -3.0733,-7.286122 2.05173,1.30249 3.54899,1.903592 3.52096,1.01712 0.26359,-1.1613 -0.85605,-3.68738 -2.69586,-6.532236 2.39768,1.389502 4.10902,1.972796 3.98616,0.885506 0.25189,-2.142176 -3.10142,-7.598692 -7.41584,-12.531201 5.26195,1.162685 10.89233,1.30707 12.10714,0.17982 0.65768,-0.346555 -0.43362,-1.206054 -2.2804,-2.18627 2.40266,0.05759 4.30484,-0.217675 4.82998,-0.838545 0.50378,-0.328357 -0.50143,-1.044505 -2.14465,-1.838988 2.67317,0.07516 4.89147,-0.234761 5.41751,-0.892925 0.60566,-0.419681 -1.35169,-1.38669 -3.85803,-2.275254 3.23171,-0.125863 6.24788,-0.764331 6.74116,-1.534345 0.43247,-0.372712 -1.00775,-0.854481 -2.97267,-1.251945 2.5337,-0.500954 4.75032,-1.333198 5.02602,-1.987913 0.29214,-0.343846 -0.89588,-0.561314 -2.51973,-0.655015 2.41481,-0.816185 5.07863,-1.995891 4.52277,-2.276492 -0.43901,-0.432639 -2.63317,-0.385802 -4.97979,0.02843 1.00365,-0.765816 1.5922,-1.38465 1.19608,-1.499122 -0.63455,-0.395579 -2.977,0.06952 -5.37361,0.972019 1.36912,-1.346534 2.25506,-2.490262 1.66715,-2.572484 -0.88535,-0.377557 -3.76513,0.661815 -6.5024,2.235089 1.50861,-2.03143 2.51749,-3.842217 1.75785,-3.873247 -0.8427,-0.268556 -2.86112,0.627962 -5.01373,2.076895 0.85726,-1.506288 1.23868,-2.617514 0.61969,-2.626243 -0.81863,-0.238363 -2.55561,0.521543 -4.49643,1.815507 0.90896,-1.764582 1.27181,-3.037631 0.51494,-2.981561 -0.4245,-0.07413 -1.02977,0.06379 -1.75024,0.362732 0.10929,-0.387193 0.16332,-0.729755 0.13752,-1.003534 0.11418,-0.869463 -1.24155,-0.477047 -3.14997,0.534517 1.49312,-2.207467 2.414,-4.190143 2.2254,-5.136316 0.0364,-0.71211 -1.15093,-0.294651 -2.78598,0.662432 1.67039,-2.448093 2.75447,-4.752668 2.53611,-5.727067 0.0235,-0.874319 -1.94123,0.251479 -4.17226,1.947748 1.84317,-3.118167 3.13953,-6.410129 2.81058,-7.435672 -0.0426,-0.677816 -1.30116,0.318509 -2.80707,1.867415 1.11808,-2.739204 1.7759,-5.424023 1.40968,-6.161479 -0.0905,-0.457777 -0.77942,0.207056 -1.65251,1.346492 0.60481,-2.691095 0.81486,-5.21384 0.39557,-5.727066 -0.0158,-0.04029 -0.0357,-0.06601 -0.0603,-0.07848 z" />
        <path
           id="path3-2"
           style="fill:#4d6d00;fill-opacity:1;stroke:#000000;stroke-width:0.245012"
           d="m 159.74175,80.327651 c -4.45552,-2.347513 -16.28535,12.570457 -16.15042,16.198488 -0.13914,0.852265 1.05928,0.460998 2.76758,-0.53916 -1.40123,2.169625 -2.29388,4.116341 -2.17286,5.042281 -0.0642,0.69775 0.98907,0.28321 2.4568,-0.66224 -1.56664,2.40619 -2.61592,4.66877 -2.47026,5.62222 -0.0603,0.85657 1.70178,-0.25556 3.72229,-1.92798 -1.7477,3.0634 -3.02709,6.29466 -2.78745,7.29767 0.006,0.66377 1.14785,-0.31858 2.53014,-1.84314 -1.09887,2.68866 -1.79445,5.32195 -1.50922,6.04259 0.0577,0.44801 0.68824,-0.20704 1.50071,-1.32739 -0.64968,2.63906 -0.94787,5.11141 -0.60616,5.61214 0.18998,0.63036 1.57184,-2.35592 2.59447,-5.06631 -0.10427,1.83147 -0.0453,3.17352 0.30104,2.84898 0.62666,-0.30176 1.64089,-2.78866 2.39113,-5.63738 0.13188,2.22003 0.4011,3.8502 0.78993,3.36789 0.75669,-0.54536 1.68837,-3.93633 2.17936,-7.5769 0.51472,2.83697 1.16432,5.05671 1.61603,4.37986 0.65896,-0.58381 1.19898,-3.07997 1.44232,-6.09378 0.52989,1.86287 1.06316,3.00584 1.42007,2.44257 0.625,-0.58331 1.09688,-2.72356 1.32464,-5.43228 0.67484,2.0949 1.32793,3.33701 1.71928,2.60057 2.1711,-2.52224 2.15456,-22.396282 -2.29698,-24.670131 -0.2206,-0.301997 -0.47559,-0.527392 -0.7625,-0.678562 z" />
        <path
           id="path3-2-0"
           style="fill:#4d6d00;fill-opacity:1;stroke:#000000;stroke-width:0.244668"
           d="m 156.17708,77.358831 c -0.77443,-4.382808 -22.76887,-7.511941 -26.09841,-5.948483 -0.89669,0.235428 0.27566,1.002934 2.36387,1.919015 -2.98474,-0.208698 -5.41835,-0.114558 -6.21005,0.351284 -0.70078,0.231148 0.39619,0.877239 2.2715,1.629665 -3.31864,-0.241195 -6.15503,-0.140888 -6.95615,0.355019 -0.84792,0.297966 1.38193,1.210568 4.31319,2.097189 -4.05958,-0.11658 -7.9634,0.195782 -8.74824,0.784172 -0.62184,0.271435 1.06995,0.757707 3.4339,1.211259 -3.2713,0.233427 -6.21998,0.75581 -6.70806,1.265814 -0.38362,0.22474 0.65663,0.447868 2.25749,0.624242 -2.92336,0.560145 -5.45389,1.324484 -5.6968,1.789607 -0.46684,0.400167 3.27474,0.265437 6.51542,-0.03558 -1.79637,0.656238 -3.02194,1.241573 -2.48382,1.378291 0.70463,0.362247 3.72897,0.14466 6.9174,-0.422192 -2.00433,0.994748 -3.36054,1.858236 -2.64518,1.964313 1.02146,0.364614 4.84271,-0.280336 8.60374,-1.365788 -2.32922,1.538377 -3.98613,2.932571 -3.04523,3.008924 0.99217,0.273719 3.70729,-0.313569 6.71149,-1.338038 -1.4008,1.158265 -2.12069,2.029561 -1.35043,2.078439 0.96893,0.247718 3.30287,-0.249001 6.00899,-1.162778 -1.5223,1.363456 -2.25533,2.367107 -1.2987,2.372907 3.83333,0.661014 22.55684,-7.345821 21.71563,-11.695931 0.13677,-0.291715 0.17828,-0.57917 0.1284,-0.861401 z" />
        <path
           id="path3-2-0-7"
           style="fill:#4d6d00;fill-opacity:1;stroke:#000000;stroke-width:0.24406"
           d="m 162.68063,76.038027 c -3.72263,3.708928 5.6125,19.526927 8.9573,20.418657 0.72478,0.37709 0.79679,-0.909197 0.49743,-2.867647 1.47157,1.987279 2.92203,3.41262 3.80657,3.555251 0.61115,0.259913 0.61019,-0.890504 0.27471,-2.597457 1.62753,2.216349 3.30912,3.884542 4.22745,4.010768 0.75679,0.30101 0.3749,-1.741876 -0.42395,-4.196404 2.16011,2.579525 4.63982,4.74692 5.63671,4.794921 0.6052,0.181713 0.11995,-1.216159 -0.77216,-3.002744 2.05107,1.837114 4.19569,3.262908 4.95227,3.186459 0.42768,0.06987 0.0574,-0.733707 -0.67077,-1.847115 2.16626,1.382383 4.30642,2.372845 4.88331,2.178911 0.64055,-0.0084 -1.57997,-2.20724 -3.67803,-3.975691 1.62702,0.619274 2.86753,0.940244 2.69618,0.508859 -0.0507,-0.70005 -1.94855,-2.397168 -4.26943,-3.937408 2.06429,0.49727 3.64163,0.69329 3.34209,0.175645 -0.2256,-0.896393 -2.97449,-2.767725 -6.10739,-4.277108 2.76149,0.295789 5.01025,0.285011 4.55637,-0.34925 -0.29542,-0.811348 -2.37094,-2.045794 -5.02268,-3.135295 1.88178,0.0059 3.1106,-0.19465 2.72612,-0.703821 -0.30707,-0.777888 -2.08351,-1.845026 -4.46356,-2.833097 2.1443,-0.0708 3.50597,-0.360958 2.97639,-0.952818 -1.51731,-2.842177 -19.58208,-8.435952 -23.23636,-4.710133 -0.3531,0.131193 -0.64889,0.317757 -0.88863,0.556565 z" />
        <path
           id="path3-2-0-7-3"
           style="fill:#4d6d00;fill-opacity:1;stroke:#000000;stroke-width:0.250136"
           d="m 163.84354,73.203095 c 3.9011,3.728092 21.52038,-4.611759 22.62341,-7.791776 0.43959,-0.681693 -0.96082,-0.802599 -3.10894,-0.593438 2.22521,-1.335016 3.8366,-2.672301 4.02663,-3.517006 0.30734,-0.577143 -0.94768,-0.622435 -2.82285,-0.368461 2.48117,-1.475747 4.36648,-3.0255 4.53993,-3.903344 0.35783,-0.715531 -1.8856,-0.430417 -4.59433,0.239042 2.8981,-1.973218 5.35905,-4.270264 5.45023,-5.2268 0.2218,-0.574567 -1.32203,-0.164184 -3.30574,0.621779 2.08395,-1.898197 3.72286,-3.902864 3.66893,-4.633346 0.0928,-0.408378 -0.79818,-0.08466 -2.04113,0.570721 1.59238,-2.027219 2.7562,-4.045081 2.56711,-4.607516 0.0159,-0.616196 -2.46939,1.430401 -4.48028,3.376522 0.73891,-1.539404 1.13737,-2.719201 0.6601,-2.571788 -0.76566,0.02061 -2.69094,1.777147 -4.46155,3.946672 0.62286,-1.964728 0.89811,-3.473373 0.32174,-3.206177 -0.98665,0.180896 -3.13511,2.748628 -4.90367,5.700116 0.43019,-2.643147 0.50601,-4.805635 -0.20359,-4.394727 -0.89659,0.251429 -2.32407,2.197347 -3.61584,4.703101 0.0798,-1.808994 -0.0913,-2.998507 -0.66165,-2.649295 -0.86057,0.263983 -2.09386,1.92907 -3.26443,4.177671 0.007,-2.064472 -0.25724,-3.385292 -0.92352,-2.89991 -3.1596,1.344652 -9.96524,18.488247 -6.04305,22.151302 0.1294,0.344762 0.32137,0.636633 0.57254,0.876721 z" />
        <path
           id="path3-2-0-7-3-7"
           style="fill:#4d6d00;fill-opacity:1;stroke:#000000;stroke-width:0.277516"
           d="m 159.93867,73.996475 c 4.68341,-3.565174 -0.855,-25.164019 -4.01937,-27.096459 -0.64026,-0.642279 -1.03095,0.903325 -1.21187,3.360309 -0.99815,-2.78932 -2.11373,-4.890098 -2.9736,-5.287831 -0.55421,-0.470994 -0.83747,0.927914 -0.91973,3.088289 -1.09936,-3.107362 -2.38885,-5.562015 -3.28695,-5.948367 -0.69145,-0.557896 -0.80973,2.02268 -0.60776,5.209458 -1.54861,-3.683987 -3.52238,-6.947965 -4.51932,-7.259144 -0.56753,-0.374408 -0.42185,1.448168 0.0395,3.846528 -1.62165,-2.753715 -3.43959,-5.031081 -4.22407,-5.130012 -0.41554,-0.19333 -0.23936,0.877488 0.22241,2.415818 -1.85058,-2.230073 -3.77155,-3.977025 -4.40323,-3.887547 -0.65024,-0.152352 1.05349,3.084228 2.73963,5.766377 -1.49341,-1.165523 -2.66942,-1.870363 -2.60261,-1.302443 -0.12176,0.863971 1.37954,3.408635 3.34757,5.869841 -1.96606,-1.12811 -3.51379,-1.766448 -3.33856,-1.061131 0.006,1.147039 2.32616,4.119322 5.12351,6.748951 -2.72135,-1.059964 -4.99961,-1.617168 -4.69701,-0.730921 0.0986,1.061348 1.89376,3.088552 4.30797,5.085658 -1.90273,-0.484501 -3.19581,-0.552205 -2.93255,0.164331 0.11853,1.02363 1.65254,2.771559 3.81686,4.576453 -2.18731,-0.458017 -3.63695,-0.450301 -3.2473,0.403584 0.83322,3.840305 17.73144,15.222571 22.34985,11.619517 0.38973,-0.06998 0.73513,-0.221755 1.03672,-0.4513 z" />
      </g>
      <path
         style="fill:#6b2800;fill-opacity:1;stroke:#000000;stroke-width:0.598647;stroke-opacity:0.0103449"
         d="m 145.42102,93.194076 c 0,0 8.212,-1.128002 6.5006,1.742203 -7.53682,12.640031 -26.66008,38.814461 -17.91829,69.884891 0.88197,3.13467 -11.12277,2.22491 -11.41329,-0.9865 -3.63329,-40.15952 26.92177,-72.759953 22.83098,-70.640594 z"
         id="path4"
         sodipodi:nodetypes="csssc" />
      <path
         style="fill:#a94000;fill-opacity:1;stroke:#000000;stroke-width:0.512888;stroke-opacity:0.0103449"
         d="m 122.46531,163.44289 c -0.0476,2.16434 8.36373,-0.28894 7.92234,-2.41457 -3.62722,-17.46789 8.89315,-55.55499 13.80859,-54.49058 l 1.90775,-6.878597 c -2.58448,-3.431503 -22.8199,26.527557 -23.35905,51.060127 z"
         id="path5"
         sodipodi:nodetypes="ssccss" />
    </g>
  </g>
</svg>
