<?xml version="1.0" encoding="UTF-8" standalone="no"?>
<!-- Created with Inkscape (http://www.inkscape.org/) -->

<svg
   width="147.33073mm"
   height="222.70787mm"
   viewBox="0 0 147.33073 222.70787"
   version="1.1"
   id="svg1"
   inkscape:version="1.4 (86a8ad7, 2024-10-11)"
   sodipodi:docname="ТворческоеЗадание(Inkscape).svg"
   xmlns:inkscape="http://www.inkscape.org/namespaces/inkscape"
   xmlns:sodipodi="http://sodipodi.sourceforge.net/DTD/sodipodi-0.dtd"
   xmlns="http://www.w3.org/2000/svg"
   xmlns:svg="http://www.w3.org/2000/svg">
  <sodipodi:namedview
     id="namedview1"
     pagecolor="#ffffff"
     bordercolor="#000000"
     borderopacity="0.25"
     inkscape:showpageshadow="2"
     inkscape:pageopacity="0.0"
     inkscape:pagecheckerboard="0"
     inkscape:deskcolor="#d1d1d1"
     inkscape:document-units="mm"
     inkscape:zoom="0.72604517"
     inkscape:cx="76.441525"
     inkscape:cy="440.74393"
     inkscape:window-width="1201"
     inkscape:window-height="1008"
     inkscape:window-x="-7"
     inkscape:window-y="0"
     inkscape:window-maximized="0"
     inkscape:current-layer="layer1" />
  <defs
     id="defs1" />
  <g
     inkscape:label="Слой 1"
     inkscape:groupmode="layer"
     id="layer1"
     transform="translate(-26.260296,-1.4969375)">
    <path
       d="m 94.099235,2.1348841 c 0,0 -11.045862,19.7185679 -14.25006,22.4935869 -1.88063,1.628731 -22.777248,-9.679232 -22.777248,-9.679232 0,0 4.340656,15.668193 5.643452,22.848273 -2.485748,2.291269 -22.4424,5.393113 -22.4424,5.393113 0,0 15.975409,10.753423 16.278365,15.40855 0.214568,3.296981 -13.810712,12.304478 -13.810712,12.304478 0,0 12.924357,5.808459 15.508541,9.900588 1.138773,1.80328 -6.220623,13.617104 -6.220623,13.617104 0,0 11.95421,-2.138169 14.403215,0.145226 1.287796,1.200708 -0.778397,9.227489 -0.778397,9.227489 0,0 12.597034,-3.49531 21.213212,-3.49537 24.65955,-8e-5 33.89252,17.14248 39.43468,-6.97183 0.37088,-1.613727 13.08821,-6.696749 13.08821,-6.696749 0,0 -6.67887,-3.651931 -5.89315,-5.26162 1.33959,-2.744379 11.88237,-3.527532 11.88237,-3.527532 0,0 -6.44805,-7.971878 -6.82,-10.169492 -2e-5,-3.850516 10.82157,-8.92449 10.82157,-8.92449 0,0 -14.0999,-1.763654 -14.37967,-3.847201 -0.38013,-2.830859 12.54566,-10.970619 12.54566,-10.970619 0,0 -16.04735,-2.975441 -17.48441,-5.530896 -2.64668,-4.706426 3.24543,-20.941648 3.24543,-20.941648 0,0 -28.17016,13.987692 -27.36112,10.528207 C 101.79643,25.83513 94.099235,2.1348841 94.099235,2.1348841 Z"
       style="fill:#61a0fa;fill-opacity:1;stroke:#000000;stroke-width:0.554853;stroke-dasharray:none;stroke-opacity:1"
       id="path24"
       sodipodi:nodetypes="cscccscscsccccscccsccccc" />
    <path
       style="fill:#e9d1c1;fill-opacity:1;stroke:#000000;stroke-width:0.774684;stroke-dasharray:none;stroke-opacity:1"
       id="path1"
       sodipodi:type="arc"
       sodipodi:cx="-87.7155"
       sodipodi:cy="110.87936"
       sodipodi:rx="6.4140244"
       sodipodi:ry="5.6778774"
       sodipodi:start="0"
       sodipodi:end="3.1689713"
       sodipodi:arc-type="slice"
       d="m -81.301476,110.87936 a 6.4140244,5.6778774 0 0 1 -3.257838,4.94289 6.4140244,5.6778774 0 0 1 -6.464045,-0.0783 6.4140244,5.6778774 0 0 1 -3.103761,-5.01999 l 6.41162,0.15544 z"
       transform="matrix(-0.16529672,-0.98624388,0.99555982,-0.09413103,0,0)"
       inkscape:transform-center-x="-0.1328784"
       inkscape:transform-center-y="0.4724516" />
    <path
       style="fill:#e9d1c3;fill-opacity:1;stroke:#000000;stroke-width:0.900514;stroke-dasharray:none;stroke-opacity:1"
       id="path1-8"
       sodipodi:type="arc"
       sodipodi:cx="102.88027"
       sodipodi:cy="-35.707527"
       sodipodi:rx="6.6191664"
       sodipodi:ry="7.4343696"
       sodipodi:start="0"
       sodipodi:end="3.1689713"
       sodipodi:arc-type="slice"
       d="m 109.49944,-35.707527 a 6.6191664,7.4343696 0 0 1 -3.36204,6.472008 6.6191664,7.4343696 0 0 1 -6.670784,-0.102572 6.6191664,7.4343696 0 0 1 -3.20303,-6.572954 l 6.616684,0.203518 z"
       transform="matrix(0.33882764,0.94084846,-0.98597862,0.1668717,0,0)"
       inkscape:transform-center-x="-0.67869392"
       inkscape:transform-center-y="-0.43459478" />
    <path
       id="path22"
       style="fill:#f2f2f2;stroke:#000000;stroke-width:0.569;stroke-dasharray:none;stroke-opacity:1"
       d="m 115.88283,131.93155 -24.014552,0.1757 c -4.710943,0.0922 -9.188141,1.39672 -18.02474,5.91023 -12.496694,6.08 -14.168083,10.36814 -14.71073,13.27981 l -6.850745,73.19967 h 14.147974 c 0.221057,-0.0373 0.447521,-0.0505 0.66921,-0.0677 0.05423,-0.002 0.10859,-0.003 0.162781,-0.003 0.362205,1.2e-4 0.723573,0.0378 1.084171,0.0703 h 0.240296 c 0.07891,-0.008 0.157653,-0.0154 0.236678,-0.0222 0.01986,-0.002 0.03916,-0.003 0.05788,-0.003 0.07679,-0.002 0.143661,0.008 0.201022,0.0253 h 82.668855 l -7.64863,-78.91095 c -2.45432,-2.63667 -9.84446,-6.82357 -13.85187,-8.3969 -4.92796,-2.67841 -9.51618,-4.09324 -14.3676,-5.25756 z" />
    <path
       style="fill:none;fill-opacity:0.556338;stroke:#000000;stroke-width:0.7;stroke-dasharray:none;stroke-opacity:1;paint-order:stroke fill markers"
       d="m 88.706712,133.79482 c -6.541823,14.62811 -14.961922,25.29056 -18.633928,45.32611 4.633293,5.10758 11.027042,9.97935 16.145529,11.20537 -4.235211,8.57933 -15.913207,16.59417 -15.874898,20.53908 2.033871,6.41778 6.233738,9.80316 10.658736,12.87336"
       id="path25-7"
       sodipodi:nodetypes="ccccc" />
    <path
       id="path23"
       style="fill:#88dcd5;fill-opacity:1;stroke-width:0.301003"
       d="m 115.56296,130.17239 -23.237863,1.01527 c -0.810731,40.23171 -1.325189,74.57747 -2.973978,93.13191 h 14.471471 v 0.52123 h 12.74496 c -1.45128,-18.91223 -0.96472,-65.06085 -1.00459,-94.66841 z" />
    <path
       d="m 93.426693,122.97557 c -0.577517,2.53629 -0.640569,5.58705 -0.911043,8.43039 3.400769,2.01441 7.269637,3.03654 11.13893,2.70834 4.46511,0.5336 8.04175,-1.80368 11.42817,-2.70834 0.28664,-4.06871 -0.43192,-7.87036 -0.8067,-11.99909 l -9.14181,2.6057 z"
       style="fill:#e9d2c2;fill-opacity:1;stroke:#000000;stroke-width:0.8;stroke-dasharray:none;paint-order:stroke fill markers"
       id="path7"
       sodipodi:nodetypes="ccccccc" />
    <path
       d="M 86.143425,38.198865 C 64.140532,41.875071 63.283498,66.269601 69.372689,92.06946 c 10.747715,30.05573 17.788471,36.42305 37.418181,32.38965 16.33858,-2.04136 23.27895,-23.93404 18.06607,-50.812823 C 121.46286,46.673142 107.50942,31.573433 86.143425,38.198865 Z"
       style="fill:#ffe3cc;fill-opacity:1;stroke:#000000;stroke-width:0.534661;stroke-dasharray:none;stroke-opacity:1"
       id="path17"
       sodipodi:nodetypes="ccccc" />
    <path
       style="fill:#deaa87;stroke:#000000;stroke-width:0.7;stroke-dasharray:none;stroke-opacity:1;paint-order:stroke fill markers"
       d="m 106.34017,82.607083 c 0,0 7.07969,-0.231891 12.57694,-4.247604"
       id="path5-5"
       sodipodi:nodetypes="cc" />
    <path
       d="m 108.18329,51.758008 c -3.43184,-0.0741 -6.28384,1.74733 -11.33046,3.249106 -6.235254,2.934905 -16.966216,3.284502 -27.175318,7.292578 0.374622,1.904204 7.85109,0.119218 11.548017,-0.589136 5.790721,-1.109539 8.569714,-1.150259 10.586968,-1.870256 15.018613,-5.360431 18.697203,-4.559962 19.522563,-6.837057 -1.42563,-1.808398 -2.15099,-1.22367 -3.15177,-1.245235 z"
       style="fill:#60a2fa;fill-opacity:1;stroke:#000000;stroke-width:0.49636"
       id="path21"
       sodipodi:nodetypes="cccsscc" />
    <path
       style="fill:#ffffff;fill-opacity:1;stroke:#000000;stroke-width:0.628685;stroke-dasharray:none;stroke-opacity:1"
       id="path20"
       sodipodi:type="arc"
       sodipodi:cx="-84.210785"
       sodipodi:cy="73.274384"
       sodipodi:rx="13.088044"
       sodipodi:ry="12.276445"
       sodipodi:start="1.5728855"
       sodipodi:end="4.6366128"
       sodipodi:arc-type="arc"
       d="M -84.238128,85.550802 A 13.088044,12.276445 0 0 1 -97.289947,73.726588 13.088044,12.276445 0 0 1 -85.201598,61.033167"
       transform="matrix(-0.11476367,-0.99339282,0.98983114,-0.14224738,0,0)"
       sodipodi:open="true" />
    <path
       style="fill:#ffffff;fill-opacity:1;stroke:#000000;stroke-width:0.554781;stroke-dasharray:none;stroke-opacity:1"
       id="path20-8"
       sodipodi:type="arc"
       sodipodi:cx="-87.444839"
       sodipodi:cy="93.672234"
       sodipodi:rx="13.018723"
       sodipodi:ry="11.464449"
       sodipodi:start="1.6439325"
       sodipodi:end="4.5593641"
       sodipodi:arc-type="arc"
       d="m -88.39613,105.10604 a 13.018723,11.464449 0 0 1 -12.05705,-10.975988 13.018723,11.464449 0 0 1 11.023918,-11.7883"
       sodipodi:open="true"
       transform="matrix(-0.19437989,-0.98092633,0.97722133,-0.21222268,0,0)" />
    <ellipse
       style="fill:#000000;fill-opacity:1;stroke:#000000;stroke-width:0.243503;stroke-dasharray:none;stroke-opacity:1;paint-order:stroke fill markers"
       id="path6-1"
       cx="108.4675"
       cy="68.482056"
       rx="1.2575167"
       ry="1.123149" />
    <path
       style="fill:#e9c6af;stroke:#000000;stroke-width:0.569;stroke-dasharray:none;stroke-opacity:1"
       d="M 100.29884,46.487865 C 93.4464,52.034353 77.367245,54.32151 77.367245,54.32151"
       id="path2"
       sodipodi:nodetypes="cc" />
    <path
       style="fill:#e9c6af;stroke:#000000;stroke-width:0.569;stroke-dasharray:none;stroke-opacity:1"
       d="m 83.243817,49.498175 c 0,0 6.726105,-0.901069 11.511556,-3.480143"
       id="path3"
       sodipodi:nodetypes="cc"
       inkscape:transform-center-x="0.022598496"
       inkscape:transform-center-y="-0.071752759" />
    <path
       style="fill:#deaa87;stroke:#000000;stroke-width:0.7;stroke-dasharray:none;stroke-opacity:1;paint-order:stroke fill markers"
       d="m 79.585787,89.909652 c 0,0 6.950855,1.185359 12.83462,-3.796661"
       id="path5"
       sodipodi:nodetypes="cc" />
    <ellipse
       style="fill:#000000;fill-opacity:1;stroke:#000000;stroke-width:0.246072;stroke-dasharray:none;stroke-opacity:1;paint-order:stroke fill markers"
       id="path6"
       cx="81.621399"
       cy="74.954742"
       rx="1.3850734"
       ry="1.0413393" />
    <path
       style="fill:#e9c6af;fill-opacity:1;stroke:#000000;stroke-width:0.8;stroke-dasharray:none;stroke-opacity:1;paint-order:stroke fill markers"
       d="m 86.313504,108.12517 c 0,0 12.612816,-7.81667 31.575456,-9.003699"
       id="path8"
       sodipodi:nodetypes="cc" />
    <path
       d="m 97.982306,102.84837 c -2.61793,0.69401 -3.670389,1.38398 -3.267469,2.15411 1.225066,0.21505 3.295639,0.43893 4.026561,1.04426 0.605705,0.50164 1.382462,3.98486 3.102212,3.77065 2.10365,-0.26203 -0.13708,-3.90255 0.99661,-5.09043 0.92422,-0.9684 1.78701,-2.08538 1.79629,-2.82652 1.48855,-0.89403 -1.52009,-0.90622 -6.654204,0.94793 z"
       style="fill:#e0ffbe;fill-opacity:1;stroke:#000000;stroke-width:0.434375;paint-order:stroke fill markers"
       id="path11"
       sodipodi:nodetypes="ccssscc" />
    <path
       d="m 106.61941,108.4091 c -1.25286,9e-5 -1.07488,-0.21228 -1.92652,0.25018 -0.4586,0.249 0.0763,0.55436 0.0763,1.76482 0.98847,0.81579 1.561,0.85721 1.48961,0.7877 -0.0488,-1.20197 0.85375,-0.72328 0.78858,-1.64403 -0.74486,-0.94065 -0.38847,-0.75825 -0.428,-1.15867 z"
       style="fill:#e2ffc1;fill-opacity:1;stroke:#000000;stroke-width:0.4;stroke-dasharray:none;stroke-opacity:1;paint-order:stroke fill markers"
       id="path14"
       sodipodi:nodetypes="cscccc" />
    <path
       d="m 96.823932,110.05875 c 0.09484,0.61201 -0.437471,-0.006 -0.437489,1.00075 -1.1e-5,0.65199 0.40349,0.37263 0.646856,0.63033 0.388311,-0.33823 0.647268,-0.15338 0.671725,-0.70762 0.02335,-0.52912 -0.202888,-0.81071 -0.881092,-0.92346 z"
       style="fill:#e4ffc6;fill-opacity:1;stroke:#000000;stroke-width:0.4;stroke-dasharray:none;stroke-opacity:1;paint-order:stroke fill markers"
       id="path15"
       sodipodi:nodetypes="cscsc" />
    <path
       style="fill:none;fill-opacity:0.556338;stroke:#000000;stroke-width:0.7;stroke-dasharray:none;stroke-opacity:1;paint-order:stroke fill markers"
       d="m 118.31482,134.29868 c 9.04871,15.80602 14.29676,32.10721 16.84311,45.82851 -1.90747,3.4128 -4.50174,6.64688 -13.30567,10.49865 5.57781,6.07365 11.09848,13.34299 13.36819,20.01456 -4.40963,5.23348 -9.54617,6.96843 -12.43125,13.42155"
       id="path25"
       sodipodi:nodetypes="ccccc" />
    <path
       id="path26"
       style="fill:none;fill-opacity:0.556338;stroke:#000000;stroke-width:0.705815;stroke-dasharray:none;stroke-opacity:1;paint-order:stroke fill markers"
       d="m 72.881048,182.16317 c -2.235082,10.62123 -3.463081,27.39415 -5.055509,41.94279 0.01101,8.5e-4 0.02203,0.002 0.03304,0.003 z" />
    <path
       style="fill:none;fill-opacity:0.556338;stroke:#000000;stroke-width:0.713319;stroke-dasharray:none;stroke-opacity:1;paint-order:stroke fill markers"
       d="m 132.80068,183.57697 4.00481,40.90756"
       id="path27" />
    <path
       style="fill:none;fill-opacity:1;stroke:#000000;stroke-width:0.581229;stroke-dasharray:none;stroke-opacity:1;paint-order:stroke fill markers"
       d="M 94.348516,71.521343 C 93.16709,67.002318 90.009312,64.98894 87.560146,64.303306"
       id="path28"
       sodipodi:nodetypes="cc" />
    <path
       style="fill:none;fill-opacity:1;stroke:#000000;stroke-width:0.569;stroke-dasharray:none;stroke-opacity:1;paint-order:stroke fill markers"
       d="m 70.19586,76.037586 c 0,0 -0.582681,-5.228999 1.449963,-6.465936"
       id="path29"
       sodipodi:nodetypes="cc" />
    <path
       style="fill:none;fill-opacity:1;stroke:#000000;stroke-width:0.586625;stroke-dasharray:none;stroke-opacity:1;paint-order:stroke fill markers"
       d="m 119.91499,64.428756 c -0.11432,-0.646141 -1.05913,-5.881514 -6.51777,-6.4795"
       id="path30"
       sodipodi:nodetypes="cc" />
    <path
       style="fill:none;fill-opacity:1;stroke:#000000;stroke-width:0.566383;stroke-dasharray:none;stroke-opacity:1;paint-order:stroke fill markers"
       d="m 97.851377,70.263003 c 0,0 -1.707566,-5.181112 1.375047,-8.316968"
       id="path31"
       sodipodi:nodetypes="cc" />
    <path
       style="fill:none;fill-opacity:1;stroke:#000000;stroke-width:0.384591;stroke-dasharray:none;stroke-opacity:1;paint-order:stroke fill markers"
       d="m 97.117343,85.870341 c 0.538749,2.847734 1.681543,11.598284 5.156867,10.827385 2.18463,-0.484595 0.71453,-9.94923 0.58342,-12.021286"
       id="path32"
       sodipodi:nodetypes="csc" />
    <path
       style="fill:none;fill-opacity:1;stroke:#000000;stroke-width:0.4;stroke-dasharray:none;stroke-opacity:1;paint-order:stroke fill markers"
       d="m 118.66249,95.98649 c 0,0 3.86523,2.57682 0.51537,7.21509"
       id="path33" />
    <path
       style="fill:none;fill-opacity:1;stroke:#000000;stroke-width:0.4;stroke-dasharray:none;stroke-opacity:1;paint-order:stroke fill markers"
       d="m 81.629447,105.86319 c 0,0 -2.368711,6.55951 4.008589,7.10613"
       id="path34" />
    <path
       style="fill:none;fill-opacity:1;stroke:#000000;stroke-width:0.5;stroke-dasharray:none;stroke-opacity:1;paint-order:stroke fill markers"
       d="m 103.24275,224.52058 14.23692,0.0644"
       id="path68" />
  </g>
</svg>
