<?xml version="1.0" encoding="UTF-8" standalone="no"?>
<!-- Created with Inkscape (http://www.inkscape.org/) -->

<svg
   width="297mm"
   height="210mm"
   viewBox="0 0 297 210"
   version="1.1"
   id="svg1"
   inkscape:version="1.3.2 (091e20e, 2023-11-25, custom)"
   sodipodi:docname="ЛР1.svg"
   xmlns:inkscape="http://www.inkscape.org/namespaces/inkscape"
   xmlns:sodipodi="http://sodipodi.sourceforge.net/DTD/sodipodi-0.dtd"
   xmlns="http://www.w3.org/2000/svg"
   xmlns:svg="http://www.w3.org/2000/svg">
  <sodipodi:namedview
     id="namedview1"
     pagecolor="#ffffff"
     bordercolor="#000000"
     borderopacity="0.25"
     inkscape:showpageshadow="2"
     inkscape:pageopacity="0.0"
     inkscape:pagecheckerboard="0"
     inkscape:deskcolor="#d1d1d1"
     inkscape:document-units="mm"
     inkscape:zoom="0.66903058"
     inkscape:cx="493.25099"
     inkscape:cy="414.77924"
     inkscape:window-width="1920"
     inkscape:window-height="986"
     inkscape:window-x="-11"
     inkscape:window-y="-11"
     inkscape:window-maximized="1"
     inkscape:current-layer="layer1" />
  <defs
     id="defs1" />
  <g
     inkscape:label="Слой 1"
     inkscape:groupmode="layer"
     id="layer1">
    <path
       style="fill:#0000ff;stroke-width:0.264583"
       id="path3"
       d="m 33.946081,58.306247 c 3.114871,2.756035 5.943465,5.805805 8.704651,8.909505 1.354746,1.576882 2.623198,3.22277 3.88619,4.872731 0.356399,0.465595 1.168336,1.640125 1.754819,1.98997 1.366417,0.815086 2.816972,1.480035 4.22546,2.22005 0.392194,-0.196069 0.817086,-0.337169 1.176583,-0.588208 0.703009,-0.490919 3.026468,-2.739504 3.417279,-3.108103 2.387217,-2.251554 4.820243,-4.43448 7.294129,-6.590326 0.712086,-0.610939 1.424172,-1.221878 2.136256,-1.832819 0,0 -3.179016,-1.978708 -3.179016,-1.978708 v 0 c -0.70145,0.618149 -1.4029,1.236295 -2.104351,1.854444 -2.463863,2.17275 -4.900578,4.369808 -7.336419,6.573366 -0.387451,0.350502 -2.711897,2.476746 -3.464618,2.922924 -0.312799,0.185412 -0.689475,0.231314 -1.034211,0.346969 0.824989,0.550135 1.61372,1.158968 2.474962,1.650405 0.338146,0.192947 -0.628454,-0.466418 -0.895876,-0.749358 -0.348912,-0.36916 -0.63205,-0.79538 -0.943436,-1.196698 C 48.51179,71.608989 49.316134,72.58052 47.616506,70.489344 47.123675,69.882977 46.623141,69.28291 46.12646,68.679694 43.401061,65.603019 40.625651,62.564237 37.58339,59.794388 Z" />
    <rect
       style="fill:#000080;stroke-width:0.283766"
       id="rect2"
       width="301.35019"
       height="122.59653"
       x="-2.3728361"
       y="-0.39547274" />
    <ellipse
       style="fill:#ffd42a;stroke-width:0.354975"
       id="path5"
       cx="232.53795"
       cy="77.11718"
       rx="11.864181"
       ry="10.677763" />
    <path
       style="fill:#6c5d53;stroke-width:0.264583"
       d="m 24.519307,108.35952 c -0.220408,7.17934 4.23022,11.09712 9.886818,14.63249 2.001552,1.25097 3.512402,2.7402 5.536618,3.95473 1.575226,0.94513 3.205729,1.74168 4.745672,2.7683 1.467832,0.97856 2.76237,2.36987 4.3502,3.16379 5.337016,2.66851 10.558095,5.78834 16.214381,7.90945 1.976702,0.74126 4.269965,0.84349 6.327563,1.18642 1.841889,0.30698 5.684565,0.22867 7.513982,0 1.237744,0.70483 1.827249,-0.60274 2.768309,-0.79095 1.52197,-0.30439 3.196973,0.17208 4.745672,0 1.464823,-0.16276 2.883673,-0.64429 4.3502,-0.79094 1.311698,-0.13117 2.646664,0.16351 3.954727,0 2.864935,-0.35812 5.381241,-0.4498 8.304921,0 4.23631,0.65174 8.53533,1.8528 12.65513,2.76831 2.52574,0.56127 5.86411,0.74263 8.30493,1.18641 2.85401,0.51892 4.02086,0.91621 6.72303,1.18642 3.87456,0.38746 -3.57396,-1.09031 4.3502,0.39547 1.06843,0.20034 2.08937,0.62566 3.16378,0.79095 3.87346,0.59592 7.94952,0.1345 11.86418,0.39547 2.7954,0.18636 5.17675,0.51768 7.90946,0.79095 3.99569,0.39957 8.24869,0 12.25965,0 2.44356,0 5.08184,0.24321 7.51398,0 1.08166,-0.10817 2.0812,-0.69253 3.16379,-0.79095 0.91898,-0.0835 1.85118,0.10191 2.7683,0 0.29297,-0.0325 0.50191,-0.33766 0.79095,-0.39547 6.72418,-1.34483 0.29853,0.1426 5.14114,-0.39547 1.57011,-0.17446 3.17312,-0.66998 4.74568,-0.79095 2.62079,-0.2016 5.28659,0.17486 7.90945,0 0.93008,-0.062 1.83824,-0.33347 2.76831,-0.39547 7.29676,-0.48645 14.89657,0.24475 22.14647,-0.79095 0.95005,-0.13572 1.82725,-0.60273 2.76831,-0.79094 2.4587,-0.49174 5.02953,-0.77234 7.51398,-1.18642 7.34606,-1.22434 11.12868,-2.36298 17.79627,-5.14114 1.60062,-0.66693 1.93441,-0.59839 3.16379,-1.5819 1.19728,0.97588 0.68023,-1.0757 0.79094,-1.18641 1.71997,-1.71997 2.23829,-1.54112 4.3502,-3.95473 0.0868,-0.0992 -0.0823,-0.29253 0,-0.39547 0.69876,-0.87346 1.7017,-1.47799 2.37284,-2.37284 1.14263,-1.52352 2.72214,-3.46693 3.55925,-5.14114 0.62654,-1.25307 -0.81838,-0.36803 0.39548,-1.5819 0.0932,-0.0932 0.33652,0.11791 0.39547,0 0.23582,-0.47162 -0.16674,-1.08165 0,-1.58189 0.0589,-0.17686 0.33652,-0.21861 0.39547,-0.39547 0.44651,-1.33955 0,-7.44697 0,-9.49134 0,-0.53561 0.59534,-1.38201 0.39547,-1.58189 -0.29477,-0.29477 -0.83957,-0.16424 -1.18641,-0.39548 -0.31025,-0.20682 -0.45747,-0.62419 -0.79095,-0.79094 -0.31231,-0.15615 -0.85291,0.11117 -1.18642,0 -0.31702,-0.10567 -1.7364,-0.54998 -1.97736,-0.79095 -0.20844,-0.20843 -0.18703,-0.58251 -0.39547,-0.79094 -0.0932,-0.0932 -0.30226,0.0932 -0.39548,0 -0.67217,-0.67218 -0.90972,-1.70066 -1.58189,-2.37284 -0.33609,-0.33609 -0.85033,-0.45486 -1.18642,-0.79095 -0.20843,-0.20843 -0.17167,-0.59911 -0.39547,-0.79094 -1.70922,-1.465041 -8.30058,-6.946533 -10.67776,-8.304925 -0.87167,-0.498096 -1.87036,-0.737441 -2.76831,-1.186418 -6.15292,-3.076458 1.8837,0.348644 -3.55926,-2.372836 -0.93331,-0.466659 -1.83499,-0.324289 -2.76831,-0.790945 -0.42512,-0.212561 -0.74511,-0.614426 -1.18641,-0.790946 -0.2448,-0.09792 -0.53517,0.06394 -0.79095,0 -1.33647,-0.334118 -3.08922,-1.0775 -4.3502,-1.581891 -0.54737,-0.218948 -1.02261,-0.60452 -1.58189,-0.790945 -0.25012,-0.08337 -0.54083,0.08337 -0.79094,0 -0.56374,-0.187912 -0.56947,-0.569465 -0.79095,-0.790945 -0.30563,-0.305631 -2.77646,-0.992757 -3.16378,-1.186419 -0.53751,-0.268755 -1.04438,-0.917662 -1.58189,-1.186418 -0.58208,-0.291039 -1.91016,-0.328266 -2.37284,-0.790945 -0.0932,-0.09322 0.0932,-0.30226 0,-0.395473 -0.19774,-0.197736 -0.59321,-0.197736 -0.79094,-0.395473 -0.19774,-0.197736 -0.19774,-0.593209 -0.39548,-0.790945 -0.18643,-0.186428 -0.60451,0.186425 -0.79094,0 -0.19774,-0.197736 -0.19774,-0.593209 -0.39548,-0.790945 -0.0932,-0.09322 -0.27756,0.05895 -0.39547,0 -0.85676,-0.428379 -0.78632,-0.781693 -1.18642,-1.581891 -0.48287,-0.965748 -1.26866,-1.268667 -1.97736,-1.977364 -0.0932,-0.09322 0.0678,-0.282434 0,-0.395472 -0.33912,-0.565193 -0.77467,-1.067205 -1.18642,-1.581891 -1.55145,-1.939311 -3.28315,-3.864422 -5.14114,-5.536618 -2.55387,-2.298483 -5.22903,-4.578691 -7.90946,-6.723036 -1.52706,-1.221653 -1.11854,-0.559271 -3.16378,-1.581891 -1.63397,-0.816985 -3.04089,-2.037688 -4.74567,-2.768309 -2.51977,-1.079902 -5.34754,-1.518867 -7.90946,-2.372836 -0.67346,-0.224488 -1.28866,-0.61877 -1.97736,-0.790945 -2.25967,-0.564918 -5.29432,0.739886 -7.51398,0 -0.17103,-0.05701 -1.93771,-0.781032 -1.97736,-0.790946 -0.38367,-0.09592 -0.80276,0.09592 -1.18642,0 -0.46111,-0.115279 -0.72531,-0.675669 -1.18642,-0.790945 -1.93624,-0.484061 -3.33863,-1.00951 -4.74567,-2.768309 -0.5279,-0.659879 -0.77989,-1.763041 -1.18642,-2.372836 -0.11236,-0.168537 -2.10835,-2.50257 -2.37284,-3.163782 -0.0979,-0.244792 0.14625,-0.571577 0,-0.790945 -0.67416,-1.01124 -1.64362,-1.796021 -2.37283,-2.768309 -0.5262,-0.701593 -0.76394,-0.368467 -1.58189,-1.186418 -0.0932,-0.09322 0.10294,-0.313124 0,-0.395473 -1.57517,-1.260136 -3.46592,-2.442435 -5.14115,-3.559254 -0.46535,-0.310235 -0.72106,-0.876184 -1.18642,-1.186419 -0.3486,-0.232404 -2.30879,-0.758922 -2.37283,-0.790945 -0.11791,-0.05895 0.0932,-0.30226 0,-0.395473 -0.36561,-0.365611 -2.1127,0 -2.76831,0 -2.68277,0 -3.6084,1.878301 -5.53662,3.163782 -0.36126,0.24084 -0.95973,0.337569 -1.18642,0.790945 -0.059,0.117907 0.0932,0.302258 0,0.395473 -0.0932,0.09321 -0.30226,-0.09322 -0.39547,0 -0.20843,0.208431 -0.18704,0.582512 -0.39547,0.790946 -0.0932,0.09321 -0.27757,-0.05896 -0.39548,0 -0.67245,0.336227 -1.33587,0.865676 -1.97736,1.186418 -0.14658,0.07329 -5.49159,0.110125 -5.93209,0 -0.18086,-0.04521 -0.21461,-0.350258 -0.39547,-0.395473 -0.86902,-0.217255 -1.91396,-0.110689 -2.76831,-0.395473 -1.32691,-0.442301 -1.96505,-2.360517 -2.76831,-3.163781 -0.0932,-0.09322 -0.27756,0.05895 -0.39547,0 -1.19117,-0.595583 -2.33293,-1.759675 -3.55926,-2.372837 -0.56022,-0.280111 -1.40454,-0.204533 -1.97736,-0.395472 -0.17686,-0.05895 -0.21461,-0.350258 -0.39547,-0.395473 -0.38367,-0.09592 -0.79863,0.07756 -1.18642,0 -1.03253,-0.206507 -2.07359,-0.572908 -3.16378,-0.790945 -1.69133,-0.338265 -8.68926,-0.267365 -10.67777,0.395472 -0.18063,0.06021 -2.97944,2.491798 -3.16378,2.768309 -0.32701,0.490524 -0.42266,1.12154 -0.79094,1.581891 -0.18414,0.230174 -0.60681,0.165298 -0.79095,0.395473 -1.23306,1.541322 -1.77538,3.486269 -2.76831,5.141145 -2.207022,3.678378 0.79261,-2.77163 -1.58189,1.977363 -0.678057,1.35612 -1.405997,2.74618 -2.372832,3.954727 -1.543294,1.929115 -3.543419,3.539459 -5.141145,5.536618 -0.184142,0.230175 -0.187042,0.582512 -0.395473,0.790946 -0.09322,0.09321 -0.30226,-0.09322 -0.395473,0 -1.37378,1.373777 -2.415058,3.118461 -3.954727,4.350199 -1.677678,1.342142 -3.600222,2.809275 -5.141145,4.3502 -0.208433,0.208431 -0.187042,0.582512 -0.395473,0.790946 -1.054594,0.922768 -2.109189,1.845537 -3.163781,2.768308 -0.527299,0.263647 -1.121543,0.422664 -1.581891,0.790946 -0.230177,0.184139 -0.187042,0.582512 -0.395473,0.790945 -0.934087,0.934088 -1.682694,0.80645 -2.768309,1.581891 -0.455107,0.325075 -0.756766,0.828373 -1.186418,1.186418 -1.785461,1.487882 -4.036007,2.627469 -5.93209,3.954727 -2.008042,1.405628 -5.44462,4.106463 -7.513982,5.141145 -0.486145,0.24307 -1.115822,0.11583 -1.581891,0.395473 -0.252761,0.151657 -0.263649,0.527296 -0.395472,0.790945 -0.659122,0.263647 -1.303899,0.566458 -1.977364,0.790946 -0.790945,0.263647 -1.558962,0.610084 -2.372836,0.790945 -1.330137,0.295585 -2.596483,-0.05728 -3.954727,0.395473 -3.063521,1.021173 -5.814065,2.116085 -8.7004,3.559254 -0.61278,0.306388 -1.81252,0.6261 -2.372836,1.186418 -0.09322,0.09321 0.09321,0.302258 0,0.395473 -0.850273,0.85027 -2.345766,1.159346 -3.163781,1.977364 -2.434193,2.43419 -5.636811,8.109839 -7.118509,11.073236 -0.595072,1.19014 -1.062646,0.41963 -1.581891,1.97736 -0.12506,0.37518 0.07756,0.79863 0,1.18642 -0.318286,1.59143 -0.288588,0.1817 -0.790946,1.18642 -1.007268,2.01453 1.026235,0.21358 -1.186418,3.16378 z"
       id="path4" />
    <rect
       style="fill:#803300;stroke-width:0.243709"
       id="rect1"
       width="301.74567"
       height="94.122498"
       x="-2.3728361"
       y="118.74181" />
    <path
       style="fill:#c8beb7;stroke-width:0.264583"
       d="m 17.00533,22.146471 c -0.55478,2.460462 0.0486,2.074608 0.79094,3.559255 0.0589,0.117907 -0.0932,0.302258 0,0.395472 0.18643,0.186428 0.53517,-0.06394 0.79095,0 1.63671,0.409179 3.15731,1.052439 4.74567,1.581891 0.40064,0.133548 1.69507,-0.28229 1.97736,0 0.46787,0.467869 1.36955,2.131275 1.58189,2.768309 0.0834,0.250119 -0.11791,0.55513 0,0.790946 0.059,0.117906 0.30226,-0.09322 0.39548,0 0.0932,0.09321 -0.0589,0.277566 0,0.395472 0.76115,1.522307 2.81117,1.977364 4.3502,1.977364 0.26364,0 0.55513,0.117906 0.79094,0 0.11791,-0.05896 -0.0932,-0.30226 0,-0.395473 0.47739,-0.477393 3.21075,-1.209902 3.95473,-1.581891 1.64586,-0.822931 -0.42278,0.0273 0.39547,-0.790945 0.18643,-0.186428 0.60452,0.186428 0.79095,0 0.0932,-0.09322 -0.0932,-0.30226 0,-0.395473 0.18281,-0.182814 0.94764,0.119388 1.18641,0 0.92164,-0.460819 1.12347,-0.110839 1.97737,-0.395472 0.17686,-0.05896 0.21861,-0.336519 0.39547,-0.395473 0.37518,-0.125061 0.8327,0.176861 1.18642,0 0.42512,-0.212561 0.7613,-0.578386 1.18642,-0.790946 0.7539,-0.37695 2.03185,-0.422717 2.76831,-0.790945 0.16674,-0.08337 0.21461,-0.350258 0.39547,-0.395473 0.62811,-0.157028 3.26423,-0.568097 3.95473,-0.395473 1.21696,0.304242 2.02314,1.549626 3.16378,1.977364 0.65912,0.131823 1.31824,0.263649 1.97736,0.395473 0.26365,0.263649 0.44476,0.65247 0.79095,0.790945 0.59911,0.239644 4.16881,0.288428 4.74567,0 0.89464,-0.44732 1.45364,-0.484547 2.37283,-0.790945 0.4771,-0.159033 0.71806,-0.999074 1.18642,-1.186419 0.50465,-0.20186 1.0546,-0.263648 1.58189,-0.395472 0.79095,-0.263649 1.60652,-0.462523 2.37284,-0.790946 0.17135,-0.07344 0.21861,-0.336519 0.39547,-0.395472 0.25012,-0.08337 0.54083,0.08337 0.79095,0 0.58283,-0.194278 1.01334,-0.996901 1.58189,-1.186418 0.25012,-0.08337 0.54082,0.08337 0.79094,0 0.60832,-0.202772 1.36905,-0.983647 1.97737,-1.186419 0.25012,-0.08337 0.54082,0.08337 0.79094,0 0.71406,-0.238018 1.57061,-0.919008 2.37284,-1.186418 0.37518,-0.125059 0.80276,0.09592 1.18642,0 0.75699,-0.189248 1.45014,-1.252295 2.37284,-0.790945 1.01427,0.507138 1.77702,1.426647 2.7683,1.977363 0.36441,0.202448 0.81357,0.209046 1.18642,0.395473 0.3335,0.166746 0.43723,0.673038 0.79095,0.790946 0.53447,0.178157 4.51114,0.234534 4.74567,0 0.0932,-0.09321 -0.0932,-0.302259 0,-0.395473 0.0932,-0.09321 0.27757,0.05895 0.39547,0 1.80993,-0.904962 -1.67815,0.163912 1.18642,-0.790946 0.59321,-0.197736 0.39547,0.395473 1.18642,0 0.11791,-0.05895 -0.0932,-0.302259 0,-0.395472 0.16632,-0.166324 3.52872,0.03054 3.95473,-0.395473 0.17411,-0.174112 0.14371,-2.876362 0,-3.163782 -0.33909,-0.678175 -1.37252,-0.395472 -1.97737,-0.395472 -4.74567,0 -9.49134,0 -14.23701,0 -3.32896,0 -7.15707,0.548439 -10.2823,-0.790946 -1.08178,-0.46362 -1.86573,-1.300429 -2.76831,-1.977363 -0.62054,-0.465409 -4.27939,-1.366453 -5.14114,-1.581891 -2.45076,-0.612691 -6.16157,0.282093 -8.7004,0 -1.87824,-0.208693 -3.60676,-0.790945 -5.53662,-0.790945 -0.3006,0 -2.23234,-0.133992 -2.76831,0 -0.4164,0.104101 -0.7164,0.552143 -1.18641,0.395472 -1.4423,-0.480766 -2.39228,-1.789344 -3.55926,-2.372836 -1.02175,-0.510874 -2.29748,0.03768 -3.16378,-0.395472 -0.16675,-0.08337 -0.21461,-0.350258 -0.39547,-0.395473 -1.93917,-0.484791 -4.786,0.0745 -6.72304,0 -2.50627,-0.0964 -5.01917,-0.137388 -7.51398,-0.395473 -1.56503,-0.161899 -4.83234,-1.421177 -6.72304,-0.790945 -1.15896,0.38632 -0.94895,0.500808 -1.97736,1.186418 -0.21937,0.146246 -0.55513,-0.117907 -0.79095,0 -0.24184,0.120921 -1.767036,2.347663 -1.977359,2.768309 -0.442214,0.884429 -1.652349,1.436997 -2.3728361,1.977363 -0.465103,0.348828 -1.025163,1.303526 -1.581891,1.581891 -1.244817,0.622408 -3.322394,0.983092 -4.745673,1.186418 -0.238915,0.03413 -2.90347598,-0.260305 -3.16378097989351,0 -0.18642800010649,0.186428 0,0.527297 0,0.790945 0,0.689243 -0.39494500010649,2.966837 0,3.559255 C 0.20682292,24.434069 0.48071092,24.707957 0.79094492,24.91478 c 1.55655698,1.037705 3.32039398,0.850661 5.14114598,0.395473 1.092604,-0.273152 2.493473,0.35526 3.559254,0 0.176861,-0.05895 0.228727,-0.3121 0.395473,-0.395473 0.7074431,-0.353721 1.5926511,0.130031 2.3728321,0 0.18389,-0.03065 0.22873,-0.3121 0.39548,-0.395473 0.32843,-0.164216 1.20697,0 1.58189,0 1.24046,0 0.90742,0.07765 1.97736,0.790946 0.48184,0.321227 0.79095,-0.481083 0.79095,0.395473"
       id="path6" />
    <path
       style="fill:#c8beb7;stroke-width:0.264583"
       d="m 231.35153,45.083888 c 3.15863,4.2115 -0.85073,-0.643035 2.76831,2.372836 0.36514,0.304279 0.45486,0.850331 0.79095,1.186418 0.75524,0.755243 2.03381,1.242862 2.76831,1.977364 1.02325,1.023247 1.40715,2.724163 3.16378,2.372836 0.27934,-0.05587 1.95724,-0.375349 2.37284,-0.790946 0.20843,-0.208433 0.15021,-0.627438 0.39547,-0.790945 0.21937,-0.146246 0.53517,0.06395 0.79094,0 0.18814,-0.04704 0.99828,-0.74391 1.18642,-0.790945 0.90431,-0.226076 1.85427,-0.212667 2.76831,-0.395473 1.10726,-0.221454 1.72661,-0.790945 2.76831,-0.790945 0.9322,0 2.3042,-0.191019 3.16378,0 2.71819,0.604041 4.80762,2.937986 7.11851,4.350199 3.70491,2.264111 7.30401,4.346705 11.46871,5.536618 0.68258,0.195022 1.28125,0.651724 1.97736,0.790946 2.03779,0.407556 3.92684,-0.508707 5.53662,-1.581891 0.43627,-0.290849 0.71922,-0.95282 1.18642,-1.186418 0.1179,-0.05896 0.30226,0.09321 0.39547,0 0.0932,-0.09322 -0.0589,-0.277567 0,-0.395473 0.42749,-0.854988 1.54987,-1.517849 1.97736,-2.372836 0.059,-0.117909 0,-0.26365 0,-0.395473 0.26365,-0.395473 0.50577,-0.80618 0.79095,-1.186418 0.90854,-1.211395 -0.25295,0.648425 1.18642,-0.790946 0.4482,-0.448206 0.53097,-1.25417 1.18642,-1.58189 0.62472,-0.312362 1.3897,-0.203282 1.97736,-0.790946 0.40688,-0.406879 0.69061,-1.782554 0.39547,-2.372836 -0.28176,-0.563517 -1.55823,-1.302468 -1.97736,-1.581891 -3.17229,-2.114863 -6.65854,-1.98453 -10.28229,-1.581891 -1.28306,0.142563 -2.72017,0.08683 -3.95473,0.395473 -1.06779,0.266947 -1.96373,0.635482 -3.16378,0.395473 -2.38788,-0.477577 -0.13341,-0.132729 -1.97736,-1.186419 -2.51408,-1.436617 -6.16118,-2.471015 -8.7004,-3.559254 -4.556,-1.952569 -3.4239,-3.075309 -8.7004,-3.954727 -2.99678,-0.499463 -0.16113,-0.08056 -1.58189,-0.790945 -0.44589,-0.222942 -3.19543,-0.253102 -3.95473,0 -0.40964,0.136546 -0.79408,0.594777 -1.18642,0.790945 -0.50791,0.253958 -1.46945,0.141515 -1.97736,0.395473 -0.47457,0.237283 -0.71185,0.949134 -1.18642,1.186418 -0.48614,0.243072 -1.12965,0.09398 -1.58189,0.395473 -0.90759,0.60506 -3.13688,2.932413 -3.95473,3.954727 -0.18414,0.230175 -0.18704,0.582513 -0.39547,0.790945 -0.29477,0.294768 -0.89165,0.100705 -1.18642,0.395473 -0.0932,0.09321 0,0.263648 0,0.395472 -0.79094,0.395473 -1.58189,0.790946 -2.37284,1.186419 z"
       id="path7" />
    <path
       style="fill:#e3dedb;stroke-width:0.264583"
       d="m 68.416778,75.535286 c 0.954775,-1.162039 0.822288,-1.675923 1.186418,-2.768309 0.04058,-0.121742 3.721415,-3.442599 3.954727,-3.559254 0.117906,-0.05895 0.302257,0.09321 0.395473,0 0.09321,-0.09322 -0.09322,-0.30226 0,-0.395473 0.407111,-0.407114 0.779303,-0.383833 1.186418,-0.790945 0.20843,-0.208433 0.187039,-0.582515 0.395472,-0.790945 0.09321,-0.09322 0.302258,0.09321 0.395473,0 0.131823,-0.131826 0.263647,-1.054595 0.395473,-1.186419 0.09321,-0.09322 0.302257,0.09321 0.395472,0 0.09321,-0.09322 -0.05895,-0.277566 0,-0.395472 0.822931,-1.645865 -0.0273,0.422772 0.790946,-0.395473 0.257603,-0.257606 0.576276,-1.259888 0.790945,-1.581891 0.310235,-0.465352 0.936297,-0.686181 1.186418,-1.186418 0.116753,-0.233511 0.659757,-1.450705 0.790946,-1.581891 0.09321,-0.09322 0.302257,0.09321 0.395472,0 0.148474,-0.148476 1.018869,-1.809816 1.186419,-1.977363 0.20843,-0.208434 0.582512,-0.187042 0.790945,-0.395473 0.171495,-0.171495 0.985568,-1.776513 1.186418,-1.977363 0.09321,-0.09322 0.302257,0.09321 0.395473,0 0.444682,-0.444683 0.834318,-1.449216 1.186418,-1.977364 0.290846,-0.436271 0.952817,-0.719222 1.186418,-1.186418 0.193601,-0.387202 0.582126,-0.768784 0.790945,-1.186418 0.05895,-0.117909 -0.117908,-0.336521 0,-0.395473 0.754542,-0.377272 0.762082,0.4532 1.186419,-0.395473 0.331652,-0.663307 2.677853,-3.118553 3.559254,-3.559254 0.117906,-0.05895 0.302257,0.09321 0.395473,0 0.72622,-0.726223 1.15834,-1.772608 1.977363,-1.977363 0.808837,-0.202211 1.563997,-0.588738 2.372836,-0.790946 1.090803,-0.272701 2.121567,0.125635 3.163778,-0.395473 0.25316,-0.126579 1.42089,-0.629938 1.58189,-0.790945 0.81825,-0.818248 -1.25039,0.03199 0.39547,-0.790945 0.44318,-0.221592 2.7883,-0.187743 3.16379,0 1.64586,0.822931 -0.42278,-0.0273 0.39547,0.790945 0.0932,0.09321 0.33652,-0.117909 0.39547,0 0.3586,0.717201 0.14191,1.612127 0.39547,2.372836 1.24425,3.732737 0.56505,7.231457 -3.16378,9.095872 -2.38856,1.194279 -0.16744,-0.05701 -1.97736,0.395473 -0.85004,0.212508 -1.667481,0.833739 -2.372834,1.186418 -0.688726,0.344361 -1.869141,0.191498 -2.768309,0.790946 -0.465352,0.310234 -0.738992,0.850847 -1.186418,1.186418 -0.333494,0.250118 -0.891651,0.100703 -1.186418,0.395473 -0.09322,0.09321 0.09321,0.302257 0,0.395472 -0.208434,0.208431 -0.582515,0.187039 -0.790946,0.395473 -0.466349,0.466347 -2.151795,2.776955 -2.372836,3.163782 -0.600009,1.050012 -0.840891,2.175779 -1.581891,3.163781 -1.587635,2.116844 -3.946879,2.465819 -5.93209,3.954727 -0.797441,0.598078 -1.475005,1.923918 -2.372837,2.372836 -0.117908,0.05895 -0.30226,-0.09322 -0.395472,0 -0.208434,0.208431 -0.187042,0.582512 -0.395473,0.790946 -0.398394,0.398391 -1.20297,0.538329 -1.581891,0.790945 -0.806021,0.537345 -1.176157,1.181285 -1.977363,1.581891 -0.353722,0.176861 -0.811242,-0.125061 -1.186418,0 -0.176861,0.05895 -0.218612,0.336518 -0.395473,0.395473 -0.867204,0.289068 -3.895582,0.905526 -4.745673,0.395472 -0.565192,-0.339116 -0.976063,-1.446059 -1.58189,-1.186418 -0.812806,0.348343 -0.695897,1.637051 -1.186418,2.372837 -0.126357,0.189531 -2.248734,0.66684 -2.372837,0.790945 -0.09322,0.09321 0.09321,0.302257 0,0.395473 -0.423415,0.423412 -2.401435,0.932301 -3.163781,1.186418 -0.830493,0.276831 -1.937817,-0.276831 -2.768309,0 -1.16532,0.388437 -1.7492,1.581891 -2.768309,1.581891"
       id="path13" />
    <path
       style="fill:#e3dedb;stroke-width:0.264583"
       d="m 177.96271,52.993342 c -0.60441,-1.136806 -2.69008,0.03911 -3.55925,-0.395472 -0.67999,-0.339995 -2.92954,-4.042945 -3.16378,-4.745673 -0.19382,-0.581454 -0.12226,-1.43093 -0.39547,-1.977363 -0.16675,-0.333492 -0.6242,-0.457454 -0.79095,-0.790946 -0.27275,-0.545499 0.47894,-0.35374 -0.39547,-0.790945 -0.78578,-0.392888 -0.43238,-0.43238 -0.79095,-0.790946 -0.98515,-0.985154 -4.14015,-1.14006 -5.53662,-0.790945 -0.26364,0.131823 -0.52729,0.263647 -0.79094,0.395473 0,0.131823 0.10968,0.322349 0,0.395472 -0.24189,0.161261 -1.72159,0.53517 -1.97737,0.790946 -0.20843,0.208431 -0.18703,0.582512 -0.39547,0.790945 -0.0932,0.09321 -0.30226,-0.09322 -0.39547,0 -0.0932,0.09321 0.0417,0.270412 0,0.395473 -0.43832,1.314953 -0.48799,0.883457 -0.79095,1.186418 -0.31464,0.314645 0.28209,2.201362 0.39548,2.768309 0.17285,0.864248 -0.58829,0.106251 0.39547,1.581891 0.0731,0.109683 0.29001,-0.0791 0.39547,0 0.44743,0.335568 0.74969,0.837036 1.18642,1.186418 0.35993,0.287946 1.91503,0.957514 2.37284,1.186418 0.23581,0.117906 0.54615,-0.09792 0.79094,0 2.34535,0.938138 4.85212,1.635112 7.11851,2.768309 0.73276,0.366379 2.02226,1.671685 2.37284,2.372836 0.0589,0.117906 -0.0932,0.302257 0,0.395473 0.0932,0.09321 0.30226,-0.09322 0.39547,0 0.18643,0.186428 -0.11791,0.55513 0,0.790945 0.0939,0.187711 1.16164,1.952583 1.18642,1.977364 0.20843,0.208431 0.58251,0.187039 0.79094,0.395472 0.81825,0.818246 -1.25039,-0.03198 0.39548,0.790946 2.37909,1.189543 4.64936,2.736207 7.1185,3.559254 0.56944,0.18981 1.83279,0 2.37284,0 2.62232,0 8.51142,-0.6877 10.67776,0.395473 0.85947,0.429731 1.89497,1.290775 2.76831,1.581891 0.25012,0.08337 0.57158,-0.146246 0.79095,0 0.24526,0.163507 0.18704,0.582512 0.39547,0.790945 0.0246,1.113547 0.89165,0.100703 1.18642,0.395473 0.0932,0.09321 -0.0932,0.302257 0,0.395472 0.81263,0.812636 2.20626,1.339017 3.16378,1.977364 0.43627,0.290846 0.71922,0.952817 1.18642,1.186418 1.83219,0.916093 5.52681,1.389055 7.51398,0.395473 0.4643,-0.232151 0.65561,-0.915742 0.79095,-1.186418 1.26335,-2.526702 -0.96741,-3.845219 -2.76831,-4.745673 -0.3335,-0.166745 -0.45746,-0.624199 -0.79095,-0.790945 -0.11791,-0.05895 -0.30226,0.09321 -0.39547,0 -0.0932,-0.09322 0.0932,-0.30226 0,-0.395473 -0.83177,-0.831768 -1.62493,-0.83398 -2.37284,-1.581891 -0.99484,-0.994846 -1.7747,-2.565651 -2.76831,-3.559254 -0.0932,-0.09322 -0.30226,0.09321 -0.39547,0 -0.16572,-0.165722 -0.27563,-0.946737 -0.39547,-1.186418 -0.383,-0.765995 -1.32216,-1.14509 -1.97737,-1.581891 -0.78345,0.03948 -0.18704,-0.582515 -0.39547,-0.790945 -0.22984,-0.229839 -1.24954,-0.229299 -1.58189,-0.395473 -0.46068,-0.230338 -0.72574,-0.56061 -1.18642,-0.790945 -0.31638,-0.15819 -0.87004,0.158189 -1.18642,0 -0.78824,-0.394126 -1.58458,-0.396822 -2.37283,-0.790946 -0.6235,-0.31175 -1.71133,0.220501 -2.37284,0 -0.17686,-0.05895 -0.21861,-0.336521 -0.39547,-0.395473 -0.50024,-0.166745 -1.11026,0.235813 -1.58189,0 -0.33349,-0.166745 -0.48071,-0.584123 -0.79095,-0.790945 -0.21659,-0.144394 -3.16487,-0.659484 -3.55925,-0.790945 -0.62888,-0.209627 -0.981,-0.885976 -1.58189,-1.186418 -0.55008,-0.27504 -5.65246,-0.930762 -5.93209,-0.790946 -0.68751,0.343755 -1.31824,0.790946 -1.97737,1.186418 z"
       id="path15" />
    <path
       style="fill:#808000;stroke-width:0.264583"
       d="m 35.592544,181.52196 c 0.0925,-1.47238 0.33482,-1.46059 0.79094,-2.37283 0.3069,-0.61379 -0.0229,-7.14142 -0.39547,-7.51398 -0.0932,-0.0932 -0.30226,0.0932 -0.39547,0 -0.26098,-0.26098 -0.5587,-1.26803 -1.18642,-1.58189 -0.33235,-0.16618 -1.35205,-0.16564 -1.58189,-0.39548 -0.0932,-0.0932 0.0932,-0.30225 0,-0.39547 -0.37386,-0.37386 -2.042,-0.0646 -2.37284,-0.39547 -0.0932,-0.0932 0.0932,-0.30226 0,-0.39547 -0.18012,-0.18013 -1.92693,-0.17252 -2.37283,-0.39548 -0.11791,-0.0589 0.0932,-0.30225 0,-0.39547 -0.16874,-0.16874 -2.08701,-0.90059 -2.37284,-1.18642 -0.81825,-0.81825 1.25039,0.032 -0.39547,-0.79094 -0.4544,-0.2272 -2.11468,-0.92826 -2.37284,-1.18642 -0.0932,-0.0932 0.0932,-0.30226 0,-0.39547 -0.0932,-0.0932 -0.30226,0.0932 -0.39547,0 -0.0976,-0.0976 -0.0976,-2.27527 0,-2.37284 0.18643,-0.18643 0.55513,0.11791 0.79094,0 0.57098,-0.28549 1.01092,-0.50546 1.5819,-0.79095 0.23581,-0.1179 0.60451,0.18643 0.79094,0 0.0932,-0.0932 -0.0932,-0.30225 0,-0.39547 0.24152,-0.24152 2.76159,-0.19438 3.16378,-0.39547 0.16675,-0.0834 0.22873,-0.3121 0.39548,-0.39547 0.23877,-0.11939 1.0036,0.18281 1.18641,0 0.0932,-0.0932 -0.0932,-0.30226 0,-0.39548 0.40316,-0.40315 0.77095,0.43547 1.18642,-0.39547 0.14548,-0.29095 0.26843,-1.45484 0.39547,-1.58189 0.0932,-0.0932 0.30226,0.0932 0.39548,0 0.15788,-0.15788 0.11535,-2.5376 0,-2.76831 -0.42861,-0.85721 -0.79095,-0.58425 -0.79095,-1.58189 0,-1.05459 0.13183,0.13183 -0.39547,-0.39547 -0.26365,-0.26365 0.26365,-1.31824 0,-1.58189 -0.0932,-0.0932 -0.30226,0.0932 -0.39547,0 -0.1541,-0.15409 0,-1.34056 0,-1.58189 0,-1.75126 -1.06219,-7.76245 -0.39548,-9.09588 0.16675,-0.33349 0.6242,-0.45745 0.79095,-0.79094 0.11984,-0.23968 0.22975,-1.0207 0.39547,-1.18642 0.17058,-0.17058 2.38244,-1.38895 2.76831,-1.58189 0.23581,-0.11791 0.60452,0.18643 0.79095,0 0.0932,-0.0932 -0.0932,-0.30226 0,-0.39547 0.18642,-0.18643 0.52729,0 0.79094,0 0.77038,0 2.47181,-0.34599 3.16378,0 1.55348,0.77674 0.70833,1.10379 1.58189,1.97736 0.0932,0.0932 0.33652,-0.11791 0.39548,0 0.1179,0.23581 -0.0834,0.54083 0,0.79095 0.059,0.17686 0.3121,0.22872 0.39547,0.39547 0.31997,0.63993 0,2.4814 0,3.16378 0,0.30966 -0.19733,1.78003 0,1.97736 0.13182,0.13183 1.05459,0.26365 1.18642,0.39548 0.0932,0.0932 -0.0932,0.30226 0,0.39547 0.33084,0.33084 1.99897,0.0216 2.37283,0.39547 0.0932,0.0932 -0.0932,0.30226 0,0.39547 0.18643,0.18643 0.60452,-0.18642 0.79095,0 0.0932,0.0932 -0.11791,0.33652 0,0.39548 0.41809,0.20904 1.13899,0.17402 1.58189,0.39547 1.64586,0.82293 -0.42278,-0.0273 0.39547,0.79094 0.24297,0.24297 0.92158,0.26127 1.18642,0.79095 0.0624,0.12483 0.0855,1.49635 0,1.58189 -0.0932,0.0932 -0.30226,-0.0932 -0.39547,0 -0.0932,0.0932 0.0932,0.30226 0,0.39547 -0.0932,0.0932 -0.27757,-0.0589 -0.39547,0 -0.36271,0.18135 -0.67776,1.12983 -1.5819,1.58189 -0.42183,0.21092 -1.16005,-0.21091 -1.58189,0 -0.16674,0.0834 -0.22872,0.3121 -0.39547,0.39548 -0.57746,0.28873 -1.46809,-0.1138 -1.97736,0.39547 -0.18643,0.18643 0.18643,0.60452 0,0.79095 -0.0932,0.0932 -0.30226,-0.0932 -0.39548,0 -0.46278,0.46278 -1.23002,5.05393 -0.79094,5.93209 0.74323,1.48646 1.23413,2.46826 1.97736,3.95472 0.11791,0.23582 -0.18643,0.60452 0,0.79095 0.0932,0.0932 0.30226,-0.0932 0.39548,0 0.18642,0.18643 -0.18643,0.60452 0,0.79094 0.0932,0.0932 0.30225,-0.0932 0.39547,0 0.55919,0.5592 -0.19136,3.58476 0,4.3502 0.4323,1.72923 1.45141,4.74162 0.79094,6.72304 -0.0722,0.2165 -0.68009,1.47103 -0.79094,1.58189 -0.0932,0.0932 -0.30226,-0.0932 -0.39547,0 -0.16573,0.16572 -0.27564,0.94674 -0.39548,1.18642 -0.24867,0.49734 -0.54227,0.2936 -0.79094,0.79094 -0.11791,0.23582 0.18643,0.60452 0,0.79095 -0.81825,0.81825 0.032,-1.25039 -0.79095,0.39547 -0.059,0.11791 0.0932,0.30226 0,0.39547 -0.0932,0.0932 -0.30226,-0.0932 -0.39547,0 -0.0932,0.0932 0.0932,0.30226 0,0.39548 -0.19774,0.19773 -0.59321,0.19773 -0.79095,0.39547 -0.19773,0.19774 -0.19773,0.59321 -0.39547,0.79095 -0.13738,0.13737 -2.58591,0.1216 -2.76831,0 -0.70232,-0.46822 -1.31824,-1.0546 -1.97736,-1.5819 z"
       id="path16" />
    <path
       style="fill:#483e37;stroke-width:0.264583"
       d="m 58.925433,209.996 c 1.195721,-2.11211 2.457423,-3.87929 4.3502,-5.14114 0.456313,-0.30421 0.730101,-0.88221 1.186418,-1.18642 0.722902,-0.48194 1.678437,-0.66562 2.372836,-1.18642 1.112864,-0.83465 2.078934,-1.90043 3.163781,-2.76831 1.185958,-0.94876 2.751836,-1.47067 3.954728,-2.37283 0.298283,-0.22372 0.48071,-0.58413 0.790945,-0.79095 0.54887,-0.36591 1.750229,-0.47964 2.372836,-0.79094 0.82101,-0.41051 -0.03006,-0.38044 0.790946,-0.79095 0.510092,-0.25505 1.513427,-0.1635 1.977363,-0.39547 0.333491,-0.16675 0.471223,-0.59911 0.790945,-0.79095 3.211045,-1.92663 0.168858,0.0755 1.581891,-0.39547 1.166916,-0.38897 2.062732,-1.14147 3.163782,-1.58189 0.535083,-0.81493 1.339681,-0.18291 1.977363,-0.39547 0.353722,-0.11791 0.444757,-0.65247 0.790946,-0.79095 0.624096,-0.24964 1.376151,-0.0949 1.977363,-0.39547 0.596734,-0.29837 0.844098,-0.54502 1.581891,-0.79095 2.328249,-0.77608 4.754938,-1.38647 7.118509,-1.97736 1.005046,-0.25126 2.569414,-0.39501 3.559254,-0.79095 0.71368,-0.28547 1.26368,-0.90094 1.97736,-1.18641 1.16584,-0.46634 2.43826,-0.62592 3.55926,-1.18642 0.33349,-0.16675 0.48071,-0.58413 0.79094,-0.79095 0.5519,-0.36793 2.55773,-0.61778 3.16378,-0.79094 0.90436,-0.25839 1.87363,-1.00748 2.76831,-1.18642 4.20113,-0.84023 -2.78254,1.42939 2.76831,-0.79095 0.48959,-0.19583 1.06177,0.0867 1.58189,0 1.76864,-0.29477 3.44343,-0.76198 5.14115,-1.18642 1.3504,-0.3376 2.99979,-0.0579 4.3502,-0.39547 1.00206,-0.25051 1.38982,-0.79321 2.37283,-1.18642 0.24479,-0.0979 0.53517,0.064 0.79095,0 0.68301,-0.17075 1.30793,-0.5678 1.97736,-0.79094 0.35593,-0.11864 0.83049,0.11864 1.18642,0 0.65941,-0.2198 2.1795,-0.99015 2.76831,-1.18642 5.59536,-1.86512 -0.0125,0.16069 2.76831,-0.39547 0.69611,-0.13922 1.28125,-0.65173 1.97736,-0.79095 0.3878,-0.0776 0.80616,0.10865 1.18642,0 3.00127,-0.8575 0.28261,-0.68927 2.76831,-1.18642 1.29276,-0.25855 2.19444,-0.84521 3.55925,-1.18641 2.21893,-0.55473 0.1623,0.70979 2.37284,-0.39548 0.98895,-0.49447 2.08415,-1.15003 3.16378,-1.58189 0.81856,-0.32742 1.93046,-0.37202 2.76831,-0.79094 0.16674,-0.0834 0.21861,-0.33652 0.39547,-0.39548 0.25012,-0.0834 0.54083,0.0834 0.79095,0 2.3204,-0.77346 4.45232,-2.25549 6.72303,-3.16378 2.60917,-1.04366 5.52841,-1.57642 7.90946,-3.16378 1.68237,-1.12158 3.60324,-2.39043 5.53661,-3.16378 1.55097,-0.62038 3.20294,-0.9648 4.74568,-1.58189 0.70881,-0.28352 1.2096,-0.99448 1.97736,-1.18642 3.35261,-0.83815 6.23146,-2.65077 9.49135,-3.95473 0.50465,-0.20186 1.09574,-0.1524 1.58189,-0.39547 0.42512,-0.21256 0.74511,-0.61442 1.18641,-0.79094 2.79796,-1.11919 -1.35921,1.36919 1.5819,-0.39548 1.786,-1.0716 3.57587,-1.48718 5.53661,-1.97736 1.11943,-0.27986 0.70151,-0.76113 1.97737,-1.18642 0.37518,-0.12506 0.81923,0.14688 1.18641,0 0.34619,-0.13847 0.43723,-0.67304 0.79095,-0.79094 0.50024,-0.16675 1.06483,0.10341 1.58189,0 0.14768,-0.0295 2.26411,-1.04236 2.76831,-1.18642 3.7886,-1.08246 7.42398,-2.34284 11.07324,-3.55926 1.07639,-0.35879 2.13821,-1.24003 3.16378,-1.58189 0.35488,-0.25012 0.81124,0.12506 1.18642,0 0.69601,-0.232 1.36307,-0.98165 1.97736,-1.18642 0.25012,-0.0834 0.53517,0.064 0.79094,0 1.0173,-0.25432 1.89716,-1.14631 2.76831,-1.58189 0.88816,-0.44407 3.7259,-1.37793 4.74568,-1.58189 0.38779,-0.0776 0.82292,0.15579 1.18641,0 0.60583,-0.25964 1.03347,-0.8208 1.58189,-1.18642 0.66525,-0.44349 2.34914,-0.93491 2.76831,-1.18641 0.11304,-0.0678 -0.0932,-0.30226 0,-0.39548 0.6253,-0.62529 1.61455,-0.73144 2.37284,-1.18641 0.15986,-0.0959 0.26365,-0.26365 0.39547,-0.39548 0.39548,-0.26364 0.7613,-0.57838 1.18642,-0.79094 0.76618,-0.38309 2.06547,-0.71786 2.76831,-1.18642 0.45631,-0.30421 0.7301,-0.88221 1.18642,-1.18642 0.80523,-0.53682 1.93021,-1.16284 2.76831,-1.58189 0.84037,-0.42018 3.25479,-1.74405 3.95472,-1.97736 0.25012,-0.0834 0.53517,0.0639 0.79095,0 0.77449,-0.19363 1.32752,-0.8615 1.97736,-1.18642 0.11791,-0.0589 0.30226,0.0932 0.39548,0 0.0932,-0.0932 -0.0932,-0.30226 0,-0.39547 0.0932,-0.0932 0.27756,0.0589 0.39547,0 0.47457,-0.23729 0.71185,-0.94914 1.18642,-1.18642 0.3938,-0.19691 2.14979,-0.96337 2.37283,-1.18642 0.0932,-0.0932 -0.0932,-0.30226 0,-0.39547 0.36942,-0.3694 1.60796,-0.42154 1.97737,-0.79095 0.0932,-0.0932 -0.0932,-0.30226 0,-0.39547 0.18642,-0.18643 0.60452,0.18643 0.79094,0 0.0932,-0.0932 -0.0932,-0.30226 0,-0.39547 0.0932,-0.0932 0.30226,0.0932 0.39548,0 0.0932,-0.0932 -0.059,-0.27757 0,-0.39548 0.19309,-0.38619 1.82456,-1.30776 2.37283,-1.58189 0.27967,-0.13983 2.66579,-0.10251 2.76831,0 0.0932,0.0932 -0.0932,0.30226 0,0.39548 0.0528,0.0528 6.8507,0 7.51398,0 1.60798,0 5.85484,-0.42123 7.11851,0 0.62889,0.20963 0.981,0.88597 1.58189,1.18641 0.1179,0.059 0.30226,-0.0932 0.39548,0 0.13125,0.13127 0.13125,3.03252 0,3.16379 -0.0932,0.0932 -0.26366,0 -0.39548,0 0,0.26364 0.0834,0.54082 0,0.79094 -0.41148,1.2344 -0.26365,-0.13182 -0.79094,0.39547 -0.32957,0.32957 0.32956,1.64781 0,1.97737 -0.0932,0.0932 -0.30226,-0.0932 -0.39548,0 -0.18642,0.18643 0.0834,0.54082 0,0.79094 -0.99893,2.99678 0.1428,-0.1428 -0.79094,0.79095 -0.41688,0.41686 -0.3741,1.16502 -0.79095,1.58189 -0.0932,0.0932 -0.30226,-0.0932 -0.39547,0 -0.0932,0.0932 0.0932,0.30226 0,0.39547 -0.0932,0.0932 -0.27757,-0.059 -0.39547,0 -0.25559,0.1278 -4.66905,4.19694 -4.74567,4.3502 -0.0589,0.11791 0.0932,0.30226 0,0.39547 -0.0214,0.0214 -1.16499,0.76952 -1.18642,0.79095 -0.0932,0.0932 0.0731,0.28579 0,0.39547 -0.31025,0.46535 -0.93631,0.68618 -1.18642,1.18642 -0.0589,0.11791 0.0932,0.30226 0,0.39547 -0.0932,0.0932 -0.30226,-0.0932 -0.39547,0 -0.22921,0.22922 -0.56174,1.35268 -0.79095,1.58189 -0.0932,0.0932 -0.30226,-0.0932 -0.39547,0 -0.0932,0.0932 0.0589,0.27757 0,0.39548 -0.82293,1.64586 0.0273,-0.42278 -0.79095,0.39547 -0.40814,0.40813 -0.57465,1.14931 -0.79094,1.58189 -0.3919,0.78381 -1.49074,1.24744 -1.97737,1.97736 -0.3521,0.52815 -0.74173,1.53268 -1.18641,1.97737 -0.22347,0.22345 -1.28731,0.49634 -1.58189,0.79094 -0.19775,0.19774 -0.19775,0.59321 -0.39548,0.79095 -0.41687,0.41686 -1.09138,0.46393 -1.58189,0.79094 -0.86616,0.57745 -1.43936,1.9061 -2.37283,2.37284 -0.1179,0.059 -0.30226,-0.0932 -0.39548,0 -0.20844,0.20843 -0.18703,0.58251 -0.39547,0.79094 -0.0975,0.0975 -1.66449,0.97784 -1.97736,1.18642 -0.41894,0.2793 -1.36053,1.24984 -1.5819,1.58189 -0.0731,0.10969 0.11791,0.33652 0,0.39548 -0.23581,0.11791 -0.54082,-0.0834 -0.79094,0 -0.59047,0.19682 -1.05684,1.23185 -1.58189,1.58189 -0.24527,0.1635 -0.58252,0.18704 -0.79095,0.39547 -0.0932,0.0932 0.0932,0.30226 0,0.39547 -1.54342,1.54343 -0.21239,-0.0915 -1.18642,0.39548 -0.73212,0.36606 -1.27708,1.23174 -1.97736,1.58189 -0.78782,0.39391 -0.99077,1.53402 -1.58189,1.97736 -0.33349,0.25012 -0.83957,0.16424 -1.18642,0.39547 -0.46535,0.31024 -0.73899,0.85085 -1.18642,1.18642 -0.33349,0.25012 -0.82896,0.181 -1.18642,0.39547 -1.13453,0.68072 -2.07679,1.64818 -3.16378,2.37284 -0.85878,0.57252 -1.86871,0.73662 -2.76831,1.18642 -2.21383,1.10691 -4.7886,2.5039 -6.72303,3.95472 -1.01724,0.76293 -2.18032,0.53078 -3.16378,1.18642 -0.31024,0.20682 -0.48071,0.58413 -0.79095,0.79095 -1.12604,0.75069 -3.00412,1.02676 -3.95473,1.97736 -0.0932,0.0932 0.0932,0.30226 0,0.39547 -0.37089,0.37089 -1.83685,0.43363 -2.37283,0.79095 -0.69047,0.46031 -1.29386,1.12622 -1.97737,1.58189 -0.49835,0.33224 -1.81493,0.512 -2.37283,0.79095 -0.33349,0.16674 -0.45746,0.6242 -0.79095,0.79094 -0.56227,0.28114 -1.36858,0.42568 -1.97736,0.79095 -0.54431,0.32658 -1.43305,1.2553 -1.97736,1.58189 -0.35746,0.21447 -0.81357,0.20904 -1.18642,0.39547 -0.85269,0.42634 -2.57344,2.04423 -3.55926,2.37284 -0.25012,0.0834 -0.55513,-0.11791 -0.79094,0 -1.1516,0.5758 -1.86399,1.85292 -3.16378,2.37283 -0.50522,0.20209 -1.49528,0.0741 -1.97737,0.39548 -1.2876,0.85839 -0.22959,0.73565 -1.58189,1.18641 -1.41303,0.47101 1.62916,-1.53115 -1.58189,0.39548 -0.31972,0.19183 -0.47122,0.59911 -0.79094,0.79094 -0.60873,0.36524 -1.36864,0.42571 -1.97737,0.79095 -1.13765,0.68259 -2.38976,1.39262 -3.55925,1.97736 -0.38433,0.19216 -1.19756,0.20331 -1.58189,0.39547 -0.5288,0.2644 -1.05776,0.97677 -1.58189,1.18642 -0.36719,0.14688 -0.79863,-0.0776 -1.18642,0 -1.0452,0.20904 -2.27428,1.13714 -3.16378,1.58189 -0.76745,0.38372 -5.47714,2.18385 -6.32757,2.37284 -0.38605,0.0858 -0.79862,-0.0776 -1.18641,0 -0.78696,0.15739 -1.54833,0.62604 -2.37284,0.79094 -0.63377,0.12676 -1.34359,-0.12675 -1.97736,0 -0.28905,0.0578 -0.50498,0.32399 -0.79095,0.39548 -0.63944,0.15986 -1.33104,-0.12927 -1.97736,0 -1.33241,0.26648 -2.55875,0.90722 -3.95473,1.18641 -0.37676,0.0754 -0.81412,-0.0931 -1.18642,0 -1.07045,-0.67213 -1.02261,0.60452 -1.58189,0.79095 -0.59321,0.19774 -0.69208,-0.0989 -1.18642,0 -5.25812,1.05162 10e-4,-0.19841 -1.97736,0.79095 -0.35372,0.17686 -0.80275,-0.0959 -1.18642,0 -0.8329,0.20822 -1.55708,0.91449 -2.37284,1.18641 -0.25011,0.0834 -0.54082,-0.0834 -0.79094,0 -1.23522,0.41174 -2.48648,1.0455 -3.55926,1.58189 -0.35372,0.17686 -0.80275,-0.0959 -1.18641,0 -0.72934,0.18234 -1.00749,0.50375 -1.58189,0.79095 -0.6778,0.3389 -1.98293,0.52915 -2.76831,0.79094 -0.33352,0.11118 -0.87411,-0.15615 -1.18642,0 -0.81886,0.40944 -1.56364,0.78182 -2.37284,1.18642 -0.21111,0.10556 -0.57983,-0.10556 -0.79094,0 -1.20602,0.60301 0.7233,0.31352 -1.18642,0.79095 -0.91052,0.22763 -1.82925,0.32141 -2.76831,0.79094 -0.73183,0.36592 -1.77273,1.28184 -2.37284,1.58189 -0.67989,0.33995 -1.2407,0.14992 -1.97736,0.39548 -0.2165,0.0722 -1.47104,0.68009 -1.58189,0.79094 -0.0932,0.0932 0.11791,0.33652 0,0.39548 -0.23581,0.1179 -0.57158,-0.14625 -0.79095,0 -0.24526,0.1635 -0.18703,0.58251 -0.39547,0.79094 -0.18643,0.18643 -0.55513,-0.11791 -0.79094,0 -0.63276,0.31638 -0.94914,1.26551 -1.58189,1.58189 -0.23582,0.11791 -0.60452,-0.18643 -0.79095,0 -0.0932,0.0932 0.0932,0.30226 0,0.39547 -0.43989,0.43989 -1.68333,-0.24845 -1.97736,-0.39547 -0.91389,-0.45694 -2.56427,0.24875 -3.55926,0 -0.28596,-0.0715 -0.5113,-0.30226 -0.79094,-0.39547 -1.3783,-0.45943 -4.34455,0.59603 -5.53662,0 -2.03664,-1.01832 -7.44436,-0.39547 -9.88682,-0.39547 -4.74567,0 -9.49134,0 -14.23702,0 -1.532783,0 -5.414448,0.43619 -6.723029,0 -1.533713,-0.51124 -3.105185,-0.39548 -4.745673,-0.39548 -8.832225,0 -17.664448,0 -26.496671,0 -1.054595,0 -2.109189,0 -3.163781,0 -0.131826,0 -0.363501,0.12789 -0.395473,0 -0.127889,-0.51155 0,-1.05459 0,-1.58189 z"
       id="path17" />
    <path
       style="fill:#f2f2f2;stroke-width:0.264583"
       id="path47"
       d="m 100.9107,209.64546 c 1.14977,-0.75433 2.33541,-1.46418 3.53908,-2.13076 1.11652,-0.4812 2.23003,-0.96692 3.37383,-1.38032 1.10573,-0.42772 2.20996,-0.86409 3.2663,-1.40502 0.14261,-0.0673 0.28522,-0.13452 0.42782,-0.20178 0,0 -3.3019,-2.18019 -3.3019,-2.18019 v 0 c -0.1432,0.0699 -0.28639,0.13983 -0.42958,0.20974 -1.05033,0.52036 -2.13479,0.96632 -3.23372,1.37302 -1.15362,0.43452 -2.29298,0.90739 -3.40805,1.43353 -1.200029,0.69032 -2.385977,1.40679 -3.561941,2.13697 z" />
    <path
       style="fill:#f2f2f2;stroke-width:0.264583"
       id="path48"
       d="m 121.4659,201.0087 c 1.20566,-0.64944 2.40104,-1.33049 3.65219,-1.8895 1.11896,-0.53834 2.29575,-0.95085 3.47776,-1.32628 0.87937,-0.38304 1.79836,-0.6516 2.7103,-0.94164 0.52735,-0.13804 0.26403,-0.0567 0.78944,-0.24559 0,0 -3.28029,-2.22247 -3.28029,-2.22247 v 0 c -0.51816,0.16652 -0.25635,0.0862 -0.78549,0.24077 -0.90597,0.2977 -1.81585,0.58018 -2.69514,0.95295 -1.18865,0.3965 -2.37699,0.80785 -3.50175,1.36515 -1.24631,0.58786 -2.4437,1.27343 -3.67642,1.88914 z" />
    <path
       style="fill:#f2f2f2;stroke-width:0.264583"
       id="path49"
       d="m 142.82142,193.09924 c 1.1237,-0.59806 2.29096,-1.10518 3.43408,-1.66388 1.07345,-0.49746 2.24627,-0.69816 3.36534,-1.05833 0.83089,-0.218 1.63572,-0.50645 2.45739,-0.75196 0.65752,-0.12241 1.30641,-0.30096 1.92815,-0.55038 0.46224,-0.18422 0.95106,-0.26715 1.42234,-0.42166 0,0 -3.27486,-2.23407 -3.27486,-2.23407 v 0 c -0.48256,0.13626 -0.97212,0.25056 -1.43873,0.43787 -0.63065,0.21137 -1.26886,0.38664 -1.91683,0.53493 -0.80994,0.26813 -1.62358,0.51481 -2.44037,0.76182 -1.1399,0.3421 -2.31736,0.5829 -3.39395,1.10969 -1.15232,0.55028 -2.30557,1.09682 -3.45196,1.65851 z" />
    <path
       style="fill:#f2f2f2;stroke-width:0.264583"
       id="path50"
       d="m 163.41673,185.65528 c 1.34813,-0.59862 2.72926,-1.13344 4.05846,-1.77331 0.92652,-0.43835 1.88749,-0.80025 2.84522,-1.1637 0.57601,-0.25676 1.11572,-0.57699 1.69439,-0.82898 0,0 -3.29911,-2.18883 -3.29911,-2.18883 v 0 c -0.56315,0.26477 -1.10191,0.57832 -1.67932,0.812 -0.95889,0.37674 -1.92964,0.73001 -2.84942,1.19762 -1.32303,0.62797 -2.67953,1.19885 -4.04646,1.7223 z" />
    <path
       style="fill:#f2f2f2;stroke-width:0.264583"
       id="path51"
       d="m 178.41397,178.07128 c 1.29665,-0.75369 2.66887,-1.36269 4.02039,-2.00811 1.10654,-0.5365 2.24,-1.00271 3.35035,-1.53111 0.14504,-0.0589 0.29008,-0.11787 0.43511,-0.1768 0,0 -3.29147,-2.19571 -3.29147,-2.19571 v 0 c -0.14766,0.0649 -0.29531,0.12979 -0.44297,0.19468 -1.1013,0.53688 -2.23828,0.98959 -3.3326,1.54147 -1.35739,0.64984 -2.72051,1.28822 -4.04821,1.99811 z" />
    <path
       style="fill:#f2f2f2;stroke-width:0.264583"
       id="path52"
       d="m 193.87813,171.35467 c 1.39307,-0.56926 2.77465,-1.16553 4.17075,-1.72851 0.9557,-0.35103 1.88837,-0.76244 2.80381,-1.20581 0.32014,-0.13088 0.64977,-0.21849 0.97272,-0.34245 0,0 -3.28951,-2.21793 -3.28951,-2.21793 v 0 c -0.33508,0.11654 -0.67631,0.21981 -0.99522,0.37766 -0.8984,0.44663 -1.82544,0.83835 -2.76098,1.19987 -1.40306,0.56696 -2.78363,1.1884 -4.19781,1.72685 z" />
    <path
       style="fill:#f2f2f2;stroke-width:0.264583"
       id="path53"
       d="m 208.89609,165.48618 c 1.4264,-0.53108 2.87917,-0.99203 4.24984,-1.65918 0.887,-0.35935 1.71019,-0.84202 2.5591,-1.27764 0.45048,-0.15871 0.8884,-0.33559 1.33139,-0.51489 0,0 -3.29988,-2.20654 -3.29988,-2.20654 v 0 c -0.4484,0.1864 -0.90844,0.34201 -1.34755,0.54933 -0.83288,0.44843 -1.66336,0.89773 -2.53003,1.27929 -1.36839,0.64634 -2.80504,1.12831 -4.23911,1.60673 z" />
    <path
       style="fill:#f2f2f2;stroke-width:0.264583"
       id="path54"
       d="m 224.68427,158.69312 c 1.21396,-0.67605 2.44101,-1.3328 3.71564,-1.88805 0.91103,-0.3913 1.81202,-0.82153 2.74525,-1.15801 0.10594,-0.0558 0.21188,-0.11157 0.31782,-0.16735 0,0 -3.31535,-2.18194 -3.31535,-2.18194 v 0 c -0.0978,0.0458 -0.19557,0.0916 -0.29336,0.13734 -0.92179,0.37228 -1.83043,0.77978 -2.73583,1.18995 -1.27313,0.58025 -2.49951,1.2515 -3.74357,1.89059 z" />
    <path
       style="fill:#f2f2f2;stroke-width:0.264583"
       id="path55"
       d="m 238.92129,151.97008 c 1.22393,-0.7556 2.49984,-1.42222 3.74997,-2.13322 1.03963,-0.56467 2.004,-1.25352 3.02466,-1.84866 0,0 -3.32342,-2.15054 -3.32342,-2.15054 v 0 c -1.00052,0.61562 -1.96486,1.28895 -2.99496,1.85675 -1.25056,0.70807 -2.51701,1.38671 -3.76565,2.0982 z" />
    <path
       style="fill:#f2f2f2;stroke-width:0.264583"
       id="path56"
       d="m 252.77221,143.99699 c 1.25563,-0.80543 2.41091,-1.75673 3.67076,-2.55372 0.81713,-0.61405 1.63051,-1.22224 2.52521,-1.72068 0,0 -3.31693,-2.15539 -3.31693,-2.15539 v 0 c -0.88523,0.52191 -1.70641,1.12832 -2.5257,1.74657 -1.23969,0.82753 -2.3973,1.77561 -3.6815,2.53842 z" />
    <path
       style="fill:#f2f2f2;stroke-width:0.264583"
       id="path57"
       d="m 264.65773,136.61667 c 1.21785,-0.47409 2.36948,-1.09849 3.47721,-1.78833 0.80777,-0.57327 1.59393,-1.18538 2.31026,-1.87041 0.48093,-0.38543 0.90331,-0.8352 1.36977,-1.23638 0,0 -3.37277,-2.09526 -3.37277,-2.09526 v 0 c -0.45778,0.41588 -0.89522,0.85382 -1.36745,1.25389 -0.70281,0.66062 -1.46328,1.26362 -2.26044,1.8063 -1.08951,0.67101 -2.21236,1.30506 -3.43281,1.70729 z" />
    <path
       style="fill:#f2f2f2;stroke-width:0.264583"
       id="path58"
       d="m 277.59199,127.56414 c 0.58997,-1.1003 1.30546,-2.125 2.0233,-3.14423 0.0987,-0.11393 0.19743,-0.22786 0.29615,-0.34179 0,0 -3.39117,-2.03956 -3.39117,-2.03956 v 0 c -0.10364,0.12516 -0.20725,0.25032 -0.31086,0.37548 -0.71472,1.03002 -1.40636,2.07581 -2.03941,3.15841 z" />
    <path
       style="fill:#483e37;stroke-width:0.264583"
       d="m 50.620506,176.38082 c 2.250689,-0.49748 1.140674,0.17487 2.372836,0.79095 0.117906,0.0589 0.302258,-0.0932 0.395473,0 0.09321,0.0932 -0.09322,0.30226 0,0.39547 0.208431,0.20843 0.582512,0.18704 0.790945,0.39547 0.179581,0.17958 1.515706,2.70213 1.581891,2.76831 0.197736,0.19774 0.593209,0.19774 0.790945,0.39547 0.229214,0.22922 0.561729,1.35268 0.790946,1.58189 0.258929,0.25893 0.913916,0.24595 1.186418,0.79095 0.05895,0.11791 -0.09322,0.30226 0,0.39547 0.131823,0.13183 1.054592,0.26365 1.186418,0.39548 0.09321,0.0932 -0.09322,0.30226 0,0.39547 0.09321,0.0932 0.277564,-0.059 0.395473,0 0.362699,0.18135 0.677759,1.12982 1.581891,1.58189 0.449326,0.22466 1.016762,-0.0848 1.977363,0.39547 1.056455,0.52823 1.352362,-0.56142 1.581891,-0.79094 0.09321,-0.0932 0.302257,0.0932 0.395473,0 0.186425,-0.18643 -0.186428,-0.60452 0,-0.79095 0.09321,-0.0932 0.302257,0.0932 0.395472,0 0.186426,-0.18643 0,-0.5273 0,-0.79094 0,-0.503 0.320157,-2.84363 0,-3.16379 -0.09322,-0.0932 -0.277566,0.059 -0.395472,0 -1.645865,-0.82293 0.422772,0.0273 -0.395473,-0.79094 -0.229217,-0.22922 -1.352677,-0.56173 -1.581891,-0.79095 -0.131826,-0.13182 -0.263649,-1.05459 -0.395473,-1.18642 -0.197736,-0.19773 -0.593209,-0.19773 -0.790945,-0.39547 -0.186428,-0.18643 0.186425,-0.60452 0,-0.79094 -0.09322,-0.0932 -0.30226,0.0932 -0.395473,0 -0.186428,-0.18643 0.186426,-0.60452 0,-0.79095 -0.09322,-0.0932 -0.30226,0.0932 -0.395472,0 -0.09322,-0.0932 0.09321,-0.30226 0,-0.39547 -0.158298,-0.1583 -0.502563,-0.21418 -0.790946,-0.79095 -0.292663,-0.58532 0.242814,-1.8247 0.395473,-1.97736 0.264583,-0.26458 0.526362,0.26458 0.790945,0 0.09321,-0.0932 -0.09322,-0.30226 0,-0.39547 0.197737,-0.19774 0.988682,0.19773 1.186418,0 0.09321,-0.0932 -0.09322,-0.30226 0,-0.39548 0.197737,-0.19773 0.988682,0.19774 1.186419,0 0.09321,-0.0932 -0.09322,-0.30225 0,-0.39547 0.264583,-0.26458 0.526362,0.26459 0.790945,0 0.186425,-0.18643 -0.186428,-0.60452 0,-0.79094 0.09321,-0.0932 0.277564,0.059 0.395473,0 0.487569,-0.24379 1.733579,-1.4898 1.977363,-1.97737 0.05895,-0.1179 -0.09322,-0.30225 0,-0.39547 0.09321,-0.0932 0.302258,0.0932 0.395473,0 0.104682,-0.10468 0,-1.02357 0,-1.18642 0,-0.26364 0.186425,-0.60452 0,-0.79094 -0.09322,-0.0932 -0.30226,0.0932 -0.395473,0 -0.186428,-0.18643 0.186426,-0.60452 0,-0.79095 -0.09322,-0.0932 -0.30226,0.0932 -0.395473,0 -0.01392,-0.0139 -0.254666,-1.04561 -0.395472,-1.18642 -0.469831,-0.46983 -1.822516,0.3264 -1.977364,0.79095 -0.126598,0.37979 0.189778,1.20233 0,1.58189 -0.230338,0.46068 -0.560609,0.72574 -0.790945,1.18642 -0.05895,0.11791 0.09321,0.30226 0,0.39547 -0.186428,0.18643 -0.60452,-0.18643 -0.790946,0 -0.09322,0.0932 0.09321,0.30226 0,0.39547 -0.659122,0.65912 -3.295607,-0.65912 -3.954727,0 -0.09322,0.0932 0.09321,0.30226 0,0.39548 -0.31565,0.31565 -1.562457,-0.20746 -1.977363,0 -1.645865,0.82293 0.422772,-0.0273 -0.395473,0.79094 -0.240596,0.2406 -3.659158,0.39547 -4.3502,0.39547 -0.483012,0 -3.868311,0.30906 -3.954727,0.39548 -0.09322,0.0932 0.09321,0.30226 0,0.39547 -0.263649,0.26365 -1.318244,-0.26365 -1.58189,0 -0.09322,0.0932 0.09321,0.30226 0,0.39547 -0.03955,0.0395 -1.146871,0.0395 -1.186418,0 -0.09322,-0.0932 0.09321,-0.30226 0,-0.39547 -0.09322,-0.0932 -0.277567,0.0589 -0.395473,0 -1.161431,-0.58072 -2.786142,-0.58429 -3.954727,0 -0.235815,0.11791 -0.604518,-0.18643 -0.790946,0 -0.09322,0.0932 0.09321,0.30226 0,0.39547 -0.09322,0.0932 -0.30226,-0.0932 -0.395472,0 -0.08016,0.0802 -0.08016,1.8972 0,1.97737 0.15409,0.15409 1.340556,0 1.58189,0 0.848493,0 1.276983,2.02264 1.977364,2.37283 0.719963,0.35998 5.998906,0 6.723036,0 z"
       id="path59" />
    <ellipse
       style="fill:#28170b;stroke-width:0.264583"
       id="path60"
       cx="54.970707"
       cy="175.78764"
       rx="1.5818908"
       ry="1.3841544" />
    <ellipse
       style="fill:#28170b;stroke-width:0.264583"
       id="path60-2"
       cx="58.517788"
       cy="175.0761"
       rx="1.5818908"
       ry="1.3841544" />
    <path
       style="fill:#808000;stroke-width:0.264583"
       d="m 94.913445,157.7936 c -0.25128,-0.60706 0.34922,-5.58287 0,-5.93209 -0.0932,-0.0932 -0.30226,0.0932 -0.39547,0 -0.28415,-0.28414 -0.47635,-1.66276 -0.79095,-1.97736 -0.0932,-0.0932 -0.30225,0.0932 -0.39547,0 -0.19774,-0.19774 -0.19774,-0.59321 -0.39547,-0.79095 -0.18643,-0.18642 -0.60452,0.18643 -0.79095,0 -0.18642,-0.18642 0.18643,-0.60451 0,-0.79094 -0.0932,-0.0932 -0.30225,0.0932 -0.39547,0 -0.0442,-0.0442 0,-5.50453 0,-5.93209 0,-0.82196 0.0271,-0.42262 0.39547,-0.79095 0.18091,-0.18091 0.13219,-2.8994 0,-3.16378 -0.28838,-0.57676 -0.63265,-0.63265 -0.79094,-0.79094 -0.18643,-0.18643 0.11791,-0.55513 0,-0.79095 -0.39186,-0.78371 -0.096,-0.68342 -0.39548,-1.58189 -0.0589,-0.17686 -0.33651,-0.21861 -0.39547,-0.39547 -0.21612,-0.64836 0.30433,-1.76418 0,-2.37284 -0.059,-0.11791 -0.33652,0.11791 -0.39547,0 -0.11418,-0.22836 -0.0903,-7.72892 0,-7.90945 0.26484,-0.52968 0.94345,-0.54798 1.18642,-0.79095 0.0932,-0.0932 -0.0932,-0.30226 0,-0.39547 0.18281,-0.18281 0.94764,0.11939 1.18642,0 0.41921,-0.20961 0.97683,-0.698 1.58189,-0.39547 1.64586,0.82293 -0.42278,-0.0273 0.39547,0.79094 0.0932,0.0932 0.30226,-0.0932 0.39547,0 0.0932,0.0932 -0.0589,0.27757 0,0.39547 0.16675,0.3335 0.58412,0.48071 0.79095,0.79095 0.7752,1.16281 1.3587,2.32194 1.97736,3.55925 0.17686,0.35372 -0.0959,0.80276 0,1.18642 0.21147,0.84587 0.43563,1.66221 0.79095,2.37284 0.11938,0.23877 -0.18282,1.0036 0,1.18642 0.0932,0.0932 0.30226,-0.0932 0.39547,0 0.0139,0.0139 0.25467,1.04561 0.39547,1.18641 0.24297,0.24297 0.921575,0.26127 1.186415,0.79095 0.12216,0.24432 0.24889,1.4353 0.39547,1.58189 0.0932,0.0932 0.30226,-0.0932 0.39547,0 0.13439,0.13439 0.50396,3.45077 0.39548,3.55925 -0.0932,0.0932 -0.30226,-0.0932 -0.39548,0 -0.0932,0.0932 0.059,0.27757 0,0.39548 -0.82293,1.64586 0.0273,-0.42278 -0.79094,0.39547 -0.18643,0.18643 0.18643,0.60452 0,0.79095 -0.13182,0.13182 -0.527295,0.26364 -0.39547,0.39547 0.52785,0.52785 2.97091,-0.80068 3.16378,-1.18642 0.21284,-0.42567 0.58381,-0.565 0.79094,-1.18642 0.23729,-0.71185 -0.23728,-1.66098 0,-2.37283 0.13655,-0.40964 0.59478,-0.79409 0.79095,-1.18642 0.18972,-0.37944 -0.0222,-0.74661 0.39547,-1.58189 0.16464,-0.32927 -0.25085,-1.33104 0,-1.58189 0.18643,-0.18643 0.60452,0.18642 0.79095,0 0.0932,-0.0932 -0.0932,-0.30226 0,-0.39548 0.50948,-0.50948 2.22019,-0.54811 2.76831,0 2.35236,2.35237 3.04877,7.34852 1.58189,10.28229 -0.41897,0.83794 -0.37198,-0.047 -0.79095,0.79095 -0.0589,0.11791 0.0932,0.30226 0,0.39547 -0.0932,0.0932 -0.30226,-0.0932 -0.39547,0 -0.22084,0.22085 -0.57783,1.17617 -1.18642,1.58189 -1.19125,0.79417 -2.22256,0.91355 -3.55925,1.58189 -0.23582,0.11791 -0.60452,-0.18642 -0.79095,0 -0.0234,0.0234 -1.16832,1.905 -1.18642,1.97737 -0.0639,0.25577 0.11791,0.55513 0,0.79094 -0.0589,0.11791 -0.33652,-0.1179 -0.39547,0 -0.17686,0.35372 0.27964,0.90678 0,1.18642 -0.0932,0.0932 -0.33652,-0.11791 -0.39547,0 -0.31206,0.62411 0.48373,2.68005 0,3.16378 -0.0932,0.0932 -0.30226,-0.0932 -0.39548,0 -0.0932,0.0932 0.0932,0.30226 0,0.39547 -0.0932,0.0932 -0.30225,-0.0932 -0.39547,0 -0.0932,0.0932 0.0932,0.30226 0,0.39548 -0.0932,0.0932 -0.30226,-0.0932 -0.39547,0 -0.0932,0.0932 0.0932,0.30226 0,0.39547 -0.0932,0.0932 -0.30226,-0.0932 -0.39547,0 -0.0932,0.0932 0.0932,0.30226 0,0.39547 -0.0932,0.0932 -0.302255,-0.0932 -0.395475,0 -0.0932,0.0932 0.0932,0.30226 0,0.39548 -0.0932,0.0932 -0.27756,-0.059 -0.39547,0 -0.33349,0.16674 -0.45745,0.6242 -0.79094,0.79094 -0.20761,0.10381 -3.18861,0.30281 -3.55926,0.39547 z"
       id="path61" />
    <ellipse
       style="fill:#e6e6e6;stroke-width:0.264583"
       id="path62"
       cx="250.2643"
       cy="167.92407"
       rx="6.3275633"
       ry="6.129827" />
    <rect
       style="fill:#4d4d4d;stroke-width:0.264583"
       id="rect62"
       width="2.3728361"
       height="20.960054"
       x="249.1478"
       y="174.00798" />
    <path
       style="fill:#808080;stroke-width:0.264583"
       d="m 245.19307,170.84421 9.49135,-6.32757"
       id="path63" />
    <path
       style="fill:#4d4d4d;stroke-width:0.264583"
       d="m 244.40213,170.44873 9.88682,-5.93209"
       id="path64" />
    <path
       style="fill:#4d4d4d;stroke-width:0.264583"
       d="m 255.07989,174.79893 -3.55925,-4.74567"
       id="path65" />
    <path
       style="fill:#4d4d4d;stroke-width:0.264583"
       d="m 249.93875,167.28495 -3.55926,2.76831"
       id="path66" />
    <path
       style="fill:#4d4d4d;stroke-width:0.264583"
       d="m 244.40661,170.44145 10.90601,-6.15211"
       id="path69" />
    <path
       style="fill:#4d4d4d;stroke-width:0.264583"
       d="m 245.24553,171.28037 10.48655,-6.01229"
       id="path70" />
    <path
       style="fill:#4d4d4d;stroke-width:0.264583"
       d="m -117.4494,125.83864 0.55928,-19.85454"
       id="path71" />
    <path
       style="fill:#4d4d4d;stroke-width:0.264583"
       d="m -111.29729,124.99972 1.11857,-17.05813"
       id="path72" />
    <path
       style="fill:#4d4d4d;stroke-width:0.264583"
       d="M -112.69549,99.552349 V 125.83864"
       id="path73" />
    <path
       style="fill:#4d4d4d;stroke-width:0.264583"
       d="m -108.78052,135.90573 -7.27067,-32.4384"
       id="path74" />
    <path
       style="fill:#4d4d4d;stroke-width:0.264583"
       d="m -104.02661,133.6686 3.91498,-4.47426"
       id="path75" />
    <path
       style="fill:#4d4d4d;stroke-width:0.264583"
       d="m -97.594858,121.36438 -1.398206,-1.39821"
       id="path76" />
    <path
       style="fill:#4d4d4d;stroke-width:0.264583"
       d="m -90.32418,109.3398 -0.559284,14.26171"
       id="path77" />
    <rect
       style="fill:#4d4d4d;stroke-width:0.253129"
       id="rect77"
       width="0.5592829"
       height="12.285804"
       x="-295.34235"
       y="52.745766"
       transform="rotate(-134.86135)" />
    <rect
       style="fill:#4d4d4d;stroke-width:0.253129"
       id="rect77-6"
       width="0.5592829"
       height="12.285804"
       x="296.91858"
       y="-59.319382"
       transform="rotate(44.023547)" />
  </g>
</svg>
